<svg viewBox="0 0 91.85 57.04" xmlns="http://www.w3.org/2000/svg"><path d="m22.64 25.56-1.22.49-2.53 1-1.47 4.45-1.48 4.81s4.11-2.27 6.31 0 6.67-.9 6.67-.9l9.23-5.07v-3.89l-7-3.37" fill="#fff"/><path d="m41.66 13.85a7.27 7.27 0 0 0 -3.39-2.21h-.05a9.52 9.52 0 0 0 -3.79-.28 27.73 27.73 0 0 0 -3.49.62 26.24 26.24 0 0 1 -3.09.54 6.07 6.07 0 0 1 -2.36-.17 3.94 3.94 0 0 1 -1-.48 3 3 0 0 0 -2.32-2.87h-.17-.1a3 3 0 0 0 -3.37 2.33l-5.27 23.49a3 3 0 0 0 2.14 3.56h.13a3.05 3.05 0 0 0 .67.07 3 3 0 0 0 2.95-2.35l1.92-8.57.73.2a9.56 9.56 0 0 0 3.8.29 32.13 32.13 0 0 0 3.48-.62 24.67 24.67 0 0 1 3.09-.55 5.92 5.92 0 0 1 2.37.17 3.79 3.79 0 0 1 1.46.86 2.23 2.23 0 0 0 3.67-1.18l2.46-11a2.24 2.24 0 0 0 -.47-1.85z" fill="#fff"/><path d="m40.42 15.43-.62 2.78-.67 3-.67 3-.46 2.18a.47.47 0 0 1 -.3.33.47.47 0 0 1 -.44-.09 5.62 5.62 0 0 0 -2.18-1.29 7.91 7.91 0 0 0 -3.1-.23 27.81 27.81 0 0 0 -3.28.59 28.32 28.32 0 0 1 -3.29.58 7.93 7.93 0 0 1 -3.1-.23 5.66 5.66 0 0 1 -2.73-1.86l.67-3 .68-3 .67-3 .67-3a5.71 5.71 0 0 0 2.73 1.81 7.68 7.68 0 0 0 3.09.24 28.35 28.35 0 0 0 3.29-.59 30.42 30.42 0 0 1 3.28-.58 7.91 7.91 0 0 1 3.1.23 5.66 5.66 0 0 1 2.56 1.7.42.42 0 0 1 .1.43z" fill="#1b3035"/><g fill="#6eaa43"><path d="m24.3 17.05c-.22 1-.45 2-.67 3a5.63 5.63 0 0 1 -2.73-1.86l.67-3a5.75 5.75 0 0 0 2.73 1.86z"/><path d="m23 23c0 .21-.09.4-.13.61l-.59 2.39a5.66 5.66 0 0 1 -2.73-1.86l.67-3a5.66 5.66 0 0 0 2.78 1.86z"/><path d="m28.07 14.28c-.22 1-.44 2-.67 3a7.91 7.91 0 0 1 -3.1-.23c.22-1 .45-2 .68-3a7.68 7.68 0 0 0 3.09.23z"/><path d="m29.34 22.7c-.05.2-.09.39-.14.6-.18.8-.36 1.6-.53 2.4a28.32 28.32 0 0 1 -3.29.58l.54-2.4c0-.2.09-.4.14-.6a30.42 30.42 0 0 0 3.28-.58z"/><path d="m34.64 13.11-.67 3a28.35 28.35 0 0 0 -3.29.59c.23-1 .45-2 .68-3a30.42 30.42 0 0 1 3.28-.59z"/><path d="m35.72 22.35c0 .2-.09.4-.13.6l-.54 2.39a7.91 7.91 0 0 0 -3.1-.23c.18-.8.36-1.6.53-2.4.05-.2.09-.4.14-.6a7.73 7.73 0 0 1 3.1.24z"/><path d="m39.13 21.21-.67 3a5.71 5.71 0 0 0 -2.74-1.86c.23-1 .45-2 .67-3a5.64 5.64 0 0 1 2.74 1.86z"/><path d="m40.42 15.43-.62 2.78a5.73 5.73 0 0 0 -2.73-1.86c.22-1 .44-2 .67-3a5.66 5.66 0 0 1 2.58 1.65.42.42 0 0 1 .1.43z"/><path d="m37.07 16.35-.68 3a7.68 7.68 0 0 0 -3.09-.24l.67-3a7.73 7.73 0 0 1 3.1.24z"/><path d="m26.73 20.28-.67 3a7.78 7.78 0 0 1 -3.06-.28c.23-1 .45-2 .68-3a7.72 7.72 0 0 0 3.05.28z"/><path d="m30.68 16.7c-.22 1-.45 2-.67 3a28.18 28.18 0 0 1 -3.28.59l.67-3a30 30 0 0 0 3.28-.59z"/><path d="m33.3 19.11c-.23 1-.46 2-.68 3a28.18 28.18 0 0 0 -3.28.59c.22-1 .45-2 .67-3a30.17 30.17 0 0 1 3.29-.59z"/></g><path d="m22.71 12a1.24 1.24 0 0 1 0 .27l-5.3 23.48a1.24 1.24 0 0 1 -1.48.93 1.23 1.23 0 0 1 -.93-1.47l5.28-23.53a1.23 1.23 0 0 1 1.47-.93 1.23 1.23 0 0 1 .96 1.25z" fill="#af8066"/><path d="m22.71 12a1.24 1.24 0 0 1 0 .27l-5.3 23.48a1.24 1.24 0 0 1 -1.48.93l5.87-25.91a1.23 1.23 0 0 1 .91 1.23z" fill="#805c54"/><path d="m74.85 28.56a4.08 4.08 0 0 0 -1.66-1.12 5.77 5.77 0 0 0 -1.57-.33c-.38 0-.75 0-1.09 0s-.87 0-1.5.07-1.27.13-2 .24a22.63 22.63 0 0 0 -2.26.46 14.45 14.45 0 0 0 -2.25.78 6.53 6.53 0 0 0 -1.52-1.1 6.91 6.91 0 0 0 -3.09-.68 9.26 9.26 0 0 0 -1.87.25 18.72 18.72 0 0 0 -2.18.6 15.64 15.64 0 0 0 -2.15.93 4.52 4.52 0 0 0 -2 1.89 7.21 7.21 0 0 0 -.59-.92 6.56 6.56 0 0 0 -1.84-1.63 5.23 5.23 0 0 0 -2.73-.73 5.29 5.29 0 0 0 -2.86.82 4.65 4.65 0 0 0 -.6.42 4 4 0 0 0 -1.61-1.07 5.85 5.85 0 0 0 -1.57-.33c-.38 0-.75 0-1.1 0s-.86 0-1.49.07-1.28.13-2 .24-1.51.27-2.27.46l-.67.2a4.25 4.25 0 0 0 -.55-.57 4.45 4.45 0 0 0 -2.88-1 6.29 6.29 0 0 0 -3.21.91 9.83 9.83 0 0 0 -2.42 1.95 10.82 10.82 0 0 0 -1.74 2.56 7.14 7.14 0 0 0 -.76 3.1 5.27 5.27 0 0 0 .81 2.78 16.86 16.86 0 0 0 1.19 1.75c.36.46.68.91 1 1.33-.05.07-.11.13-.17.2s-.41.41-.65.62a11 11 0 0 0 -1 1 7.17 7.17 0 0 0 -1 1.23 4.24 4.24 0 0 0 -.55 2.12 3.66 3.66 0 0 0 1.55 3.08 4.47 4.47 0 0 0 2.61.82 5.34 5.34 0 0 0 2.39-.57 8.67 8.67 0 0 0 1.82-1.2 12.29 12.29 0 0 0 2.69-3.29l.06-.11c0 .25 0 .51.08.77a6.68 6.68 0 0 0 .35 1.61 4.7 4.7 0 0 0 1.12 1.64 3.63 3.63 0 0 0 2.55 1 3.55 3.55 0 0 0 2.37-.87 4.33 4.33 0 0 0 .96-1.13 3.34 3.34 0 0 0 2.71 1.31 3.93 3.93 0 0 0 2.91-1.26 6.74 6.74 0 0 0 1.2-1.83 6.29 6.29 0 0 0 .8 1.67 3.91 3.91 0 0 0 5.7.71 3.62 3.62 0 0 0 3 1.57 3.49 3.49 0 0 0 3.07-1.77 5.52 5.52 0 0 0 .42-.8 7.35 7.35 0 0 0 .56.85 3.8 3.8 0 0 0 3.09 1.62 3.59 3.59 0 0 0 3.2-1.7 5.36 5.36 0 0 0 .34-.48 4.46 4.46 0 0 0 .86 1.11 3.63 3.63 0 0 0 2.55 1 3.54 3.54 0 0 0 2.37-.87 4.36 4.36 0 0 0 1.14-1.54 5.5 5.5 0 0 0 .45-1.51 7.3 7.3 0 0 0 .11-1.28c0-.65 0-1.31 0-2s0-1.16 0-1.75c0-1.13 0-2.27.1-3.4 0-.63.08-1.26.14-1.9a10.09 10.09 0 0 0 1.28-.65 6.84 6.84 0 0 0 1.63-1.25 3.82 3.82 0 0 0 1.1-2.66 3.58 3.58 0 0 0 -.88-2.44z" fill="#fff"/><path d="m28.92 30.57a1.34 1.34 0 0 1 -.34.92 2.75 2.75 0 0 1 -.79.64l-.85.54a5.76 5.76 0 0 0 -.81.65 3.24 3.24 0 0 0 -.6.79 2.19 2.19 0 0 0 -.23 1 1.72 1.72 0 0 0 .23.88 4.93 4.93 0 0 0 .57.77c.22.25.46.51.73.78a5.91 5.91 0 0 1 .74.9 5.1 5.1 0 0 1 .56 1.12 4 4 0 0 1 .23 1.44 4.19 4.19 0 0 1 -.24 1.3 8.84 8.84 0 0 1 -.65 1.46 11 11 0 0 1 -1 1.43 10 10 0 0 1 -1.2 1.23 6.46 6.46 0 0 1 -1.27.88 3.11 3.11 0 0 1 -1.34.33 2.15 2.15 0 0 1 -1.27-.39 1.36 1.36 0 0 1 -.55-1.18 2 2 0 0 1 .25-1 5 5 0 0 1 .63-.87 8.77 8.77 0 0 1 .81-.8 10.38 10.38 0 0 0 .82-.79 4.59 4.59 0 0 0 .62-.81 1.77 1.77 0 0 0 .26-.91 2.4 2.4 0 0 0 -.48-1.37c-.31-.47-.66-1-1-1.45a14 14 0 0 1 -1.05-1.54 3 3 0 0 1 -.54-1.52 4.72 4.72 0 0 1 .53-2.09 8.18 8.18 0 0 1 1.35-2 7.9 7.9 0 0 1 1.87-1.51 4.06 4.06 0 0 1 2.05-.6 2.07 2.07 0 0 1 1.38.48 1.67 1.67 0 0 1 .58 1.29z" fill="#6eaa43"/><path d="m39.69 31a1.47 1.47 0 0 1 -.45 1 4.55 4.55 0 0 1 -1.08.83 7.22 7.22 0 0 1 -1.3.59 9.71 9.71 0 0 1 -1.1.32c-.13 1.18-.22 2.36-.29 3.54s-.11 2.35-.11 3.53v1.87s.05 1.22.05 1.84a6.23 6.23 0 0 1 -.08.91 4 4 0 0 1 -.28.93 2.12 2.12 0 0 1 -.54.74 1.26 1.26 0 0 1 -.85.3 1.37 1.37 0 0 1 -1-.34 2.16 2.16 0 0 1 -.55-.82 4.25 4.25 0 0 1 -.27-1 9.19 9.19 0 0 1 -.07-1c0-.92-.05-1.84-.07-2.77s0-1.86 0-2.8c0-.78 0-1.55 0-2.3s0-1.52 0-2.31c-.21 0-.43.06-.65.07s-.45 0-.68 0a5.87 5.87 0 0 1 -.73-.06 4.16 4.16 0 0 1 -.86-.21 2.24 2.24 0 0 1 -.71-.41.88.88 0 0 1 -.3-.68 1.62 1.62 0 0 1 .54-1.21 4.71 4.71 0 0 1 1.38-.9 11.06 11.06 0 0 1 1.87-.64 18.61 18.61 0 0 1 2-.42c.67-.1 1.28-.17 1.84-.22s1-.07 1.3-.07.61 0 .94 0a3.49 3.49 0 0 1 .93.19 1.85 1.85 0 0 1 .73.49 1.28 1.28 0 0 1 .39 1.01z" fill="#1b3035"/><path d="m49.89 43.32a8 8 0 0 1 -.08 1.11 4.63 4.63 0 0 1 -.31 1.23 2.93 2.93 0 0 1 -.62 1 1.38 1.38 0 0 1 -1 .4 1.42 1.42 0 0 1 -1.27-.62 4 4 0 0 1 -.61-1.44 9.52 9.52 0 0 1 -.22-1.76c0-.6 0-1.08-.06-1.43-1.1.18-2.2.34-3.27.48a12.88 12.88 0 0 1 -.2 1.31 7 7 0 0 1 -.46 1.51 4.05 4.05 0 0 1 -.8 1.26 1.6 1.6 0 0 1 -1.21.53 1 1 0 0 1 -.86-.41 2.74 2.74 0 0 1 -.48-.95 5.43 5.43 0 0 1 -.19-1.14c0-.39 0-.72 0-1a16 16 0 0 1 .21-2.59c.14-.85.3-1.7.48-2.54.1-.45.22-1 .37-1.57s.34-1.22.57-1.85a17.1 17.1 0 0 1 .78-1.89 9.4 9.4 0 0 1 1-1.67 5.33 5.33 0 0 1 1.32-1.2 3 3 0 0 1 1.63-.46 2.86 2.86 0 0 1 1.52.39 4 4 0 0 1 1.13 1 6.62 6.62 0 0 1 .74 1.47 16.9 16.9 0 0 1 .54 1.66c.14.56.27 1.11.37 1.64s.18 1 .26 1.43q.3 1.5.51 3a22.61 22.61 0 0 1 .21 3.1zm-4.44-5.59c0-.19 0-.49 0-.91s-.08-.84-.15-1.27a4.54 4.54 0 0 0 -.36-1.13.73.73 0 0 0 -.66-.49.54.54 0 0 0 -.43.31 3.15 3.15 0 0 0 -.37.78 8.81 8.81 0 0 0 -.29 1c-.09.38-.16.75-.22 1.11s-.11.67-.14 1 0 .49-.07.61c.92-.07 1.83-.19 2.72-.34z" fill="#6eaa43"/><path d="m62.63 34.62a5.62 5.62 0 0 1 -.74 2.86 7.94 7.94 0 0 1 -2 2.23 14.26 14.26 0 0 1 .8 1.29 12.81 12.81 0 0 1 1.21 3.19 6.54 6.54 0 0 1 .2 1.51 2.47 2.47 0 0 1 -.36 1.3 1.31 1.31 0 0 1 -1.21.59 1.52 1.52 0 0 1 -1.23-.69 8 8 0 0 1 -.92-1.65c-.27-.64-.51-1.29-.74-2a11.71 11.71 0 0 0 -.64-1.51 7.14 7.14 0 0 0 -.81.31l-.8.33c0 .34 0 .8-.08 1.39a12 12 0 0 1 -.26 1.77 4.9 4.9 0 0 1 -.58 1.51 1.23 1.23 0 0 1 -1.09.65 1.34 1.34 0 0 1 -1.17-.62 4.18 4.18 0 0 1 -.59-1.48 9.85 9.85 0 0 1 -.19-1.73c0-.6 0-1.06 0-1.4 0-.72 0-1.43.05-2.13s0-1.41 0-2.13 0-1.32 0-2 0-1.33 0-2v-.59c0-.24 0-.48 0-.74s.05-.49.08-.72a1.64 1.64 0 0 1 .16-.55 2.33 2.33 0 0 1 1-.92 11.89 11.89 0 0 1 1.8-.78 19 19 0 0 1 1.91-.53 7.35 7.35 0 0 1 1.39-.19 4.54 4.54 0 0 1 2.07.44 4.26 4.26 0 0 1 1.5 1.18 5.18 5.18 0 0 1 .9 1.73 7 7 0 0 1 .34 2.08zm-4.26.32a1.31 1.31 0 0 0 -.28-.91 1.16 1.16 0 0 0 -.9-.31 3.13 3.13 0 0 0 -.93.16 6.18 6.18 0 0 0 -.86.37c.06 1.21.08 2.42.07 3.62a8.13 8.13 0 0 0 1-.42 4.43 4.43 0 0 0 .93-.62 3.25 3.25 0 0 0 .7-.83 2 2 0 0 0 .27-1.06z" fill="#1b3035"/><path d="m73.4 31a1.46 1.46 0 0 1 -.44 1 4.42 4.42 0 0 1 -1.09.83 7.22 7.22 0 0 1 -1.3.59 9.71 9.71 0 0 1 -1.1.32c-.13 1.18-.22 2.36-.29 3.54s-.1 2.35-.1 3.53v1.87s0 1.22 0 1.84a6.23 6.23 0 0 1 -.08.91 4 4 0 0 1 -.28.93 2.12 2.12 0 0 1 -.54.74 1.24 1.24 0 0 1 -.85.3 1.37 1.37 0 0 1 -1-.34 2.16 2.16 0 0 1 -.55-.82 4.25 4.25 0 0 1 -.27-1 9 9 0 0 1 -.06-1c0-.92-.06-1.84-.07-2.77s0-1.86 0-2.8c0-.78 0-1.55 0-2.3s0-1.52 0-2.31c-.22 0-.44.06-.66.07s-.45 0-.68 0a5.73 5.73 0 0 1 -.72-.06 4.25 4.25 0 0 1 -.87-.21 2.36 2.36 0 0 1 -.71-.41.88.88 0 0 1 -.3-.68 1.62 1.62 0 0 1 .54-1.21 4.71 4.71 0 0 1 1.38-.9 11.06 11.06 0 0 1 1.87-.64 19.12 19.12 0 0 1 2-.42c.67-.1 1.28-.17 1.85-.22s1-.07 1.3-.07.6 0 .93 0a3.49 3.49 0 0 1 .93.19 1.85 1.85 0 0 1 .73.49 1.28 1.28 0 0 1 .43 1.01z" fill="#6eaa43"/></svg>