<svg id="Calque_1" data-name="Calque 1" xmlns="http://www.w3.org/2000/svg" viewBox="0 0 69.81 42.51"><defs><style>.cls-1,.cls-3{fill:#fff}.cls-2,.cls-6{fill:none}.cls-2,.cls-3,.cls-6{stroke:#fff;stroke-miterlimit:10}.cls-2,.cls-3{stroke-width:6px}.cls-4{fill:#70ab45}.cls-5{fill:#1b3035}.cls-6{stroke-width:1.1px}</style></defs><path class="cls-1" d="M27.44 29.52l-3.77 8.65c-.05.11 0 .18.13.14l4-1.18a.26.26 0 0 1 .31.14L29.82 41c.05.12.13.12.18 0l3.51-7.68"/><path class="cls-2" d="M27.44 29.52l-3.77 8.65c-.05.11 0 .18.13.14l4-1.18a.26.26 0 0 1 .31.14L29.82 41c.05.12.13.12.18 0l3.51-7.68"/><path class="cls-1" d="M45.14 29.77l3.53 9.44-4.12-1.58a.09.09 0 0 0-.11 0l-2.16 4h-.07L39 33.59"/><path class="cls-2" d="M45.14 29.77l3.53 9.44-4.12-1.58a.09.09 0 0 0-.11 0l-2.16 4h-.07L39 33.59"/><path class="cls-3" d="M52 20.65c-.07 1.53-2.45 2.58-3 3.94s.55 3.76-.38 4.92-3.46.62-4.71 1.44-1.74 3.36-3.2 3.76-3.12-1.53-4.66-1.6-3.43 1.68-4.79 1.17-1.68-3.12-2.84-4-3.73-.63-4.56-1.88.48-3.47.08-4.93-2.65-2.66-2.58-4.2 2.44-2.58 3-3.94-.55-3.76.38-4.92 3.46-.62 4.71-1.45 1.74-3.36 3.19-3.76 3.12 1.5 4.66 1.57 3.43-1.68 4.79-1.17 1.68 3.12 2.83 4 3.74.63 4.57 1.88-.49 3.52-.08 4.97 2.65 2.66 2.59 4.2z"/><path class="cls-3" d="M52 20.65c-.07 1.53-2.45 2.58-3 3.94s.55 3.76-.38 4.92-3.46.62-4.71 1.44-1.74 3.36-3.2 3.76-3.12-1.53-4.66-1.6-3.43 1.68-4.79 1.17-1.68-3.12-2.84-4-3.73-.63-4.56-1.88.48-3.47.08-4.93-2.65-2.66-2.58-4.2 2.44-2.58 3-3.94-.55-3.76.38-4.92 3.46-.62 4.71-1.45 1.74-3.36 3.19-3.76 3.12 1.5 4.66 1.57 3.43-1.68 4.79-1.17 1.68 3.12 2.83 4 3.74.63 4.57 1.88-.49 3.52-.08 4.97 2.65 2.66 2.59 4.2z"/><path class="cls-3" d="M36.64 13.44h.1L38.51 17a.26.26 0 0 0 .16.11l4 .58c.06 0 .07.05 0 .09l-2.88 2.8a.23.23 0 0 0 0 .18l.68 4c0 .06 0 .08-.08.06L36.78 23a.19.19 0 0 0-.18 0L33 24.82s-.09 0-.08-.06l.68-4a.2.2 0 0 0-.06-.18l-2.87-2.8v-.09l4-.58a.22.22 0 0 0 .15-.11z"/><path class="cls-3" d="M36.64 13.44h.1L38.51 17a.26.26 0 0 0 .16.11l4 .58c.06 0 .07.05 0 .09l-2.88 2.8a.23.23 0 0 0 0 .18l.68 4c0 .06 0 .08-.08.06L36.78 23a.19.19 0 0 0-.18 0L33 24.82s-.09 0-.08-.06l.68-4a.2.2 0 0 0-.06-.18l-2.87-2.8v-.09l4-.58a.22.22 0 0 0 .15-.11z"/><circle class="cls-3" cx="36.69" cy="19.94" r="10.18"/><path class="cls-3" d="M36.64 14.23c0-.05.07-.05.09 0l1.78 3.6a.2.2 0 0 0 .15.11l4 .58c.06 0 .07.05 0 .09l-2.88 2.81a.22.22 0 0 0-.06.17l.68 4c0 .06 0 .09-.07.06l-3.56-1.87a.21.21 0 0 0-.19 0L33 25.61s-.09 0-.08-.06l.68-4a.22.22 0 0 0-.06-.17l-2.87-2.81c-.05 0 0-.08 0-.09l4-.58a.17.17 0 0 0 .15-.11z"/><path class="cls-4" d="M27.44 29.23L23.58 38.09 28.06 36.77 29.91 40.94 33.51 33.06"/><path class="cls-4" d="M45.15 29.48L48.7 38.99 44.44 37.35 42.2 41.45 39.01 33.3"/><path class="cls-4" d="M52 20.36c-.07 1.54-2.45 2.58-3 3.94s.55 3.77-.38 4.92-3.46.62-4.71 1.45-1.71 3.33-3.17 3.76-3.12-1.54-4.66-1.61-3.43 1.68-4.79 1.18-1.68-3.11-2.84-4-3.73-.63-4.56-1.88.48-3.47.08-4.93-2.65-2.66-2.58-4.2 2.44-2.58 3-3.94-.55-3.76.38-4.92 3.46-.62 4.71-1.44 1.74-3.36 3.19-3.76 3.13 1.53 4.67 1.6 3.43-1.68 4.79-1.16 1.68 3.11 2.83 4 3.74.63 4.57 1.88-.48 3.47-.08 4.93 2.61 2.65 2.55 4.18z"/><path class="cls-5" d="M36.56 13.31c.07-.14.19-.14.26 0l1.62 3.28a.58.58 0 0 0 .4.3l3.63.53c.15 0 .19.13.07.23l-2.62 2.56a.6.6 0 0 0-.15.48l.62 3.61c0 .15-.07.22-.21.15l-3.24-1.71a.62.62 0 0 0-.5 0l-3.24 1.71c-.14.07-.23 0-.21-.15l.62-3.61a.6.6 0 0 0-.15-.48l-2.62-2.56c-.12-.1-.08-.21.07-.23l3.63-.53a.61.61 0 0 0 .4-.3z"/><circle class="cls-6" cx="36.69" cy="19.65" r="10.18"/></svg>