<svg viewBox="0 0 91.85 56.08" xmlns="http://www.w3.org/2000/svg"><path d="m61.11 37.35-.54-.53-1.37-1.39a3.47 3.47 0 0 0 -.37-4.11l3.66-3a3.72 3.72 0 0 0 1.4-3c0-1.54 0-3.08 0-4.62v-1.7a3.5 3.5 0 0 0 -3.61-3.62h-6.35a3.73 3.73 0 0 0 -3 1.41l-3.4 4.21-.5-.62-2.91-3.57a3.73 3.73 0 0 0 -3-1.4c-2.24 0-4.28 0-6.26 0a3.64 3.64 0 0 0 -3.48 2.24l-.21.5v8.66l.68.77.08.09a4.38 4.38 0 0 0 .69.71l3.6 3a3.4 3.4 0 0 0 -.84 1.77 3.47 3.47 0 0 0 .48 2.35l-.26.27c-.71.71-1.44 1.44-2.16 2.14a6.78 6.78 0 0 0 -2.23 3.74v.16 1.53l.19.66a5.54 5.54 0 0 0 4.05 4l.41.17h1.7l.3-.07a6.17 6.17 0 0 0 3.06-1.67l2.32-2.43.6-.6a3.48 3.48 0 0 0 1.79.52 3.76 3.76 0 0 0 1.91-.56 3.56 3.56 0 0 0 .86.4 3.74 3.74 0 0 0 1 .15 3.47 3.47 0 0 0 1.79-.51l.33.33c.7.7 1.43 1.42 2.12 2.13a6.75 6.75 0 0 0 3.69 2.19h.17 1.77l.39-.19a5.66 5.66 0 0 0 3.91-3.69 5.58 5.58 0 0 0 -1.22-5.54c-.35-.43-.8-.85-1.24-1.28z" fill="#fff"/><path d="m33.28 18.1a1 1 0 0 1 1.06-.62q3.27 0 6.54 0a1.1 1.1 0 0 1 .92.43l4.06 5 .6.74-2.63 3.22-.22-.22q-2.47-2.44-4.93-4.91l-.26-.25a.81.81 0 0 0 -1.07 0 .83.83 0 0 0 -.15 1.09 2.7 2.7 0 0 0 .28.31l5.06 5.06a2.71 2.71 0 0 0 .25.19l-2.6 3.19-1.62-1.33-4.8-3.94a5.07 5.07 0 0 1 -.49-.54z" fill="#6eaa43"/><path d="m33.28 42.49a4.36 4.36 0 0 1 1.52-2.36c1-1 2-2 3.05-3a1.81 1.81 0 0 0 .18-.23l4.35 4.36a.75.75 0 0 1 -.13.15c-1.25 1.18-2.43 2.39-3.63 3.59a3.65 3.65 0 0 1 -1.83 1h-.89-.13a3 3 0 0 1 -2.4-2.25l-.09-.32z" fill="#1b3035"/><path d="m58.28 46a4.33 4.33 0 0 1 -2.28-1.47c-1-1.05-2.06-2.08-3.1-3.11-.06-.07-.14-.12-.19-.17l4.38-4.37 2.05 2.12c.61.61 1.25 1.2 1.82 1.84a3 3 0 0 1 -1.69 5.16h-.09z" fill="#6eaa43"/><path d="m45.19 39.24.94.93a.83.83 0 0 1 .23.89.78.78 0 0 1 -.68.57.86.86 0 0 1 -.77-.29l-2.21-2.21-4.76-4.76a.83.83 0 0 1 .16-1.37.86.86 0 0 1 1 .2c.31.29.61.6.93.92l.97-1.12q6.16-7.53 12.31-15.07a1.1 1.1 0 0 1 .93-.44h6.63a.84.84 0 0 1 1 1q0 3.32 0 6.63a1.06 1.06 0 0 1 -.43.91l-6.51 5.32-9.58 7.84zm-2-2a2.06 2.06 0 0 0 .16-.15l14.27-14.25a1.48 1.48 0 0 0 .26-.3.77.77 0 0 0 0-.84.81.81 0 0 0 -.73-.43 1.05 1.05 0 0 0 -.73.4q-7.09 7.11-14.21 14.2l-.17.19z" fill="#1b3035"/><path d="m51.8 37.24 1.2-1.24-.63-.54 2.23-1.82.39.45.95-1a.84.84 0 0 1 1.45.45.87.87 0 0 1 -.32.79l-2.93 2.93-4 4a.87.87 0 0 1 -.91.26.82.82 0 0 1 -.58-.65.81.81 0 0 1 .27-.78c.3-.31.61-.61.94-.93l-1-.86 2.31-1.89z" fill="#6eaa43"/></svg>