<svg viewBox="0 0 84.1 60.86" xmlns="http://www.w3.org/2000/svg"><path d="M57.51 36.63a2.52 2.52 0 0 0 1.69-1.91 2.62 2.62 0 0 0-.41-2 2.48 2.48 0 0 0-1.62-1l-1.65-.32V31a2.73 2.73 0 0 0 .66-.61 2.51 2.51 0 0 0 .45-2 2.55 2.55 0 0 0-2.23-2l2.82-1.52a2.62 2.62 0 0 0 1.2-1.59 2.53 2.53 0 0 0-.29-1.92 2.6 2.6 0 0 0-2.21-1.29 2.34 2.34 0 0 0-1.22.34l-2.28 1.23.17-.18a2.58 2.58 0 0 0 .57-1 2.65 2.65 0 0 0 .85-.57l1-1.14a2.52 2.52 0 0 0-.01-3.54 3.7 3.7 0 0 0 .59-2 3.78 3.78 0 0 0-7.49-.75 2.54 2.54 0 0 0-3.17 1.41l-1.71 4.2v-5.9a2.55 2.55 0 1 0-5.09 0v4.24l-.78-1.87A2.55 2.55 0 0 0 34 13.1a2.6 2.6 0 0 0-1.42 1.38 2.53 2.53 0 0 0 0 1.93l.55 1.36-1.53-1.85-.13-.14a2.51 2.51 0 0 0-3.37-.24A3.78 3.78 0 1 0 25.44 22a3.12 3.12 0 0 0 .44-.05l-.07.12a2.57 2.57 0 0 0 .92 3.43l.1.06L24 25a2.56 2.56 0 0 0-3 2.07 2.56 2.56 0 0 0 .37 1.84A2.48 2.48 0 0 0 23 30l2.87.57a2.48 2.48 0 0 0-1.14.86 2.36 2.36 0 0 0-.29.48 3.77 3.77 0 0 0-1 7.42 2.84 2.84 0 0 0 .38 1 2.53 2.53 0 0 0 2.16 1.17 2.56 2.56 0 0 0 1.22-.29l1.55-.84a2.44 2.44 0 0 0-.19.44 2.69 2.69 0 0 0-.5.39l-1 1.15a2.42 2.42 0 0 0-.63 1.28 4.06 4.06 0 1 0 6.14 2.75 3.3 3.3 0 0 0 1.29 1.19 2.33 2.33 0 0 0 1.14.33 2.49 2.49 0 0 0 2.37-1.64l.76-1.83v4.14a2.55 2.55 0 1 0 5.09 0v-4.12a2.45 2.45 0 0 0 1.49.5 2.19 2.19 0 0 0 1.2-.33 2.57 2.57 0 0 0 1.18-1.42l2.62 3.2.14.15a2.49 2.49 0 0 0 3.05.45l.28-.14.23-.23a2.56 2.56 0 0 0 .68-2.51 4.32 4.32 0 1 0 3.42-7.52z" fill="#fff"/><path d="M53.07 12.47a.12.12 0 0 0-.11-.1l-.82-.06-.33-.71h-.11a.22.22 0 0 0-.11 0l-.38.71-.76.11a.11.11 0 0 0-.11.11.2.2 0 0 0 0 .16l.49.49-.16.77c0 .05 0 .11.06.11h.16l.71-.38.71.38h.11c.05-.06.05-.06.05-.11l-.11-.77.6-.54a.2.2 0 0 0 .11-.17z" fill="#70ab45"/><path d="M26.6 18l-.66-.38-.11-.76a.11.11 0 0 0-.11-.11.2.2 0 0 0-.16.05l-.55.6-.76-.11c-.06 0-.11 0-.11.06a.1.1 0 0 0 0 .16l.33.6-.38.71V19c0 .06.1.06.1.06l.77-.16.54.54a.21.21 0 0 0 .11.06h.06a.13.13 0 0 0 .11-.11l.11-.77.71-.38v-.11a.22.22 0 0 0 0-.13zm31.82 23.57l-.66-.44v-.82a.21.21 0 0 0-.06-.11h-.16l-.6.49-.77-.22a.18.18 0 0 0-.16.06.1.1 0 0 0 0 .16l.27.71-.43.66a.09.09 0 0 0 0 .16c0 .06.05.06.11.06l.81-.06.5.6c0 .06.05.06.1.06h.06a.13.13 0 0 0 .11-.11l.22-.77.76-.27a.11.11 0 0 0 .11-.11c-.16 0-.16-.05-.21-.05zm-32.86-5.9c0-.05 0-.11-.06-.11l-.65-.43-.06-.82a.18.18 0 0 0-.05-.11h-.16l-.6.49-.77-.16a.2.2 0 0 0-.16 0 .09.09 0 0 0 0 .16l.27.71-.44.66a.1.1 0 0 0 0 .16c0 .06.06.06.11.06l.82-.06.49.6c0 .06.06.06.11.06h.06a.13.13 0 0 0 .11-.11l.21-.77.77-.27z" fill="#1b3035"/><path d="M29.65 47c-.11 0-.11-.05-.16-.05l-.82-.16-.33-.71c0-.06-.05-.06-.11-.06a.21.21 0 0 0-.11.06l-.38.71-.76.11a.11.11 0 0 0-.11.1.23.23 0 0 0 .05.17l.55.54-.16.77s0 .11.05.11a.1.1 0 0 0 .16 0l.71-.38.71.38h.11c.06-.06.06-.06.06-.11l-.11-.75.6-.54a.23.23 0 0 0 .05-.19z" fill="#70ab45"/><path d="M40.57 11.55a.52.52 0 0 0-.55.54v15.34a.55.55 0 0 0 .55.55.51.51 0 0 0 .54-.55V12.09a.51.51 0 0 0-.54-.54z" fill="#1b3035"/><path d="M40.57 35.67a.52.52 0 0 0-.55.55V48.5a.51.51 0 0 0 .55.54.5.5 0 0 0 .54-.54V36.22a.51.51 0 0 0-.54-.55zm-1.31-10.26L37 19a.57.57 0 0 0-.71-.32.54.54 0 0 0-.28.71l2.3 6.38a.51.51 0 0 0 .49.38.2.2 0 0 0 .16-.05.57.57 0 0 0 .3-.69zm-3.06-8.24l-.82-2a.55.55 0 1 0-1 .39l.81 2a.54.54 0 0 0 .5.32.41.41 0 0 0 .21-.05.56.56 0 0 0 .3-.66z" fill="#70ab45"/><path d="M45.1 42.11l-3-8.35a.57.57 0 0 0-.71-.33.58.58 0 0 0-.33.71l3 8.35a.52.52 0 0 0 .49.39.18.18 0 0 0 .16-.06.57.57 0 0 0 .39-.71zm-5.3-13.04L30 17.11a.53.53 0 0 0-.76-.05.52.52 0 0 0-.06.76L39 29.72a.64.64 0 0 0 .43.22.72.72 0 0 0 .33-.11.52.52 0 0 0 .04-.76z" fill="#1b3035"/><path d="M52 44.4L44.33 35a.52.52 0 0 0-.76-.06.53.53 0 0 0 0 .77l7.64 9.33a.67.67 0 0 0 .43.22.86.86 0 0 0 .33-.11.54.54 0 0 0 .03-.75zM35.82 27.27l-7.53-4.53a.57.57 0 0 0-.6 1l7.53 4.53a.52.52 0 0 0 .27.05A.65.65 0 0 0 36 28a.57.57 0 0 0-.18-.73z" fill="#70ab45"/><path d="M54.05 38.4l-12.28-7.31a.55.55 0 1 0-.6.92l12.22 7.32a.56.56 0 0 0 .28.05.66.66 0 0 0 .49-.27.44.44 0 0 0-.11-.71z" fill="#1b3035"/><path d="M35.66 29.29l-12.18-2.41a.55.55 0 0 0-.65.44.54.54 0 0 0 .44.66l12.17 2.4h.11a.53.53 0 0 0 .54-.44.54.54 0 0 0-.43-.65zm21.06 4.31l-10.58-2.08a.54.54 0 0 0-.66.44.57.57 0 0 0 .44.66l10.59 2.07h.11a.52.52 0 0 0 .54-.44.54.54 0 0 0-.44-.65z" fill="#70ab45"/><path d="M51.27 28.69l-7.43 1.09a.53.53 0 0 0-.43.6.57.57 0 0 0 .54.49H44l7.42-1.09a.73.73 0 0 0 .44-.66.54.54 0 0 0-.59-.43zm-12.88 2.45a.56.56 0 0 0-.61-.44L29.05 32a.53.53 0 0 0-.43.6.57.57 0 0 0 .54.49h.06L38 31.74a.55.55 0 0 0 .39-.6zm16.21-2.4a.55.55 0 0 0-.6-.44l-.66.11a.55.55 0 0 0-.44.6.58.58 0 0 0 .55.49v-.05l.66-.11a.55.55 0 0 0 .49-.6zm-26.8 3.98a.54.54 0 0 0-.6-.43l-.66.05a.55.55 0 0 0-.44.6.58.58 0 0 0 .55.49h.05l.66-.11a.54.54 0 0 0 .44-.6z" fill="#1b3035"/><path d="M56.34 22.3a.55.55 0 0 0-.76-.22l-10.21 5.51a.56.56 0 0 0-.22.77.59.59 0 0 0 .49.27.56.56 0 0 0 .28-.05l10.2-5.52a.54.54 0 0 0 .22-.76zM36.53 33.11a.54.54 0 0 0-.76-.22L25.56 38.4a.55.55 0 0 0-.22.76.56.56 0 0 0 .49.28.43.43 0 0 0 .27-.06l10.21-5.51a.55.55 0 0 0 .22-.76z" fill="#70ab45"/><path d="M51 19.24a.52.52 0 0 0-.76.06l-8.9 9.88a.52.52 0 0 0 .06.76.74.74 0 0 0 .38.11.49.49 0 0 0 .38-.16L51.05 20a.54.54 0 0 0-.05-.76zM40.13 31.31a.52.52 0 0 0-.76.05l-8.95 9.82a.53.53 0 0 0 0 .77.49.49 0 0 0 .38.16.5.5 0 0 0 .39-.16l8.89-9.88a.52.52 0 0 0 .05-.76zM30.09 42.55a.5.5 0 0 0-.77 0l-1 1.09a.52.52 0 0 0 .06.76.51.51 0 0 0 .76 0l1-1.09a.52.52 0 0 0-.05-.76z" fill="#1b3035"/><path d="M53.45 16.51a.53.53 0 0 0-.76.06l-1 1a.52.52 0 0 0 .06.76.53.53 0 0 0 .76 0l1-1.09a.53.53 0 0 0-.06-.73zm-6.06-2.23a.54.54 0 0 0-.71.27L43 23.5a.49.49 0 0 0 .28.71.34.34 0 0 0 .22.05.48.48 0 0 0 .49-.32l3.65-9a.54.54 0 0 0-.25-.66zM39.59 34a.54.54 0 0 0-.71.27L34.4 45.06a.54.54 0 0 0 .27.71.37.37 0 0 0 .22 0 .47.47 0 0 0 .49-.32l4.48-10.81a.52.52 0 0 0-.27-.64z" fill="#70ab45"/></svg>