<svg id="Calque_1" data-name="Calque 1" xmlns="http://www.w3.org/2000/svg" viewBox="0 0 91.85 44.11"><defs><style>.cls-1,.cls-2{fill:#fff}.cls-2{stroke:#fff;stroke-miterlimit:10;stroke-width:3.16px}.cls-3{fill:#1b3035}.cls-4{fill:#6eaa43}</style></defs><path class="cls-1" d="M47.54 14.22a.57.57 0 1 1-.56-.57.57.57 0 0 1 .56.57zm-5.65 0a.57.57 0 1 1-.57-.57.57.57 0 0 1 .57.57z"/><path class="cls-2" d="M56.42 25.85a4.53 4.53 0 0 0 .73-2.42 3.92 3.92 0 0 0-1.44-3 3.77 3.77 0 0 0 .3-1.48 4.19 4.19 0 0 0-2.28-3.72 3.38 3.38 0 0 0-2.57-3.7A4.07 4.07 0 0 0 47.54 9a4 4 0 0 0-3.39 2 4 4 0 0 0-3.39-2 4.06 4.06 0 0 0-3.62 2.52 3.38 3.38 0 0 0-2.57 3.7 4.2 4.2 0 0 0-2.29 3.72 3.77 3.77 0 0 0 .3 1.48 3.94 3.94 0 0 0-1.43 3 4.53 4.53 0 0 0 .73 2.42 4 4 0 0 0-.73 2.27 3.91 3.91 0 0 0 1.19 2.8 4.1 4.1 0 0 0 3.9 4.72 4.45 4.45 0 0 0 7.86-.2 4.45 4.45 0 0 0 7.86.2h.05A4.1 4.1 0 0 0 56 31.51a3 3 0 0 0 0-.59 3.91 3.91 0 0 0 1.19-2.8 4 4 0 0 0-.77-2.27zm-12.84-8.33a2.24 2.24 0 0 0-1.13-.3.56.56 0 1 0 0 1.12 1.13 1.13 0 0 1 1.13 1.14v10.74a4.5 4.5 0 0 0-3.39-1.54.57.57 0 0 0 0 1.14 3.39 3.39 0 0 1 3.39 3.39 3.53 3.53 0 0 1-3.39 3.56 3.4 3.4 0 0 1-3.06-2 .58.58 0 0 0-.58-.33h-.12a3 3 0 0 1-2.93-3.64.56.56 0 0 0-.19-.57 2.82 2.82 0 0 1-1-2.16 2.78 2.78 0 0 1 .42-1.45 3.83 3.83 0 0 0 2.41.89.57.57 0 0 0 .56-.57.56.56 0 0 0-.56-.56 3 3 0 0 1-2.83-3A2.81 2.81 0 0 1 33.63 21a.56.56 0 0 0 .19-.76 2.76 2.76 0 0 1-.38-1.38 2.83 2.83 0 1 1 5.66 0 .56.56 0 1 0 1.12 0 4.09 4.09 0 0 0-3.95-4.12 3.64 3.64 0 0 0-.57 0 2.26 2.26 0 0 1 2.26-2.26 2.23 2.23 0 0 1 1.6.66.57.57 0 0 0 .8-.8 3.44 3.44 0 0 0-1.88-1 2.89 2.89 0 0 1 2.31-1.33 3 3 0 0 1 2.82 3zm9.61 10a3.85 3.85 0 0 0 2.41-.89 2.77 2.77 0 0 1 .4 1.49 2.81 2.81 0 0 1-1 2.16.55.55 0 0 0-.19.57 2.8 2.8 0 0 1 .09.66 3 3 0 0 1-3 3h-.12a.58.58 0 0 0-.58.33 3.41 3.41 0 0 1-3.07 2 3.52 3.52 0 0 1-3.38-3.56 3.38 3.38 0 0 1 3.38-3.39.57.57 0 1 0 0-1.14 4.49 4.49 0 0 0-3.38 1.54V19.48a1.13 1.13 0 0 1 1.12-1.14.56.56 0 1 0 0-1.12 2.23 2.23 0 0 0-1.12.3v-4.43a3 3 0 0 1 2.82-3 2.86 2.86 0 0 1 2.3 1.33 3.41 3.41 0 0 0-1.87 1 .57.57 0 0 0 .8.8 2.23 2.23 0 0 1 1.6-.66 2.26 2.26 0 0 1 2.26 2.26 3.64 3.64 0 0 0-.57 0 4.1 4.1 0 0 0-4 4.12.58.58 0 0 0 .57.57.57.57 0 0 0 .56-.57 2.83 2.83 0 1 1 5.66 0 2.76 2.76 0 0 1-.38 1.38.56.56 0 0 0 .19.76A2.81 2.81 0 0 1 56 23.43a3 3 0 0 1-2.82 3 .56.56 0 0 0-.56.56.57.57 0 0 0 .57.57z"/><path class="cls-3" d="M53.19 27.56a.57.57 0 0 1-.56-.57.56.56 0 0 1 .56-.56 3 3 0 0 0 2.82-3 2.81 2.81 0 0 0-1.31-2.38.56.56 0 0 1-.19-.76 2.76 2.76 0 0 0 .38-1.38 2.83 2.83 0 1 0-5.66 0 .57.57 0 0 1-.56.57.58.58 0 0 1-.57-.57 4.1 4.1 0 0 1 4-4.12 3.64 3.64 0 0 1 .57 0 2.26 2.26 0 0 0-2.26-2.26 2.23 2.23 0 0 0-1.6.66.57.57 0 0 1-.8-.8 3.41 3.41 0 0 1 1.87-1 2.86 2.86 0 0 0-2.3-1.33 3 3 0 0 0-2.82 3v4.43a2.23 2.23 0 0 1 1.12-.3.56.56 0 1 1 0 1.12 1.13 1.13 0 0 0-1.12 1.14v10.77a4.49 4.49 0 0 1 3.38-1.54.57.57 0 1 1 0 1.14 3.38 3.38 0 0 0-3.38 3.39 3.52 3.52 0 0 0 3.38 3.56 3.41 3.41 0 0 0 3.07-2 .58.58 0 0 1 .58-.33h.12a3 3 0 0 0 3-3 2.8 2.8 0 0 0-.09-.66.55.55 0 0 1 .19-.57 2.81 2.81 0 0 0 1-2.16 2.77 2.77 0 0 0-.41-1.45 3.85 3.85 0 0 1-2.41.96zM47 13.65a.57.57 0 1 1-.57.57.57.57 0 0 1 .57-.57zm-1 7.41a.57.57 0 0 1 .8 0 2.82 2.82 0 0 0 4.7-2.11.57.57 0 1 1 1.14 0 4 4 0 0 1-3.32 3.9A1.71 1.71 0 0 0 50.93 24a.56.56 0 0 1 .56.56.57.57 0 0 1-.56.57 2.81 2.81 0 0 1-2.77-2.3 4 4 0 0 1-2.13-1 .57.57 0 0 1-.03-.77zm1.55 6.5A.57.57 0 0 1 47 27a.56.56 0 0 1 .56-.56A5.05 5.05 0 0 1 52 29a.55.55 0 0 1-.21.76.56.56 0 0 1-.77-.21 3.93 3.93 0 0 0-3.48-1.99zm4.52 4.52a3 3 0 0 0-2.83 3 .57.57 0 0 1-.56.57.58.58 0 0 1-.57-.57 4.11 4.11 0 0 1 4-4.13.57.57 0 0 1 0 1.14z"/><path class="cls-4" d="M42.45 17.22a2.24 2.24 0 0 1 1.13.3v-4.43a3 3 0 0 0-2.82-3 2.89 2.89 0 0 0-2.31 1.33 3.44 3.44 0 0 1 1.88 1 .57.57 0 0 1-.8.8 2.23 2.23 0 0 0-1.6-.66 2.26 2.26 0 0 0-2.26 2.26 3.64 3.64 0 0 1 .57 0 4.09 4.09 0 0 1 3.95 4.12.56.56 0 1 1-1.12 0 2.83 2.83 0 1 0-5.66 0 2.76 2.76 0 0 0 .38 1.38.56.56 0 0 1-.19.76 2.81 2.81 0 0 0-1.32 2.38 3 3 0 0 0 2.83 3 .56.56 0 0 1 .56.56.57.57 0 0 1-.56.57 3.83 3.83 0 0 1-2.41-.89 2.78 2.78 0 0 0-.42 1.45 2.82 2.82 0 0 0 1 2.16.56.56 0 0 1 .19.57 3 3 0 0 0 2.93 3.64h.12a.58.58 0 0 1 .58.33 3.4 3.4 0 0 0 3.06 2 3.53 3.53 0 0 0 3.39-3.56 3.39 3.39 0 0 0-3.39-3.39.57.57 0 0 1 0-1.14 4.5 4.5 0 0 1 3.39 1.54V19.48a1.13 1.13 0 0 0-1.13-1.14.56.56 0 1 1 0-1.12zm-2.26 17.85a.56.56 0 1 1-1.12 0 3 3 0 0 0-2.83-3 .57.57 0 0 1 0-1.14 4.1 4.1 0 0 1 3.95 4.14zm.57-7.51a3.93 3.93 0 0 0-3.44 2 .56.56 0 0 1-.77.21.55.55 0 0 1-.21-.76 5.05 5.05 0 0 1 4.42-2.58.56.56 0 0 1 .56.56.57.57 0 0 1-.56.57zm1.55-6.5a.56.56 0 0 1-.05.8 3.91 3.91 0 0 1-2.12 1 2.83 2.83 0 0 1-2.77 2.3.57.57 0 0 1-.56-.57.56.56 0 0 1 .56-.56A1.71 1.71 0 0 0 39 22.81a4 4 0 0 1-3.32-3.9.57.57 0 0 1 .57-.57.58.58 0 0 1 .57.57A2.83 2.83 0 0 0 41.51 21a.57.57 0 0 1 .8.06zm-1-6.27a.57.57 0 1 1 .57-.57.57.57 0 0 1-.56.57z"/><path class="cls-1" d="M42.26 21.86a3.91 3.91 0 0 1-2.12 1 2.83 2.83 0 0 1-2.77 2.3.57.57 0 0 1-.56-.57.56.56 0 0 1 .56-.56A1.71 1.71 0 0 0 39 22.81a4 4 0 0 1-3.32-3.9.57.57 0 0 1 .57-.57.58.58 0 0 1 .57.57A2.83 2.83 0 0 0 41.51 21a.57.57 0 0 1 .8 0 .56.56 0 0 1-.05.86zm-2.07 13.21a.56.56 0 1 1-1.12 0 3 3 0 0 0-2.83-3 .57.57 0 0 1 0-1.14 4.1 4.1 0 0 1 3.95 4.14zM41.32 27a.57.57 0 0 1-.56.57 3.93 3.93 0 0 0-3.44 2 .56.56 0 0 1-.77.21.55.55 0 0 1-.21-.76 5.05 5.05 0 0 1 4.42-2.58.56.56 0 0 1 .56.56zm10.17-2.44a.57.57 0 0 1-.56.57 2.81 2.81 0 0 1-2.77-2.3 4 4 0 0 1-2.13-1 .57.57 0 0 1 .76-.84 2.82 2.82 0 0 0 4.7-2.11.57.57 0 1 1 1.14 0 4 4 0 0 1-3.32 3.9A1.71 1.71 0 0 0 50.93 24a.56.56 0 0 1 .56.56zm1.14 6.95a.58.58 0 0 1-.57.57 3 3 0 0 0-2.83 3 .57.57 0 0 1-.56.57.58.58 0 0 1-.57-.57 4.11 4.11 0 0 1 4-4.13.58.58 0 0 1 .53.56zm-.88-1.74a.56.56 0 0 1-.77-.21 3.93 3.93 0 0 0-3.44-2A.57.57 0 0 1 47 27a.56.56 0 0 1 .56-.56A5.05 5.05 0 0 1 52 29a.55.55 0 0 1-.25.77z"/></svg>