<svg viewBox="0 0 75.96 47.58" xmlns="http://www.w3.org/2000/svg"><path d="m42.89 26.82a3.23 3.23 0 0 0 -.83 2.55l1.24 7.24c.14.82-.34 1.17-1.08.78l-6.5-3.39a3.22 3.22 0 0 0 -2.72 0l-6.5 3.41c-.74.39-1.22 0-1.08-.78l1.24-7.24a3.23 3.23 0 0 0 -.83-2.55l-5.22-5.14c-.59-.59-.41-1.16.41-1.28l7.27-1.05a3.23 3.23 0 0 0 2.17-1.58l3.25-6.58c.37-.75 1-.75 1.34 0l3.25 6.58a3.23 3.23 0 0 0 2.16 1.58l7.27 1.05c.83.12 1 .69.42 1.28z" fill="#fff"/><path d="m42.89 26.82a3.23 3.23 0 0 0 -.83 2.55l1.24 7.24c.14.82-.34 1.17-1.08.78l-6.5-3.39a3.22 3.22 0 0 0 -2.72 0l-6.5 3.41c-.74.39-1.22 0-1.08-.78l1.24-7.24a3.23 3.23 0 0 0 -.83-2.55l-5.22-5.14c-.59-.59-.41-1.16.41-1.28l7.27-1.05a3.23 3.23 0 0 0 2.17-1.58l3.25-6.58c.37-.75 1-.75 1.34 0l3.25 6.58a3.23 3.23 0 0 0 2.16 1.58l7.27 1.05c.83.12 1 .69.42 1.28z" fill="none" stroke="#fff" stroke-miterlimit="10" stroke-width="3"/><path d="m47.6 21.01-6.61 6.44-6.61-2.07z" fill="#6eaa43"/><path d="m47.6 21.01-13.22 4.37 4.08-5.7z" fill="#1b3035"/><path d="m40.99 27.45 1.56 9.09-8.17-11.16z" fill="#1b3035"/><path d="m34.38 25.38 8.17 11.16-8.17-4.29z" fill="#6eaa43"/><path d="m34.38 11.4 4.08 8.28-4.08 5.7z" fill="#6eaa43"/><path d="m34.38 25.38v6.87l-8.17 4.29z" fill="#1b3035"/><path d="m34.38 11.4v13.98l-4.09-5.7z" fill="#1b3035"/><path d="m30.29 19.68 4.09 5.7-13.22-4.37z" fill="#6eaa43"/><path d="m34.38 25.38-8.17 11.16 1.56-9.09z" fill="#6eaa43"/><path d="m34.38 25.38-6.61 2.07-6.61-6.44z" fill="#1b3035"/><g fill="none"><path d="m34.38 11.4 4.08 8.28 9.14 1.33-6.61 6.44 1.56 9.09-8.17-4.29-8.17 4.29 1.56-9.09-6.61-6.44 9.13-1.33z"/><path d="m21.16 21.01 13.22 4.37v-13.98"/><path d="m26.21 36.54 8.17-11.16 8.17 11.16"/><path d="m38.46 19.68-4.08 5.7 13.22-4.37"/><path d="m27.77 27.45 6.61-2.07v6.87"/><path d="m30.29 19.68 4.09 5.7 6.61 2.07"/></g></svg>