<svg viewBox="0 0 78.67 46.61" xmlns="http://www.w3.org/2000/svg"><g fill="#fff" stroke="#fff" stroke-miterlimit="10" stroke-width="1.19"><path d="m39.32 15.84a12.23 12.23 0 0 1 -.27 2.4c-.18.88-.4 1.78-.67 2.7s-.56 1.81-.87 2.67-.58 1.65-.82 2.34c-.16.44-.33 1-.52 1.63s-.41 1.33-.66 2.05-.52 1.43-.82 2.15a14.32 14.32 0 0 1 -1 1.92 6.12 6.12 0 0 1 -1.18 1.39 2.12 2.12 0 0 1 -1.39.54 1.73 1.73 0 0 1 -1.21-.57 7 7 0 0 1 -1.11-1.45 18.08 18.08 0 0 1 -1-2q-.46-1.09-.84-2.13c-.24-.7-.45-1.35-.62-1.94s-.3-1.06-.38-1.38c-.39-1.55-.77-3.12-1.13-4.7a21.39 21.39 0 0 1 -.54-4.76c0-.4 0-.81.06-1.24a3.72 3.72 0 0 1 .3-1.18 2.27 2.27 0 0 1 .67-.88 1.89 1.89 0 0 1 1.21-.34 1.53 1.53 0 0 1 1.21.73 7.79 7.79 0 0 1 1 1.9 24.09 24.09 0 0 1 .82 2.59c.25 1 .48 1.9.7 2.82s.43 1.79.63 2.6a13.73 13.73 0 0 0 .6 1.93l.52-1.75c.23-.77.5-1.61.8-2.52s.65-1.86 1-2.82a27.49 27.49 0 0 1 1.19-2.6 9.63 9.63 0 0 1 1.3-1.94 1.86 1.86 0 0 1 1.35-.74 1.38 1.38 0 0 1 .83.24 1.62 1.62 0 0 1 .51.62 3.28 3.28 0 0 1 .25.84 5.31 5.31 0 0 1 .08.88z"/><path d="m31.14 37.8a3.84 3.84 0 0 1 -2.73-1.18 8.82 8.82 0 0 1 -1.41-1.9 19.29 19.29 0 0 1 -1.12-2.23c-.32-.76-.62-1.52-.88-2.25s-.49-1.44-.67-2.08-.31-1.11-.39-1.44c-.4-1.54-.78-3.14-1.15-4.75a23.85 23.85 0 0 1 -.59-5.24c0-.47 0-1 .07-1.44a5.73 5.73 0 0 1 .48-1.86 4.33 4.33 0 0 1 1.25-1.7 4 4 0 0 1 2.56-.82 3.62 3.62 0 0 1 2.95 1.6 9.64 9.64 0 0 1 1.29 2.42 26.29 26.29 0 0 1 .9 2.83l.05.21a1.34 1.34 0 0 0 .07-.18 26.37 26.37 0 0 1 1.27-2.85 11.74 11.74 0 0 1 1.57-2.37 3.92 3.92 0 0 1 3-1.48 3.61 3.61 0 0 1 2.11.65 3.79 3.79 0 0 1 1.23 1.48 5.34 5.34 0 0 1 .42 1.39 7.49 7.49 0 0 1 .11 1.23 14.26 14.26 0 0 1 -.32 2.83c-.19.94-.43 1.91-.71 2.88s-.59 1.89-.91 2.79l-.81 2.32c-.14.39-.3.89-.48 1.49s-.43 1.41-.69 2.15-.56 1.53-.87 2.27a14.33 14.33 0 0 1 -1.15 2.25 8.27 8.27 0 0 1 -1.62 1.9 4.35 4.35 0 0 1 -2.83 1.08zm-4.6-21.8v.73a18.93 18.93 0 0 0 .46 4.27c.35 1.56.73 3.12 1.11 4.64.08.32.2.75.36 1.32s.35 1.16.59 1.8.5 1.34.79 2a14.34 14.34 0 0 0 .85 1.71 6.15 6.15 0 0 0 .56.8 4 4 0 0 0 .6-.76 10.83 10.83 0 0 0 .82-1.6c.28-.67.54-1.35.77-2s.45-1.33.63-1.94.38-1.26.56-1.74c.24-.7.51-1.48.82-2.35s.57-1.68.83-2.55.46-1.7.62-2.52c.08-.39.14-.75.18-1.09l-.12.22a21.78 21.78 0 0 0 -1.06 2.4c-.36.94-.69 1.86-1 2.74s-.56 1.72-.78 2.45l-2.28 7.59-2.33-5.62a15.15 15.15 0 0 1 -.71-2.25c-.2-.81-.41-1.68-.63-2.62s-.45-1.85-.69-2.77a24.68 24.68 0 0 0 -.74-2.36c-.07-.18-.14-.35-.21-.5z"/><path d="m49.53 14.64a1.8 1.8 0 0 1 -.44 1.2 3.8 3.8 0 0 1 -1 .83l-1.1.7a7.16 7.16 0 0 0 -1.05.84 4.26 4.26 0 0 0 -.77 1 2.69 2.69 0 0 0 -.3 1.28 2.21 2.21 0 0 0 .3 1.14 7 7 0 0 0 .73 1c.29.32.61.66 1 1a7.88 7.88 0 0 1 1 1.17 6.7 6.7 0 0 1 .73 1.44 5.41 5.41 0 0 1 .3 1.88 5.68 5.68 0 0 1 -.31 1.69 11.69 11.69 0 0 1 -.85 1.9 14.5 14.5 0 0 1 -1.27 1.85 12.38 12.38 0 0 1 -1.56 1.59 7.72 7.72 0 0 1 -1.71 1.14 4 4 0 0 1 -1.73.43 2.73 2.73 0 0 1 -1.64-.51 1.73 1.73 0 0 1 -.86-1.48 2.53 2.53 0 0 1 .33-1.27 6.41 6.41 0 0 1 .8-1.12 11.62 11.62 0 0 1 1.06-1c.39-.34.74-.68 1.06-1a6.09 6.09 0 0 0 .81-1.06 2.24 2.24 0 0 0 .35-1.28 3.19 3.19 0 0 0 -.62-1.77c-.4-.61-.86-1.24-1.35-1.88a21.24 21.24 0 0 1 -1.36-2 3.9 3.9 0 0 1 -.61-2.06 6.19 6.19 0 0 1 .68-2.7 11.34 11.34 0 0 1 1.76-2.59 10.47 10.47 0 0 1 2.42-1.95 5.27 5.27 0 0 1 2.67-.74 2.7 2.7 0 0 1 1.79.63 2.11 2.11 0 0 1 .74 1.7z"/><path d="m41.38 38.94a4.92 4.92 0 0 1 -2.9-.91 3.91 3.91 0 0 1 -1.64-3.3 4.64 4.64 0 0 1 .61-2.34 8.79 8.79 0 0 1 1.07-1.5 13.37 13.37 0 0 1 1.26-1.23c.33-.29.64-.59.9-.87a3.52 3.52 0 0 0 .52-.68s0-.05 0-.07a1.28 1.28 0 0 0 -.24-.56c-.38-.56-.81-1.16-1.28-1.76a23.63 23.63 0 0 1 -1.5-2.19 6.15 6.15 0 0 1 -.92-3.19 8.38 8.38 0 0 1 .9-3.65 13.33 13.33 0 0 1 2.11-3.11 12.59 12.59 0 0 1 2.94-2.38 7.46 7.46 0 0 1 3.79-1.07 4.92 4.92 0 0 1 3.19 1.14 4.26 4.26 0 0 1 1.52 3.37 3.92 3.92 0 0 1 -1 2.61 5.89 5.89 0 0 1 -1.59 1.3l-1 .64a5.32 5.32 0 0 0 -.73.58 2 2 0 0 0 -.36.48.5.5 0 0 0 0 .27v.05a4.81 4.81 0 0 0 .49.65c.25.29.54.6.85.91a10 10 0 0 1 1.23 1.49 8.76 8.76 0 0 1 1 1.91 7.52 7.52 0 0 1 .4 2.63 7.41 7.41 0 0 1 -.43 2.38 12.6 12.6 0 0 1 -1 2.27 14.29 14.29 0 0 1 -1.51 2.19 14.78 14.78 0 0 1 -1.82 1.88 10.28 10.28 0 0 1 -2.18 1.44 6.21 6.21 0 0 1 -2.68.62zm-.15-4.37h.15a1.79 1.79 0 0 0 .78-.22 5.6 5.6 0 0 0 1.25-.82 11.1 11.1 0 0 0 2.34-2.86 10.49 10.49 0 0 0 .68-1.52 3.14 3.14 0 0 0 .2-1 3.24 3.24 0 0 0 -.16-1.15 5.09 5.09 0 0 0 -.5-1 5.72 5.72 0 0 0 -.69-.84c-.37-.38-.73-.75-1.05-1.12a9 9 0 0 1 -1-1.33 4.32 4.32 0 0 1 -.6-2.24 4.94 4.94 0 0 1 .55-2.3 6 6 0 0 1 1.19-1.58 9.69 9.69 0 0 1 1.36-1.09c.4-.26.79-.51 1.17-.74l.08-.05a1.64 1.64 0 0 0 .29-.2.54.54 0 0 0 -.31-.07 3.13 3.13 0 0 0 -1.57.49 8.14 8.14 0 0 0 -1.9 1.53 9.08 9.08 0 0 0 -1.41 2.08 4.08 4.08 0 0 0 -.46 1.75 1.82 1.82 0 0 0 .29.94c.37.6.78 1.2 1.22 1.78s1 1.35 1.44 2a5.29 5.29 0 0 1 1 3 4.46 4.46 0 0 1 -.64 2.3 9.09 9.09 0 0 1 -1.09 1.44c-.37.38-.78.78-1.22 1.16a11.54 11.54 0 0 0 -.86.85 4.41 4.41 0 0 0 -.53.74z"/></g><path d="m39.32 15.84a12.23 12.23 0 0 1 -.27 2.4c-.18.88-.4 1.78-.67 2.7s-.56 1.81-.87 2.67-.58 1.65-.82 2.34c-.16.44-.33 1-.52 1.63s-.41 1.33-.66 2.05-.52 1.43-.82 2.15a14.32 14.32 0 0 1 -1 1.92 6.12 6.12 0 0 1 -1.18 1.39 2.12 2.12 0 0 1 -1.39.54 1.73 1.73 0 0 1 -1.21-.57 7 7 0 0 1 -1.11-1.45 18.08 18.08 0 0 1 -1-2q-.46-1.09-.84-2.13c-.24-.7-.45-1.35-.62-1.94s-.3-1.06-.38-1.38c-.39-1.55-.77-3.12-1.13-4.7a21.39 21.39 0 0 1 -.54-4.76c0-.4 0-.81.06-1.24a3.72 3.72 0 0 1 .3-1.18 2.27 2.27 0 0 1 .67-.88 1.89 1.89 0 0 1 1.21-.34 1.53 1.53 0 0 1 1.21.73 7.79 7.79 0 0 1 1 1.9 24.09 24.09 0 0 1 .82 2.59c.25 1 .48 1.9.7 2.82s.43 1.79.63 2.6a13.73 13.73 0 0 0 .6 1.93l.52-1.75c.23-.77.5-1.61.8-2.52s.65-1.86 1-2.82a27.49 27.49 0 0 1 1.19-2.6 9.63 9.63 0 0 1 1.3-1.94 1.86 1.86 0 0 1 1.35-.74 1.38 1.38 0 0 1 .83.24 1.62 1.62 0 0 1 .51.62 3.28 3.28 0 0 1 .25.84 5.31 5.31 0 0 1 .08.88z" fill="#6eaa43"/><path d="m49.53 14.64a1.8 1.8 0 0 1 -.44 1.2 3.8 3.8 0 0 1 -1 .83l-1.1.7a7.16 7.16 0 0 0 -1.05.84 4.26 4.26 0 0 0 -.77 1 2.69 2.69 0 0 0 -.3 1.28 2.21 2.21 0 0 0 .3 1.14 7 7 0 0 0 .73 1c.29.32.61.66 1 1a7.88 7.88 0 0 1 1 1.17 6.7 6.7 0 0 1 .73 1.44 5.41 5.41 0 0 1 .3 1.88 5.68 5.68 0 0 1 -.31 1.69 11.69 11.69 0 0 1 -.85 1.9 14.5 14.5 0 0 1 -1.27 1.85 12.38 12.38 0 0 1 -1.56 1.59 7.72 7.72 0 0 1 -1.71 1.14 4 4 0 0 1 -1.73.43 2.73 2.73 0 0 1 -1.64-.51 1.73 1.73 0 0 1 -.86-1.48 2.53 2.53 0 0 1 .33-1.27 6.41 6.41 0 0 1 .8-1.12 11.62 11.62 0 0 1 1.06-1c.39-.34.74-.68 1.06-1a6.09 6.09 0 0 0 .81-1.06 2.24 2.24 0 0 0 .35-1.28 3.19 3.19 0 0 0 -.62-1.77c-.4-.61-.86-1.24-1.35-1.88a21.24 21.24 0 0 1 -1.36-2 3.9 3.9 0 0 1 -.61-2.06 6.19 6.19 0 0 1 .68-2.7 11.34 11.34 0 0 1 1.76-2.59 10.47 10.47 0 0 1 2.42-1.95 5.27 5.27 0 0 1 2.67-.74 2.7 2.7 0 0 1 1.79.63 2.11 2.11 0 0 1 .74 1.7z" fill="#1b3035"/></svg>