<svg xmlns="http://www.w3.org/2000/svg" xmlns:xlink="http://www.w3.org/1999/xlink" viewBox="0 0 86.04 60.49"><defs><style>.cls-1{mask:url(#mask);filter:url(#luminosity-noclip-2);}.cls-2{mix-blend-mode:multiply;fill:url(#linear-gradient);}.cls-3{mask:url(#mask-2);}.cls-4{fill:url(#linear-gradient-2);}.cls-5{filter:url(#luminosity-noclip);}</style><filter id="luminosity-noclip" x="0" y="-8034.22" width="86.04" height="32766" filterUnits="userSpaceOnUse" color-interpolation-filters="sRGB"><feFlood flood-color="#fff" result="bg"/><feBlend in="SourceGraphic" in2="bg"/></filter><mask id="mask" x="0" y="-8034.22" width="86.04" height="32766" maskUnits="userSpaceOnUse"><g class="cls-5"/></mask><linearGradient id="linear-gradient" x1="900.52" y1="30.25" x2="986.56" y2="30.25" gradientTransform="matrix(-1, 0, 0, 1, 986.56, 0)" gradientUnits="userSpaceOnUse"><stop offset="0" stop-color="#fff"/><stop offset="1"/></linearGradient><filter id="luminosity-noclip-2" x="0" y="0" width="86.04" height="60.49" filterUnits="userSpaceOnUse" color-interpolation-filters="sRGB"><feFlood flood-color="#fff" result="bg"/><feBlend in="SourceGraphic" in2="bg"/></filter><mask id="mask-2" x="0" y="0" width="86.04" height="60.49" maskUnits="userSpaceOnUse"><g class="cls-1"><path class="cls-2" d="M.1,7.17c.6,2.57,3.21,3.64,5.47,4.34a67.55,67.55,0,0,0,9.2,2.17c2.9.46,5.81.59,8.71.92a11.77,11.77,0,0,1,3.92,1c1,.52,2.59,1.58,2.21,2.94-.21.77-1,1.27-1.62,1.68a16.68,16.68,0,0,0-2.19,1.51,3.39,3.39,0,0,0-.13,5.08c1.63,1.75,4.26,2.37,6.54,2.7s4.87.35,7.3.59a12.78,12.78,0,0,1,6.81,2.28c1.08.87,1.92,2.1,1.1,3.45a7.11,7.11,0,0,1-3,2.31c-1.91,1-4.07,2.24-4.16,4.63s2,4.07,3.83,5a29.16,29.16,0,0,0,7.64,2.35c2.74.54,5.51.89,8.25,1.38a37.35,37.35,0,0,1,8,2.21c2.12.91,5.42,2.59,5.48,5.24a.77.77,0,0,0,.08,1.27,1.64,1.64,0,0,0,2.28-.83A5.48,5.48,0,0,0,76,55.94a9.17,9.17,0,0,0-1.54-3.67c-.53-.76-.61-1.3.23-1.85a9,9,0,0,1,1.52-.68,3.25,3.25,0,0,0,2.13-2.11,3.55,3.55,0,0,0-1-3.09c-1.7-1.92-4.53-2.56-6.9-3.19a21.17,21.17,0,0,1-3.82-1.28c-1-.5-2.86-1.68-2.38-3.1.36-1.07,1.82-1.34,2.79-1.44a43.7,43.7,0,0,1,4.58-.09,36.36,36.36,0,0,0,9.08-.62c2.17-.52,4.71-1.65,5.24-4.06s-1.19-4.55-3.06-5.83c-4.54-3.11-10.72-2.65-16-3a33.09,33.09,0,0,1-4.22-.52c-1-.21-3.55-.63-2.5-2.17a7.1,7.1,0,0,1,3.44-2.13,18.89,18.89,0,0,1,4.09-.89c2.62-.32,5.31-.28,7.91-.79,2.1-.41,4.3-1.61,4.45-4,.18-2.67-2-4.53-4.2-5.57a37.3,37.3,0,0,0-8.29-2.73A93.25,93.25,0,0,0,49.81,1.55C43.25,1.4,36.69,1.21,30.13.91,26.82.75,23.51.58,20.2.38,17.27.21,14.32-.07,11.37,0A17.82,17.82,0,0,0,3.8,1.69C1.77,2.72-.5,4.61.1,7.17Z"/></g></mask><linearGradient id="linear-gradient-2" x1="900.52" y1="30.25" x2="986.56" y2="30.25" gradientTransform="matrix(-1, 0, 0, 1, 986.56, 0)" gradientUnits="userSpaceOnUse"><stop offset="0" stop-color="#fff"/><stop offset="1" stop-color="#fff"/></linearGradient></defs><title>fumee</title><g id="Calque_2" data-name="Calque 2"><g id="Calque_1-2" data-name="Calque 1"><g class="cls-3"><path class="cls-4" d="M.1,7.17c.6,2.57,3.21,3.64,5.47,4.34a67.55,67.55,0,0,0,9.2,2.17c2.9.46,5.81.59,8.71.92a11.77,11.77,0,0,1,3.92,1c1,.52,2.59,1.58,2.21,2.94-.21.77-1,1.27-1.62,1.68a16.68,16.68,0,0,0-2.19,1.51,3.39,3.39,0,0,0-.13,5.08c1.63,1.75,4.26,2.37,6.54,2.7s4.87.35,7.3.59a12.78,12.78,0,0,1,6.81,2.28c1.08.87,1.92,2.1,1.1,3.45a7.11,7.11,0,0,1-3,2.31c-1.91,1-4.07,2.24-4.16,4.63s2,4.07,3.83,5a29.16,29.16,0,0,0,7.64,2.35c2.74.54,5.51.89,8.25,1.38a37.35,37.35,0,0,1,8,2.21c2.12.91,5.42,2.59,5.48,5.24a.77.77,0,0,0,.08,1.27,1.64,1.64,0,0,0,2.28-.83A5.48,5.48,0,0,0,76,55.94a9.17,9.17,0,0,0-1.54-3.67c-.53-.76-.61-1.3.23-1.85a9,9,0,0,1,1.52-.68,3.25,3.25,0,0,0,2.13-2.11,3.55,3.55,0,0,0-1-3.09c-1.7-1.92-4.53-2.56-6.9-3.19a21.17,21.17,0,0,1-3.82-1.28c-1-.5-2.86-1.68-2.38-3.1.36-1.07,1.82-1.34,2.79-1.44a43.7,43.7,0,0,1,4.58-.09,36.36,36.36,0,0,0,9.08-.62c2.17-.52,4.71-1.65,5.24-4.06s-1.19-4.55-3.06-5.83c-4.54-3.11-10.72-2.65-16-3a33.09,33.09,0,0,1-4.22-.52c-1-.21-3.55-.63-2.5-2.17a7.1,7.1,0,0,1,3.44-2.13,18.89,18.89,0,0,1,4.09-.89c2.62-.32,5.31-.28,7.91-.79,2.1-.41,4.3-1.61,4.45-4,.18-2.67-2-4.53-4.2-5.57a37.3,37.3,0,0,0-8.29-2.73A93.25,93.25,0,0,0,49.81,1.55C43.25,1.4,36.69,1.21,30.13.91,26.82.75,23.51.58,20.2.38,17.27.21,14.32-.07,11.37,0A17.82,17.82,0,0,0,3.8,1.69C1.77,2.72-.5,4.61.1,7.17Z"/></g></g></g></svg>