<svg xmlns="http://www.w3.org/2000/svg" xmlns:xlink="http://www.w3.org/1999/xlink" viewBox="0 0 121.66 116.45"><defs><style>.cls-1{fill:#46ac37;}.cls-2{fill:#f4f0df;}.cls-3{fill:#fff;}.cls-4{fill:#72b84f;}.cls-5{fill:#b4d596;}.cls-6{fill:#699743;}.cls-7{fill:#1c6c65;}.cls-8{fill:#e0e0e1;}.cls-9{fill:#f3f2f2;}.cls-10{fill:none;}.cls-11{fill:#d7d8d8;}.cls-12{fill:#8bb96f;}.cls-13{fill:#f8f8f7;}.cls-14{fill:url(#linear-gradient);}</style><linearGradient id="linear-gradient" x1="49.24" y1="79.52" x2="49.24" y2="67.78" gradientTransform="matrix(-1, 0, 0, 1, 121.66, 0)" gradientUnits="userSpaceOnUse"><stop offset="0" stop-color="#d7d8d8"/><stop offset="0.99" stop-color="#f8f8f7"/></linearGradient></defs><title>illustration_ecolo_3</title><g id="Calque_2" data-name="Calque 2"><g id="Calque_1-2" data-name="Calque 1"><path class="cls-1" d="M108.6,90.72s4.71,9.8-21.75,18.32S0,116.39,0,116.39V94.56Z"/><path class="cls-2" d="M121.66,87.56c0,3.86-54.47,7-121.66,7v-14C67.19,80.56,121.66,83.69,121.66,87.56Z"/><path class="cls-3" d="M117.09,85.52c0,3.72-52.42,6.73-117.09,6.73V78.78C64.67,78.78,117.09,81.8,117.09,85.52Z"/><path class="cls-4" d="M91.48,53.63a2.42,2.42,0,0,1,1-1.94,2.91,2.91,0,0,0,1.18-1.82,1.77,1.77,0,0,0-.9-1.62,11.36,11.36,0,0,0-1.61-.56,1.8,1.8,0,0,1-1.19-1.33,2.49,2.49,0,0,1,.8-2.13,8.54,8.54,0,0,1,1.78-1.06A3.13,3.13,0,0,0,94,41.58a2.83,2.83,0,0,0-.9-3A3.86,3.86,0,0,0,90.39,38c-.74.06-1.66,0-2-.8a2.24,2.24,0,0,1,.23-1.65c.25-.5.59-.93.83-1.43a4.21,4.21,0,0,0-.21-4,2.24,2.24,0,0,0-3.36-.41,4.18,4.18,0,0,0-1,4.22c.29.84.88,1.59.74,2.51a2.59,2.59,0,0,1-1.71,1.82A2.69,2.69,0,0,0,82.19,40a2.67,2.67,0,0,0,1,2.34,3.27,3.27,0,0,1,1.35,2.15A3.33,3.33,0,0,1,83.2,47c-.72.62-1.49,1.13-2.18,1.8a5.58,5.58,0,0,0-1.59,2.56A3.16,3.16,0,0,0,80,54.31a3.87,3.87,0,0,0,1.46.7,1.83,1.83,0,0,1,1.19,1.17,5.44,5.44,0,0,1,0,1.46,3.3,3.3,0,0,0,1,2.41c.7.6,1.32.36,2.11.38a4.27,4.27,0,0,0,2.24-.1,7.76,7.76,0,0,0,1.23-.79l2.3-1.72A2.33,2.33,0,0,0,92.74,56C92.68,55,91.6,54.61,91.48,53.63Z"/><polygon class="cls-4" points="90 55 89.82 54.79 86.63 56.93 87.42 49.9 87 49.85 86.5 53.66 83.93 50.85 83.7 51.01 86.42 54.28 84.25 71.17 85 71.26 86.56 57.55 90 55"/><path class="cls-5" d="M81.59,54.11a8.63,8.63,0,0,0,3.11-7.63c-.32-2.76-2-5.15-1.66-7.91A6.12,6.12,0,0,1,86.4,34c1.48-.85,3.14-1.65,3.95-3.69a8.62,8.62,0,0,0-1-7.48,8.92,8.92,0,0,0-5-3.26A16.51,16.51,0,0,1,79,17.46a8.28,8.28,0,0,1-3.22-6.23c-.08-1.9.47-3.79.29-5.67a6.47,6.47,0,0,0-2.39-4.5A6.14,6.14,0,0,0,69.83,0a8.51,8.51,0,0,0-6.41,2.82,11.55,11.55,0,0,0-2.49,8.89c.38,2.62,1.74,5.1,1.28,7.7a6,6,0,0,1-3.47,4.29c-1.48.78-3.12,1.52-4,3.49a9.13,9.13,0,0,0,.6,7.39,12.24,12.24,0,0,0,4.39,4.35A7,7,0,0,1,62.05,41a4.49,4.49,0,0,1,.45,3.72c-.64,1.6-2.25,1.55-3.15,2.83-1.12,1.62-.56,4.69.7,6.07s2.91,1.52,4.47,1.62c3.15.21,6.3.46,9.44.62a22.34,22.34,0,0,0,3.54-.35,10.1,10.1,0,0,0,2.16-.44C80.21,54.91,81.06,54.11,81.59,54.11Z"/><polygon class="cls-5" points="65.25 45.53 65.56 45.29 70.06 48.58 70.15 39.31 70.81 39.31 70.86 44.35 75.32 41.09 75.64 41.34 70.87 45.17 71.05 67.47 69.88 67.47 70.05 49.4 65.25 45.53"/><path class="cls-6" d="M62.76,55.12a4.44,4.44,0,0,1-.43-1.43,1.72,1.72,0,0,1,1.15-1.34c.57-.24,1.21-.31,1.79-.52a3.82,3.82,0,0,0,.66-6.89,20.22,20.22,0,0,0-2.52-1,2.78,2.78,0,0,1-1.8-1.86,2.8,2.8,0,0,1,1.14-2.42,15.41,15.41,0,0,0,2.12-1.82,3.74,3.74,0,0,0-1.12-5.4,18.93,18.93,0,0,0-2.89-.88c-1-.32-1.93-1-2-2s.86-1.91,1.44-2.81a4.81,4.81,0,0,0-.72-5.9,4.89,4.89,0,0,0-6-.44A4.82,4.82,0,0,0,52,26.13c.38.84,1,1.55,1.44,2.37a3,3,0,0,1,.31,2.65c-.95,2-4.44,1.22-5.66,3.07a3.14,3.14,0,0,0,.5,3.52c.78,1,1.87,1.72,2.7,2.69a3.4,3.4,0,0,1,.84,3.49,6.18,6.18,0,0,1-2,1.9,2.4,2.4,0,0,0-1.11,2.36c.48,1.57,3.2,1.38,3.77,2.92.35.92-.3,1.89-.43,2.86C51.62,59.84,64.4,60.12,62.76,55.12Z"/><polygon class="cls-6" points="54.13 51.79 54.36 51.6 58.06 53.56 57.49 47.06 58.01 47.01 58.39 50.54 61.62 47.92 61.88 48.07 58.45 51.11 60.13 66.73 59.22 66.82 58.11 54.14 54.13 51.79"/><path class="cls-5" d="M67.65,65.26c-1.68-5.12-4.12-9.82-7.43-12.65a15.18,15.18,0,0,0-8.75-3.52,12.57,12.57,0,0,0-8.18,1.7c-3.19,2-5.74,6-7.53,10.44A76.39,76.39,0,0,0,32,75.66,9.17,9.17,0,0,0,31.88,80c.66,2,2.47,2.28,4,2.29q9.72,0,19.42,0,4.81,0,9.61-.12a34.4,34.4,0,0,0,4.87-.08c1.2-.2,1.37-1.21,1.16-2.89A80.85,80.85,0,0,0,67.65,65.26Z"/><path class="cls-6" d="M37.66,81.88a2.9,2.9,0,0,1,1.43-.3,25.14,25.14,0,0,0,17.45-8.39,24.78,24.78,0,0,0,3.63-5.49,25.4,25.4,0,0,0,1.91-5.54c.4-1.84.33-3.69.64-5.53a3.27,3.27,0,0,1,.29-.94,34.9,34.9,0,0,1,4.64,9.57,80.85,80.85,0,0,1,3.27,13.93c.21,1.68,0,2.69-1.16,2.89a34.4,34.4,0,0,1-4.87.08q-4.8.07-9.61.12-9,.07-18,0A1.11,1.11,0,0,1,37.66,81.88Z"/><path class="cls-7" d="M68.4,80.05a.18.18,0,0,1,0,.36A.18.18,0,0,1,68.4,80.05Z"/><path class="cls-7" d="M68,78.16a.35.35,0,0,1,0,.7A.35.35,0,0,1,68,78.16Z"/><path class="cls-7" d="M67.18,79.19a.31.31,0,0,1,0,.62A.31.31,0,0,1,67.18,79.19Z"/><path class="cls-7" d="M65.39,79.77a.4.4,0,0,1,0,.79A.4.4,0,0,1,65.39,79.77Z"/><path class="cls-7" d="M67.81,80.46a.26.26,0,0,1,0,.51A.26.26,0,0,1,67.81,80.46Z"/><path class="cls-7" d="M67.16,78.3a.28.28,0,0,1,0-.56A.28.28,0,0,1,67.16,78.3Z"/><path class="cls-7" d="M67.71,75.87a.25.25,0,0,1,0,.49A.25.25,0,0,1,67.71,75.87Z"/><path class="cls-7" d="M68,75a.27.27,0,0,1,0-.53A.27.27,0,0,1,68,75Z"/><path class="cls-7" d="M66.83,73.65a.3.3,0,0,1,0-.6A.3.3,0,0,1,66.83,73.65Z"/><path class="cls-7" d="M65.87,74.79a.29.29,0,0,1,0,.57A.29.29,0,1,1,65.87,74.79Z"/><path class="cls-7" d="M66.29,77.06a.36.36,0,0,1,0,.72A.36.36,0,0,1,66.29,77.06Z"/><path class="cls-7" d="M63.39,78.17a.33.33,0,0,1,0,.65A.33.33,0,0,1,63.39,78.17Z"/><path class="cls-7" d="M63.94,80a.31.31,0,0,1,0,.61A.31.31,0,0,1,63.94,80Z"/><path class="cls-7" d="M65.08,77.4a.37.37,0,0,1,0,.73A.37.37,0,0,1,65.08,77.4Z"/><path class="cls-7" d="M63.87,76.2a.27.27,0,0,1,0,.54A.27.27,0,0,1,63.87,76.2Z"/><path class="cls-7" d="M61.33,78.24a.29.29,0,0,1,0,.58A.29.29,0,0,1,61.33,78.24Z"/><path class="cls-7" d="M61.25,80a.28.28,0,0,1,0,.55A.28.28,0,0,1,61.25,80Z"/><path class="cls-7" d="M62.68,80a.25.25,0,0,1,0,.49A.25.25,0,0,1,62.68,80Z"/><path class="cls-7" d="M58.31,79.23a.37.37,0,0,1,0,.74A.37.37,0,0,1,58.31,79.23Z"/><path class="cls-7" d="M55.65,80.09a.31.31,0,0,1,0,.62A.31.31,0,0,1,55.65,80.09Z"/><path class="cls-7" d="M53.22,80.65a.22.22,0,0,1,0,.44A.22.22,0,0,1,53.22,80.65Z"/><path class="cls-7" d="M59.87,80.3a.33.33,0,0,1,0,.65A.33.33,0,0,1,59.87,80.3Z"/><path class="cls-7" d="M60,78.3a.29.29,0,0,1,0,.57A.29.29,0,0,1,60,78.3Z"/><path class="cls-7" d="M55.41,79a.2.2,0,0,1,0-.39A.2.2,0,0,1,55.41,79Z"/><path class="cls-7" d="M57.28,80.62a.24.24,0,0,1,0,.48A.24.24,0,0,1,57.28,80.62Z"/><path class="cls-7" d="M61.8,76.51a.28.28,0,0,1,0,.55A.28.28,0,0,1,61.8,76.51Z"/><path class="cls-7" d="M64.34,73.12a.3.3,0,0,1,0,.6A.3.3,0,0,1,64.34,73.12Z"/><path class="cls-7" d="M66.09,72.19a.34.34,0,0,1,0-.68A.34.34,0,0,1,66.09,72.19Z"/><path class="cls-7" d="M65.14,68.92a.33.33,0,0,1,0,.66A.33.33,0,0,1,65.14,68.92Z"/><path class="cls-7" d="M66.33,69.1a.26.26,0,1,1,0-.51A.26.26,0,0,1,66.33,69.1Z"/><path class="cls-7" d="M66.87,71.26a.29.29,0,0,1,0-.58A.29.29,0,0,1,66.87,71.26Z"/><path class="cls-7" d="M64.77,66.7a.19.19,0,0,1,0-.38A.19.19,0,1,1,64.77,66.7Z"/><path class="cls-7" d="M64,65.54a.25.25,0,0,1,0-.5A.25.25,0,0,1,64,65.54Z"/><path class="cls-7" d="M63.5,71.21a.27.27,0,0,1,0-.53A.27.27,0,0,1,63.5,71.21Z"/><path class="cls-7" d="M62.5,73.34a.33.33,0,0,1,0-.66A.33.33,0,0,1,62.5,73.34Z"/><path class="cls-7" d="M59.67,74a.3.3,0,0,1,0,.59A.3.3,0,0,1,59.67,74Z"/><path class="cls-7" d="M59.36,76a.24.24,0,0,1,0,.47A.24.24,0,0,1,59.36,76Z"/><path class="cls-7" d="M62.47,75.31a.32.32,0,0,1,0-.63A.32.32,0,0,1,62.47,75.31Z"/><path class="cls-7" d="M63.88,74.41a.25.25,0,0,1,0,.49A.25.25,0,0,1,63.88,74.41Z"/><path class="cls-7" d="M64.89,75a.28.28,0,0,1,0,.56A.28.28,0,0,1,64.89,75Z"/><path class="cls-7" d="M65.15,76.92a.29.29,0,0,1,0-.57A.29.29,0,0,1,65.15,76.92Z"/><path class="cls-7" d="M66.6,76.51a.33.33,0,0,1,0-.66A.33.33,0,0,1,66.6,76.51Z"/><path class="cls-7" d="M68.74,77.39a.24.24,0,0,1,0,.48A.24.24,0,0,1,68.74,77.39Z"/><path class="cls-7" d="M65.4,79.19a.33.33,0,0,1,0-.65A.33.33,0,0,1,65.4,79.19Z"/><path class="cls-7" d="M68.56,79a.28.28,0,0,1,0,.56A.28.28,0,0,1,68.56,79Z"/><path class="cls-7" d="M66.49,80.58a.34.34,0,0,1,0,.68A.34.34,0,0,1,66.49,80.58Z"/><path class="cls-7" d="M63.8,79.15a.33.33,0,0,1,0,.66A.33.33,0,0,1,63.8,79.15Z"/><path class="cls-7" d="M63.13,77.36a.3.3,0,0,1,0-.59A.3.3,0,0,1,63.13,77.36Z"/><path class="cls-7" d="M62.09,79.25a.27.27,0,0,1,0,.54A.27.27,0,0,1,62.09,79.25Z"/><path class="cls-7" d="M64.42,72.42a.25.25,0,0,1,0-.49A.25.25,0,0,1,64.42,72.42Z"/><path class="cls-7" d="M65.68,73.73a.31.31,0,0,1,0-.62A.31.31,0,0,1,65.68,73.73Z"/><path class="cls-7" d="M67.58,72.16a.14.14,0,0,1,0-.28A.14.14,0,0,1,67.58,72.16Z"/><path class="cls-7" d="M65.23,70.86a.3.3,0,0,1,0-.6A.3.3,0,0,1,65.23,70.86Z"/><path class="cls-7" d="M61.35,74.84a.28.28,0,0,1,0,.56A.28.28,0,0,1,61.35,74.84Z"/><path class="cls-7" d="M60.37,76.45a.34.34,0,0,1,0,.67A.34.34,0,0,1,60.37,76.45Z"/><path class="cls-7" d="M57.21,78.3a.34.34,0,0,1,0-.67A.34.34,0,0,1,57.21,78.3Z"/><path class="cls-7" d="M59.9,79.62a.3.3,0,0,1,0-.6A.3.3,0,0,1,59.9,79.62Z"/><path class="cls-7" d="M56.9,78.76a.39.39,0,0,1,0,.77A.39.39,0,0,1,56.9,78.76Z"/><path class="cls-7" d="M58.87,76.85a.27.27,0,0,1,0,.54A.27.27,0,0,1,58.87,76.85Z"/><path class="cls-7" d="M58.15,80.43a.35.35,0,0,1,0,.7A.35.35,0,0,1,58.15,80.43Z"/><path class="cls-7" d="M54.9,80.6a.34.34,0,0,1,0,.68A.34.34,0,0,1,54.9,80.6Z"/><path class="cls-7" d="M54.36,79.38a.35.35,0,0,1,0,.69A.35.35,0,0,1,54.36,79.38Z"/><path class="cls-5" d="M107.17,69.88c.21-.64-.31-1.27-.81-1.72s-1.08-1-1-1.65a1.61,1.61,0,0,1,1.19-1.27,16.23,16.23,0,0,1,1.83-.3,1.94,1.94,0,0,0,1.48-1,1.75,1.75,0,0,0-.6-1.86A9.26,9.26,0,0,0,107.42,61,2.75,2.75,0,0,1,106,59.52a2.2,2.2,0,0,1,1.37-2.45,5.45,5.45,0,0,1,3.05-.18c.79.12,1.79.2,2.22-.48a1.48,1.48,0,0,0,0-1.4c-.21-.45-.52-.84-.72-1.29a2.93,2.93,0,0,1,.77-3.36,3,3,0,0,1,3.72,0,2.89,2.89,0,0,1,.55,3.64c-.42.66-1.16,1.24-1.13,2s.88,1.33,1.62,1.69,1.6.85,1.66,1.67-.72,1.46-1.45,1.86-1.57.86-1.75,1.67.48,1.69,1.17,2.27,1.47,1.09,2.14,1.72a4.25,4.25,0,0,1,1.39,2.31,2.32,2.32,0,0,1-1,2.39,5.28,5.28,0,0,1-1.68.44,2,2,0,0,0-1.46.86,4.34,4.34,0,0,0-.25,1.22A2.68,2.68,0,0,1,114.81,76c-.85.44-1.49.17-2.36.11a5.88,5.88,0,0,1-2.42-.31,7.57,7.57,0,0,1-1.23-.79l-2.29-1.67c-.55-.41-1.18-1-1-1.66S106.92,70.69,107.17,69.88Z"/><polygon class="cls-5" points="108.6 71.17 108.83 71.02 112.02 73.13 112.08 67.16 112.55 67.16 112.59 70.41 115.76 68.31 115.99 68.46 112.6 70.94 112.73 85.31 111.9 85.31 112.02 73.66 108.6 71.17"/><path class="cls-6" d="M108.54,74a4.41,4.41,0,0,1-.29-1.46,1.71,1.71,0,0,1,1.27-1.22c.6-.19,1.23-.2,1.84-.35a3.83,3.83,0,0,0,1.32-6.79A20.93,20.93,0,0,0,110.27,63a2.78,2.78,0,0,1-1.61-2A2.77,2.77,0,0,1,110,58.66a16.11,16.11,0,0,0,2.28-1.61,3.74,3.74,0,0,0-.59-5.48,18,18,0,0,0-2.79-1.15,2.64,2.64,0,0,1-1.79-2.22c0-1.07,1-1.81,1.7-2.65a4.79,4.79,0,0,0-.14-5.93,4.87,4.87,0,0,0-5.88-1,4.8,4.8,0,0,0-2.13,5.54c.29.87.84,1.64,1.21,2.49a3,3,0,0,1,0,2.67c-1.14,1.89-4.53.8-5.92,2.51a3.13,3.13,0,0,0,.16,3.55c.68,1.07,1.68,1.9,2.41,2.93a3.42,3.42,0,0,1,.51,3.56A6.34,6.34,0,0,1,97,63.56a2.4,2.4,0,0,0-1.33,2.24c.32,1.6,3,1.68,3.47,3.27.25.94-.49,1.84-.71,2.8C97,77.64,109.68,79.14,108.54,74Z"/><polygon class="cls-6" points="100.28 69.87 100.53 69.7 104.02 72.01 104.08 65.49 104.6 65.49 104.64 69.04 108.1 66.74 108.35 66.92 104.64 69.61 104.8 85.31 103.89 85.31 104.01 72.59 100.28 69.87"/><polygon class="cls-3" points="9.12 50.48 9.62 50.48 9.97 79.81 8.78 79.81 9.12 50.48"/><path class="cls-8" d="M9.74,48.36l.72,1.17a.43.43,0,0,1-.37.64H8.66a.42.42,0,0,1-.36-.64L9,48.36A.42.42,0,0,1,9.74,48.36Z"/><path class="cls-3" d="M13.19,51.18,10.6,50l5.92,4.11a.09.09,0,0,0,.11-.15Z"/><path class="cls-9" d="M12.59,52l-2-2,5.92,4.11a.09.09,0,0,1-.1.15Z"/><path class="cls-9" d="M5.57,51.18,8.15,50,2.24,54.13A.09.09,0,0,1,2.13,54Z"/><path class="cls-3" d="M6.17,52l2-2L2.24,54.13c-.1.06,0,.21.1.15Z"/><path class="cls-3" d="M8.85,45.16l.53,2.77V40.76a.09.09,0,0,0-.18,0Z"/><path class="cls-9" d="M9.9,45.16l-.52,2.77V40.76a.09.09,0,0,1,.18,0Z"/><path class="cls-10" d="M9.87,49.52a1.34,1.34,0,0,1-.75-.42,1,1,0,0,1-.24-.52L9,48.36a.42.42,0,0,1,.72,0l.71,1.17A1.62,1.62,0,0,1,9.87,49.52Z"/><path class="cls-11" d="M9.87,49.52a1.62,1.62,0,0,0,.58,0h0a.43.43,0,0,1-.37.64H8.66a.42.42,0,0,1-.36-.64l.58-1a1,1,0,0,0,.24.52A1.34,1.34,0,0,0,9.87,49.52Z"/><polygon class="cls-3" points="14.55 37.94 15.31 37.94 15.85 79.81 14.04 79.81 14.55 37.94"/><path class="cls-8" d="M15.49,34.72l1.08,1.78a.63.63,0,0,1-.54,1H13.85a.64.64,0,0,1-.54-1l1.08-1.78A.65.65,0,0,1,15.49,34.72Z"/><path class="cls-3" d="M20.72,39,16.8,37.24l9.45,6.56a.11.11,0,0,0,.14-.18Z"/><path class="cls-9" d="M19.81,40.29l-3-3,9.45,6.56a.12.12,0,0,1-.13.2Z"/><path class="cls-9" d="M9.16,39l3.92-1.76L3.63,43.8a.11.11,0,1,1-.13-.18Z"/><path class="cls-3" d="M10.07,40.29l3-3L3.63,43.8a.12.12,0,0,0,.13.2Z"/><path class="cls-3" d="M14.15,29.87l.79,4.2V22.62a.12.12,0,0,0-.23,0Z"/><path class="cls-9" d="M15.73,29.87l-.79,4.2V22.62a.12.12,0,0,1,.23,0Z"/><path class="cls-10" d="M15.68,36.49a2,2,0,0,1-1.13-.64,1.55,1.55,0,0,1-.36-.79l.2-.34a.65.65,0,0,1,1.1,0l1.08,1.78A2.66,2.66,0,0,1,15.68,36.49Z"/><path class="cls-11" d="M15.68,36.49a2.66,2.66,0,0,0,.89,0h0a.63.63,0,0,1-.54,1H13.85a.64.64,0,0,1-.54-1l.88-1.44a1.55,1.55,0,0,0,.36.79A2,2,0,0,0,15.68,36.49Z"/><polygon class="cls-3" points="20.66 56.67 21.04 56.67 21.3 79.81 20.41 79.81 20.66 56.67"/><path class="cls-8" d="M21.13,55.09l.53.88a.31.31,0,0,1-.27.47H20.32a.31.31,0,0,1-.26-.47l.53-.88A.32.32,0,0,1,21.13,55.09Z"/><path class="cls-3" d="M23.7,57.2l-1.93-.87,3.74,2.6a.1.1,0,0,0,.12-.16Z"/><path class="cls-9" d="M23.25,57.83l-1.48-1.5,3.74,2.6c.11.07,0,.23-.11.16Z"/><path class="cls-9" d="M18,57.2,20,56.33l-3.74,2.6a.1.1,0,0,1-.12-.16Z"/><path class="cls-3" d="M18.47,57.83,20,56.33l-3.74,2.6a.09.09,0,1,0,.1.16Z"/><path class="cls-3" d="M20.47,52.71l.39,2.06V50.24a.1.1,0,0,0-.2,0Z"/><path class="cls-9" d="M21.25,52.71l-.39,2.06V50.24a.1.1,0,0,1,.2,0Z"/><path class="cls-10" d="M21.22,56a1,1,0,0,1-.55-.31.74.74,0,0,1-.18-.39l.1-.17a.32.32,0,0,1,.54,0l.53.87A1.09,1.09,0,0,1,21.22,56Z"/><path class="cls-11" d="M21.22,56a1.09,1.09,0,0,0,.44,0h0a.31.31,0,0,1-.27.47H20.32a.31.31,0,0,1-.26-.47l.43-.71a.74.74,0,0,0,.18.39A1,1,0,0,0,21.22,56Z"/><path class="cls-5" d="M28.83,75.45a10.23,10.23,0,0,0-2.69-4.57A5.42,5.42,0,0,0,23,69.61a4.52,4.52,0,0,0-2.95.61A7.9,7.9,0,0,0,17.31,74a27.86,27.86,0,0,0-1.38,5.21,3.57,3.57,0,0,0,0,1.59,1.33,1.33,0,0,0,1.44.82q3.51,0,7,0l3.47,0a11.49,11.49,0,0,0,1.76,0c.43-.07.49-.43.42-1A30,30,0,0,0,28.83,75.45Z"/><path class="cls-6" d="M18,81.45a1.06,1.06,0,0,1,.51-.11,9,9,0,0,0,6.3-3,8.61,8.61,0,0,0,1.31-2,8.94,8.94,0,0,0,.69-2c.15-.67.13-1.34.24-2a1.15,1.15,0,0,1,.1-.34,12.51,12.51,0,0,1,1.68,3.46,30,30,0,0,1,1.18,5c.07.61,0,1-.42,1a11.49,11.49,0,0,1-1.76,0l-3.47,0q-3.25,0-6.51,0A.46.46,0,0,1,18,81.45Z"/><path class="cls-7" d="M29.1,80.79c.08,0,.08.13,0,.13S29,80.79,29.1,80.79Z"/><path class="cls-7" d="M29,80.11a.13.13,0,0,1,0,.25A.13.13,0,0,1,29,80.11Z"/><path class="cls-7" d="M28.66,80.48c.14,0,.13.23,0,.22A.11.11,0,1,1,28.66,80.48Z"/><path class="cls-7" d="M28,80.69A.14.14,0,0,1,28,81,.14.14,0,1,1,28,80.69Z"/><path class="cls-7" d="M28.89,80.94a.09.09,0,0,1,0,.18A.09.09,0,0,1,28.89,80.94Z"/><path class="cls-7" d="M28.65,80.16a.1.1,0,0,1,0-.2C28.79,80,28.78,80.16,28.65,80.16Z"/><path class="cls-7" d="M28.85,79.28a.09.09,0,0,1,0,.18A.09.09,0,0,1,28.85,79.28Z"/><path class="cls-7" d="M28.94,79a.1.1,0,0,1,0-.2A.1.1,0,0,1,28.94,79Z"/><path class="cls-7" d="M28.53,78.48a.11.11,0,0,1,0-.22C28.68,78.27,28.67,78.49,28.53,78.48Z"/><path class="cls-7" d="M28.18,78.89a.11.11,0,0,1,0,.21C28,79.09,28.05,78.88,28.18,78.89Z"/><path class="cls-7" d="M28.34,79.71c.16,0,.15.27,0,.26A.13.13,0,0,1,28.34,79.71Z"/><path class="cls-7" d="M27.29,80.11a.12.12,0,0,1,0,.24A.12.12,0,1,1,27.29,80.11Z"/><path class="cls-7" d="M27.49,80.78c.14,0,.13.23,0,.22A.11.11,0,0,1,27.49,80.78Z"/><path class="cls-7" d="M27.9,79.83c.17,0,.16.28,0,.27A.14.14,0,0,1,27.9,79.83Z"/><path class="cls-7" d="M27.46,79.4a.1.1,0,1,1,0,.19C27.33,79.59,27.34,79.39,27.46,79.4Z"/><path class="cls-7" d="M26.54,80.13a.11.11,0,0,1,0,.22A.11.11,0,0,1,26.54,80.13Z"/><path class="cls-7" d="M26.52,80.77a.11.11,0,0,1,0,.21A.11.11,0,0,1,26.52,80.77Z"/><path class="cls-7" d="M27,80.79A.09.09,0,1,1,27,81,.09.09,0,1,1,27,80.79Z"/><path class="cls-7" d="M25.45,80.49a.14.14,0,1,1,0,.27A.14.14,0,0,1,25.45,80.49Z"/><path class="cls-7" d="M24.49,80.8a.12.12,0,0,1,0,.23A.12.12,0,0,1,24.49,80.8Z"/><path class="cls-7" d="M23.62,81c.1,0,.09.16,0,.16S23.51,81,23.62,81Z"/><path class="cls-7" d="M26,80.88a.12.12,0,0,1,0,.24A.12.12,0,0,1,26,80.88Z"/><path class="cls-7" d="M26.05,80.16c.13,0,.12.21,0,.21A.11.11,0,1,1,26.05,80.16Z"/><path class="cls-7" d="M24.4,80.41c-.09,0-.08-.14,0-.14A.07.07,0,1,1,24.4,80.41Z"/><path class="cls-7" d="M25.08,81a.09.09,0,1,1,0,.17A.09.09,0,1,1,25.08,81Z"/><path class="cls-7" d="M26.71,79.51a.1.1,0,1,1,0,.2C26.57,79.71,26.58,79.5,26.71,79.51Z"/><path class="cls-7" d="M27.63,78.29a.11.11,0,0,1,0,.21A.11.11,0,0,1,27.63,78.29Z"/><path class="cls-7" d="M28.26,78a.13.13,0,0,1,0-.25A.13.13,0,0,1,28.26,78Z"/><path class="cls-7" d="M27.92,76.77a.12.12,0,0,1,0,.24C27.76,77,27.77,76.76,27.92,76.77Z"/><path class="cls-7" d="M28.35,76.84c-.12,0-.11-.2,0-.19S28.47,76.84,28.35,76.84Z"/><path class="cls-7" d="M28.55,77.61a.1.1,0,1,1,0-.2A.1.1,0,1,1,28.55,77.61Z"/><path class="cls-7" d="M27.79,76a.07.07,0,0,1,0-.14A.07.07,0,0,1,27.79,76Z"/><path class="cls-7" d="M27.51,75.55c-.11,0-.11-.19,0-.18S27.63,75.55,27.51,75.55Z"/><path class="cls-7" d="M27.33,77.6a.1.1,0,1,1,0-.19C27.46,77.41,27.45,77.6,27.33,77.6Z"/><path class="cls-7" d="M27,78.36a.12.12,0,1,1,0-.23A.12.12,0,0,1,27,78.36Z"/><path class="cls-7" d="M25.94,78.61c.14,0,.13.22,0,.21A.11.11,0,0,1,25.94,78.61Z"/><path class="cls-7" d="M25.83,79.33c.11,0,.1.17,0,.17S25.72,79.32,25.83,79.33Z"/><path class="cls-7" d="M27,79.08a.12.12,0,0,1,0-.23A.12.12,0,0,1,27,79.08Z"/><path class="cls-7" d="M27.47,78.75a.09.09,0,0,1,0,.18A.09.09,0,0,1,27.47,78.75Z"/><path class="cls-7" d="M27.83,79a.1.1,0,0,1,0,.2C27.69,79.18,27.7,79,27.83,79Z"/><path class="cls-7" d="M27.93,79.66c-.14,0-.13-.21,0-.2A.1.1,0,1,1,27.93,79.66Z"/><path class="cls-7" d="M28.45,79.51a.12.12,0,0,1,0-.24C28.61,79.28,28.6,79.52,28.45,79.51Z"/><path class="cls-7" d="M29.22,79.83a.09.09,0,1,1,0,.17C29.1,80,29.11,79.82,29.22,79.83Z"/><path class="cls-7" d="M28,80.48a.12.12,0,0,1,0-.24A.12.12,0,0,1,28,80.48Z"/><path class="cls-7" d="M29.15,80.41a.1.1,0,1,1,0,.2C29,80.6,29,80.4,29.15,80.41Z"/><path class="cls-7" d="M28.41,81a.13.13,0,0,1,0,.25A.13.13,0,0,1,28.41,81Z"/><path class="cls-7" d="M27.44,80.46c.15,0,.14.25,0,.24A.12.12,0,0,1,27.44,80.46Z"/><path class="cls-7" d="M27.2,79.82c-.14,0-.13-.22,0-.21A.11.11,0,0,1,27.2,79.82Z"/><path class="cls-7" d="M26.82,80.5a.1.1,0,0,1,0,.2A.1.1,0,0,1,26.82,80.5Z"/><path class="cls-7" d="M27.66,78a.09.09,0,1,1,0-.17A.09.09,0,1,1,27.66,78Z"/><path class="cls-7" d="M28.12,78.51a.12.12,0,0,1,0-.23A.12.12,0,0,1,28.12,78.51Z"/><path class="cls-7" d="M28.8,77.94a.05.05,0,0,1,0-.1A.05.05,0,1,1,28.8,77.94Z"/><path class="cls-7" d="M28,77.47c-.14,0-.13-.22,0-.22S28.09,77.48,28,77.47Z"/><path class="cls-7" d="M26.55,78.91c.13,0,.12.21,0,.2A.1.1,0,0,1,26.55,78.91Z"/><path class="cls-7" d="M26.2,79.49a.12.12,0,1,1,0,.24A.12.12,0,0,1,26.2,79.49Z"/><path class="cls-7" d="M25.06,80.16a.12.12,0,1,1,0-.24C25.22,79.92,25.21,80.16,25.06,80.16Z"/><path class="cls-7" d="M26,80.64a.11.11,0,0,1,0-.22C26.18,80.42,26.17,80.64,26,80.64Z"/><path class="cls-7" d="M25,80.33c.17,0,.16.28,0,.27A.14.14,0,0,1,25,80.33Z"/><path class="cls-7" d="M25.65,79.64a.1.1,0,0,1,0,.19C25.52,79.82,25.53,79.63,25.65,79.64Z"/><path class="cls-7" d="M25.4,80.93a.13.13,0,0,1,0,.25A.13.13,0,1,1,25.4,80.93Z"/><path class="cls-7" d="M24.22,81a.12.12,0,0,1,0,.24A.12.12,0,0,1,24.22,81Z"/><path class="cls-7" d="M24,80.55c.16,0,.15.25,0,.25A.13.13,0,0,1,24,80.55Z"/><path class="cls-12" d="M25.61,72.24c.14-.44-.21-.86-.55-1.16s-.73-.66-.7-1.11a1.07,1.07,0,0,1,.8-.86,12.13,12.13,0,0,1,1.23-.21,1.3,1.3,0,0,0,1-.67A1.18,1.18,0,0,0,27,67a6.66,6.66,0,0,0-1.21-.72,1.86,1.86,0,0,1-1-1,1.5,1.5,0,0,1,.93-1.66,3.74,3.74,0,0,1,2.05-.13c.54.08,1.21.14,1.5-.32a1,1,0,0,0,0-.95c-.14-.3-.36-.56-.49-.86a2,2,0,0,1,.51-2.27,2,2,0,0,1,2.51,0,2,2,0,0,1,.38,2.46c-.29.45-.79.83-.76,1.36s.59.91,1.09,1.15,1.08.57,1.12,1.12-.48,1-1,1.25-1.06.58-1.18,1.13.32,1.14.79,1.53,1,.74,1.45,1.16a2.92,2.92,0,0,1,.94,1.55A1.56,1.56,0,0,1,34,73.38a3.38,3.38,0,0,1-1.13.3,1.37,1.37,0,0,0-1,.58,2.56,2.56,0,0,0-.17.83,1.84,1.84,0,0,1-1,1.29c-.57.29-1,.11-1.59.08a4,4,0,0,1-1.63-.21,4.5,4.5,0,0,1-.83-.53L25.17,74.6c-.37-.28-.79-.67-.69-1.12S25.44,72.78,25.61,72.24Z"/><polygon class="cls-12" points="26.58 73.11 26.73 73 28.89 74.42 28.92 70.4 29.24 70.4 29.27 72.58 31.4 71.16 31.55 71.27 29.27 72.94 29.39 82.63 28.82 82.63 28.88 74.78 26.58 73.11"/><path class="cls-4" d="M35.46,77.71a1.69,1.69,0,0,1-.11-.62.73.73,0,0,1,.56-.51c.25-.07.52-.07.78-.13a1.7,1.7,0,0,0,1.24-1.24,1.66,1.66,0,0,0-.6-1.64,7.7,7.7,0,0,0-1-.55,1,1,0,0,1-.05-1.84,6.82,6.82,0,0,0,1-.66,1.61,1.61,0,0,0-.19-2.35,9.59,9.59,0,0,0-1.18-.52,1.1,1.1,0,0,1-.74-1c0-.46.46-.76.75-1.12a2,2,0,0,0,0-2.53,2.06,2.06,0,0,0-2.49-.49,2,2,0,0,0-1,2.34A11.57,11.57,0,0,0,32.92,66a1.3,1.3,0,0,1,0,1.14c-.51.79-1.95.29-2.56,1a1.34,1.34,0,0,0,0,1.52c.28.46.7.83,1,1.28a1.44,1.44,0,0,1,.18,1.52,2.66,2.66,0,0,1-.94.7c-.33.21-.66.56-.59.94.12.69,1.28.75,1.45,1.43.1.41-.23.79-.34,1.19C30.5,79.14,35.89,79.92,35.46,77.71Z"/><polygon class="cls-4" points="31.98 75.86 32.09 75.79 33.55 76.81 33.65 74.03 33.87 74.04 33.85 75.55 35.35 74.61 35.45 74.68 33.84 75.8 33.74 82.49 33.35 82.48 33.54 77.06 31.98 75.86"/><path class="cls-5" d="M90.58,74.78a13.41,13.41,0,0,0-3.5-6A7.28,7.28,0,0,0,83,67.14a6,6,0,0,0-3.87.8,10.42,10.42,0,0,0-3.55,4.93,36.2,36.2,0,0,0-1.79,6.81,4.28,4.28,0,0,0,0,2.07,1.72,1.72,0,0,0,1.88,1.08c3.06,0,6.11,0,9.17,0,1.51,0,3,0,4.53-.06a16.06,16.06,0,0,0,2.3,0c.57-.09.64-.57.54-1.36A37.47,37.47,0,0,0,90.58,74.78Z"/><path class="cls-6" d="M105.18,75.35c-1-3-2.43-5.79-4.38-7.46a9,9,0,0,0-5.16-2.08,7.46,7.46,0,0,0-4.83,1C88.93,68,87.43,70.34,86.37,73a46,46,0,0,0-2.24,8.51,5.51,5.51,0,0,0,0,2.58,2.16,2.16,0,0,0,2.35,1.35q5.73,0,11.46,0l5.67-.07a21,21,0,0,0,2.86,0c.71-.11.81-.71.69-1.7A47.15,47.15,0,0,0,105.18,75.35Z"/><rect class="cls-3" x="64.12" y="67.78" width="16.6" height="11.74" transform="translate(144.84 147.3) rotate(-180)"/><polygon class="cls-13" points="80.72 79.52 64.12 79.52 64.12 67.78 80.72 79.52"/><path class="cls-14" d="M64.12,67.78V79.52h16.6v-3.8h0v-.34h0V71.92h0v-.33h0V67.78H64.12Zm6.44.49v3.32h-3V68.27Zm-6,3.65h2.58v3.46H64.61Zm2.91,0h3v3.46h-3Zm6.42,3.46h-3V71.92h3Zm.34-3.46h3v3.46h-3Zm-.34-3.65v3.32h-3V68.27Zm3.37,0v3.32h-3V68.27Zm2.92,3.32H77.65V68.27h2.58Zm0,3.79H77.65V71.92h2.58ZM77.65,79V75.72h2.58V79Zm-3.37,0V75.72h3V79ZM70.9,79V75.72h3V79Zm-3.38,0V75.72h3V79Zm-2.91,0V75.72h2.58V79Zm0-10.77h2.58v3.32H64.61Z"/><path class="cls-11" d="M71.49,83.39h1.86a1.14,1.14,0,0,1,1.14,1.13H70.35A1.14,1.14,0,0,1,71.49,83.39Z"/><rect class="cls-11" x="72.13" y="79.28" width="0.57" height="4.34" transform="translate(144.84 162.9) rotate(-180)"/></g></g></svg>