<svg viewBox="0 0 121.66 116.45" xmlns="http://www.w3.org/2000/svg"><linearGradient id="a" gradientTransform="matrix(-1 0 0 1 121.66 0)" gradientUnits="userSpaceOnUse" x1="49.24" x2="49.24" y1="79.52" y2="67.78"><stop offset="0" stop-color="#d7d8d8"/><stop offset=".99" stop-color="#f8f8f7"/></linearGradient><path d="M108.6 90.72s4.71 9.8-21.75 18.32S0 116.39 0 116.39V94.56z" fill="#46ac37"/><path d="M121.66 87.56c0 3.86-54.47 7-121.66 7v-14c67.19 0 121.66 3.13 121.66 7z" fill="#f4f0df"/><path d="M117.09 85.52c0 3.72-52.42 6.73-117.09 6.73V78.78c64.67 0 117.09 3.02 117.09 6.74z" fill="#fff"/><path d="M91.48 53.63a2.42 2.42 0 0 1 1-1.94 2.91 2.91 0 0 0 1.18-1.82 1.77 1.77 0 0 0-.9-1.62 11.36 11.36 0 0 0-1.61-.56 1.8 1.8 0 0 1-1.19-1.33 2.49 2.49 0 0 1 .8-2.13 8.54 8.54 0 0 1 1.78-1.06A3.13 3.13 0 0 0 94 41.58a2.83 2.83 0 0 0-.9-3 3.86 3.86 0 0 0-2.71-.58c-.74.06-1.66 0-2-.8a2.24 2.24 0 0 1 .23-1.65c.25-.5.59-.93.83-1.43a4.21 4.21 0 0 0-.21-4 2.24 2.24 0 0 0-3.36-.41 4.18 4.18 0 0 0-1 4.22c.29.84.88 1.59.74 2.51a2.59 2.59 0 0 1-1.71 1.82A2.69 2.69 0 0 0 82.19 40a2.67 2.67 0 0 0 1 2.34 3.27 3.27 0 0 1 1.35 2.15A3.33 3.33 0 0 1 83.2 47c-.72.62-1.49 1.13-2.18 1.8a5.58 5.58 0 0 0-1.59 2.56 3.16 3.16 0 0 0 .57 2.95 3.87 3.87 0 0 0 1.46.7 1.83 1.83 0 0 1 1.19 1.17 5.44 5.44 0 0 1 0 1.46 3.3 3.3 0 0 0 1 2.41c.7.6 1.32.36 2.11.38a4.27 4.27 0 0 0 2.24-.1 7.76 7.76 0 0 0 1.23-.79l2.3-1.72A2.33 2.33 0 0 0 92.74 56c-.06-1-1.14-1.39-1.26-2.37z" fill="#72b84f"/><path d="M90 55l-.18-.21-3.19 2.14.79-7.03-.42-.05-.5 3.81-2.57-2.81-.23.16 2.72 3.27-2.17 16.89.75.09 1.56-13.71z" fill="#72b84f"/><path d="M81.59 54.11a8.63 8.63 0 0 0 3.11-7.63c-.32-2.76-2-5.15-1.66-7.91A6.12 6.12 0 0 1 86.4 34c1.48-.85 3.14-1.65 3.95-3.69a8.62 8.62 0 0 0-1-7.48 8.92 8.92 0 0 0-5-3.26A16.51 16.51 0 0 1 79 17.46a8.28 8.28 0 0 1-3.22-6.23c-.08-1.9.47-3.79.29-5.67a6.47 6.47 0 0 0-2.39-4.5A6.14 6.14 0 0 0 69.83 0a8.51 8.51 0 0 0-6.41 2.82 11.55 11.55 0 0 0-2.49 8.89c.38 2.62 1.74 5.1 1.28 7.7a6 6 0 0 1-3.47 4.29c-1.48.78-3.12 1.52-4 3.49a9.13 9.13 0 0 0 .6 7.39 12.24 12.24 0 0 0 4.39 4.35A7 7 0 0 1 62.05 41a4.49 4.49 0 0 1 .45 3.72c-.64 1.6-2.25 1.55-3.15 2.83-1.12 1.62-.56 4.69.7 6.07s2.91 1.52 4.47 1.62c3.15.21 6.3.46 9.44.62a22.34 22.34 0 0 0 3.54-.35 10.1 10.1 0 0 0 2.16-.44c.55-.16 1.4-.96 1.93-.96z" fill="#b4d596"/><path d="M65.25 45.53l.31-.24 4.5 3.29.09-9.27h.66l.05 5.04 4.46-3.26.32.25-4.77 3.83.18 22.3h-1.17l.17-18.07z" fill="#b4d596"/><path d="M62.76 55.12a4.44 4.44 0 0 1-.43-1.43 1.72 1.72 0 0 1 1.15-1.34c.57-.24 1.21-.31 1.79-.52a3.82 3.82 0 0 0 .66-6.89 20.22 20.22 0 0 0-2.52-1 2.78 2.78 0 0 1-1.8-1.86 2.8 2.8 0 0 1 1.14-2.42 15.41 15.41 0 0 0 2.12-1.82 3.74 3.74 0 0 0-1.12-5.4 18.93 18.93 0 0 0-2.89-.88c-1-.32-1.93-1-2-2s.86-1.91 1.44-2.81a4.81 4.81 0 0 0-.72-5.9 4.89 4.89 0 0 0-6-.44A4.82 4.82 0 0 0 52 26.13c.38.84 1 1.55 1.44 2.37a3 3 0 0 1 .31 2.65c-.95 2-4.44 1.22-5.66 3.07a3.14 3.14 0 0 0 .5 3.52c.78 1 1.87 1.72 2.7 2.69a3.4 3.4 0 0 1 .84 3.49 6.18 6.18 0 0 1-2 1.9 2.4 2.4 0 0 0-1.11 2.36c.48 1.57 3.2 1.38 3.77 2.92.35.92-.3 1.89-.43 2.86-.74 5.88 12.04 6.16 10.4 1.16z" fill="#699743"/><path d="M54.13 51.79l.23-.19 3.7 1.96-.57-6.5.52-.05.38 3.53 3.23-2.62.26.15-3.43 3.04 1.68 15.62-.91.09-1.11-12.68z" fill="#699743"/><path d="M67.65 65.26c-1.68-5.12-4.12-9.82-7.43-12.65a15.18 15.18 0 0 0-8.75-3.52 12.57 12.57 0 0 0-8.18 1.7c-3.19 2-5.74 6-7.53 10.44A76.39 76.39 0 0 0 32 75.66a9.17 9.17 0 0 0-.12 4.34c.66 2 2.47 2.28 4 2.29H55.3q4.81 0 9.61-.12a34.4 34.4 0 0 0 4.87-.08c1.2-.2 1.37-1.21 1.16-2.89a80.85 80.85 0 0 0-3.29-13.94z" fill="#b4d596"/><path d="M37.66 81.88a2.9 2.9 0 0 1 1.43-.3 25.14 25.14 0 0 0 17.45-8.39 24.78 24.78 0 0 0 3.63-5.49 25.4 25.4 0 0 0 1.91-5.54c.4-1.84.33-3.69.64-5.53a3.27 3.27 0 0 1 .29-.94 34.9 34.9 0 0 1 4.64 9.57 80.85 80.85 0 0 1 3.27 13.93c.21 1.68 0 2.69-1.16 2.89a34.4 34.4 0 0 1-4.87.08q-4.8.07-9.61.12-9 .07-18 0a1.11 1.11 0 0 1 .38-.4z" fill="#699743"/><path d="M68.4 80.05a.18.18 0 0 1 0 .36.18.18 0 0 1 0-.36zm-.4-1.89a.35.35 0 0 1 0 .7.35.35 0 0 1 0-.7zm-.82 1.03a.31.31 0 0 1 0 .62.31.31 0 0 1 0-.62zm-1.79.58a.4.4 0 0 1 0 .79.4.4 0 0 1 0-.79zm2.42.69a.26.26 0 0 1 0 .51.26.26 0 0 1 0-.51zm-.65-2.16a.28.28 0 0 1 0-.56.28.28 0 0 1 0 .56zm.55-2.43a.25.25 0 0 1 0 .49.25.25 0 0 1 0-.49zM68 75a.27.27 0 0 1 0-.53.27.27 0 0 1 0 .53zm-1.17-1.35a.3.3 0 0 1 0-.6.3.3 0 0 1 0 .6zm-.96 1.14a.29.29 0 0 1 0 .57.29.29 0 1 1 0-.57zm.42 2.27a.36.36 0 0 1 0 .72.36.36 0 0 1 0-.72zm-2.9 1.11a.33.33 0 0 1 0 .65.33.33 0 0 1 0-.65zm.55 1.83a.31.31 0 0 1 0 .61.31.31 0 0 1 0-.61zm1.14-2.6a.37.37 0 0 1 0 .73.37.37 0 0 1 0-.73zm-1.21-1.2a.27.27 0 0 1 0 .54.27.27 0 0 1 0-.54zm-2.54 2.04a.29.29 0 0 1 0 .58.29.29 0 0 1 0-.58zM61.25 80a.28.28 0 0 1 0 .55.28.28 0 0 1 0-.55zm1.43 0a.25.25 0 0 1 0 .49.25.25 0 0 1 0-.49zm-4.37-.77a.37.37 0 0 1 0 .74.37.37 0 0 1 0-.74zm-2.66.86a.31.31 0 0 1 0 .62.31.31 0 0 1 0-.62zm-2.43.56a.22.22 0 0 1 0 .44.22.22 0 0 1 0-.44zm6.65-.35a.33.33 0 0 1 0 .65.33.33 0 0 1 0-.65zm.13-2a.29.29 0 0 1 0 .57.29.29 0 0 1 0-.57zm-4.59.7a.2.2 0 0 1 0-.39.2.2 0 0 1 0 .39zm1.87 1.62a.24.24 0 0 1 0 .48.24.24 0 0 1 0-.48zm4.52-4.11a.28.28 0 0 1 0 .55.28.28 0 0 1 0-.55zm2.54-3.39a.3.3 0 0 1 0 .6.3.3 0 0 1 0-.6zm1.75-.93a.34.34 0 0 1 0-.68.34.34 0 0 1 0 .68zm-.95-3.27a.33.33 0 0 1 0 .66.33.33 0 0 1 0-.66zm1.19.18a.26.26 0 1 1 0-.51.26.26 0 0 1 0 .51zm.54 2.16a.29.29 0 0 1 0-.58.29.29 0 0 1 0 .58zm-2.1-4.56a.19.19 0 0 1 0-.38.19.19 0 1 1 0 .38zM64 65.54a.25.25 0 0 1 0-.5.25.25 0 0 1 0 .5zm-.5 5.67a.27.27 0 0 1 0-.53.27.27 0 0 1 0 .53zm-1 2.13a.33.33 0 0 1 0-.66.33.33 0 0 1 0 .66zm-2.83.66a.3.3 0 0 1 0 .59.3.3 0 0 1 0-.59zm-.31 2a.24.24 0 0 1 0 .47.24.24 0 0 1 0-.47zm3.11-.69a.32.32 0 0 1 0-.63.32.32 0 0 1 0 .63zm1.41-.9a.25.25 0 0 1 0 .49.25.25 0 0 1 0-.49zm1.01.59a.28.28 0 0 1 0 .56.28.28 0 0 1 0-.56zm.26 1.92a.29.29 0 0 1 0-.57.29.29 0 0 1 0 .57zm1.45-.41a.33.33 0 0 1 0-.66.33.33 0 0 1 0 .66zm2.14.88a.24.24 0 0 1 0 .48.24.24 0 0 1 0-.48zm-3.34 1.8a.33.33 0 0 1 0-.65.33.33 0 0 1 0 .65zm3.16-.19a.28.28 0 0 1 0 .56.28.28 0 0 1 0-.56zm-2.07 1.58a.34.34 0 0 1 0 .68.34.34 0 0 1 0-.68zm-2.69-1.43a.33.33 0 0 1 0 .66.33.33 0 0 1 0-.66zm-.67-1.79a.3.3 0 0 1 0-.59.3.3 0 0 1 0 .59zm-1.04 1.89a.27.27 0 0 1 0 .54.27.27 0 0 1 0-.54zm2.33-6.83a.25.25 0 0 1 0-.49.25.25 0 0 1 0 .49zm1.26 1.31a.31.31 0 0 1 0-.62.31.31 0 0 1 0 .62zm1.9-1.57a.14.14 0 0 1 0-.28.14.14 0 0 1 0 .28zm-2.35-1.3a.3.3 0 0 1 0-.6.3.3 0 0 1 0 .6zm-3.88 3.98a.28.28 0 0 1 0 .56.28.28 0 0 1 0-.56zm-.98 1.61a.34.34 0 0 1 0 .67.34.34 0 0 1 0-.67zm-3.16 1.85a.34.34 0 0 1 0-.67.34.34 0 0 1 0 .67zm2.69 1.32a.3.3 0 0 1 0-.6.3.3 0 0 1 0 .6zm-3-.86a.39.39 0 0 1 0 .77.39.39 0 0 1 0-.77zm1.97-1.91a.27.27 0 0 1 0 .54.27.27 0 0 1 0-.54zm-.72 3.58a.35.35 0 0 1 0 .7.35.35 0 0 1 0-.7zm-3.25.17a.34.34 0 0 1 0 .68.34.34 0 0 1 0-.68zm-.54-1.22a.35.35 0 0 1 0 .69.35.35 0 0 1 0-.69z" fill="#1c6c65"/><path d="M107.17 69.88c.21-.64-.31-1.27-.81-1.72s-1.08-1-1-1.65a1.61 1.61 0 0 1 1.19-1.27 16.23 16.23 0 0 1 1.83-.3 1.94 1.94 0 0 0 1.48-1 1.75 1.75 0 0 0-.6-1.86 9.26 9.26 0 0 0-1.84-1.08 2.75 2.75 0 0 1-1.42-1.48 2.2 2.2 0 0 1 1.37-2.45 5.45 5.45 0 0 1 3.05-.18c.79.12 1.79.2 2.22-.48a1.48 1.48 0 0 0 0-1.4c-.21-.45-.52-.84-.72-1.29a2.93 2.93 0 0 1 .77-3.36 3 3 0 0 1 3.72 0 2.89 2.89 0 0 1 .55 3.64c-.42.66-1.16 1.24-1.13 2s.88 1.33 1.62 1.69 1.6.85 1.66 1.67-.72 1.46-1.45 1.86-1.57.86-1.75 1.67.48 1.69 1.17 2.27 1.47 1.09 2.14 1.72a4.25 4.25 0 0 1 1.39 2.31 2.32 2.32 0 0 1-1 2.39 5.28 5.28 0 0 1-1.68.44 2 2 0 0 0-1.46.86 4.34 4.34 0 0 0-.25 1.22 2.68 2.68 0 0 1-1.41 1.9c-.85.44-1.49.17-2.36.11a5.88 5.88 0 0 1-2.42-.31 7.57 7.57 0 0 1-1.23-.79l-2.29-1.67c-.55-.41-1.18-1-1-1.66s1.41-.99 1.66-1.8z" fill="#b4d596"/><path d="M108.6 71.17l.23-.15 3.19 2.11.06-5.97h.47l.04 3.25 3.17-2.1.23.15-3.39 2.48.13 14.37h-.83l.12-11.65z" fill="#b4d596"/><path d="M108.54 74a4.41 4.41 0 0 1-.29-1.46 1.71 1.71 0 0 1 1.27-1.22c.6-.19 1.23-.2 1.84-.35a3.83 3.83 0 0 0 1.32-6.79 20.93 20.93 0 0 0-2.41-1.18 2.78 2.78 0 0 1-1.61-2 2.77 2.77 0 0 1 1.34-2.34 16.11 16.11 0 0 0 2.28-1.61 3.74 3.74 0 0 0-.59-5.48 18 18 0 0 0-2.79-1.15 2.64 2.64 0 0 1-1.79-2.22c0-1.07 1-1.81 1.7-2.65a4.79 4.79 0 0 0-.14-5.93 4.87 4.87 0 0 0-5.88-1 4.8 4.8 0 0 0-2.13 5.54c.29.87.84 1.64 1.21 2.49a3 3 0 0 1 0 2.67c-1.14 1.89-4.53.8-5.92 2.51a3.13 3.13 0 0 0 .16 3.55c.68 1.07 1.68 1.9 2.41 2.93a3.42 3.42 0 0 1 .51 3.56A6.34 6.34 0 0 1 97 63.56a2.4 2.4 0 0 0-1.33 2.24c.32 1.6 3 1.68 3.47 3.27.25.94-.49 1.84-.71 2.8-1.43 5.77 11.25 7.27 10.11 2.13z" fill="#699743"/><path d="M100.28 69.87l.25-.17 3.49 2.31.06-6.52h.52l.04 3.55 3.46-2.3.25.18-3.71 2.69.16 15.7h-.91l.12-12.72z" fill="#699743"/><path d="M9.12 50.48h.5l.35 29.33H8.78z" fill="#fff"/><path d="M9.74 48.36l.72 1.17a.43.43 0 0 1-.37.64H8.66a.42.42 0 0 1-.36-.64l.7-1.17a.42.42 0 0 1 .74 0z" fill="#e0e0e1"/><path d="M13.19 51.18L10.6 50l5.92 4.11a.09.09 0 0 0 .11-.15z" fill="#fff"/><path d="M12.59 52l-2-2 5.92 4.11a.09.09 0 0 1-.1.15zm-7.02-.82L8.15 50l-5.91 4.13a.09.09 0 0 1-.11-.13z" fill="#f3f2f2"/><path d="M6.17 52l2-2-5.93 4.13c-.1.06 0 .21.1.15zm2.68-6.84l.53 2.77v-7.17a.09.09 0 0 0-.18 0z" fill="#fff"/><path d="M9.9 45.16l-.52 2.77v-7.17a.09.09 0 0 1 .18 0z" fill="#f3f2f2"/><path d="M9.87 49.52a1.34 1.34 0 0 1-.75-.42 1 1 0 0 1-.24-.52l.12-.22a.42.42 0 0 1 .72 0l.71 1.17a1.62 1.62 0 0 1-.56-.01z" fill="none"/><path d="M9.87 49.52a1.62 1.62 0 0 0 .58 0 .43.43 0 0 1-.37.64H8.66a.42.42 0 0 1-.36-.64l.58-1a1 1 0 0 0 .24.52 1.34 1.34 0 0 0 .75.48z" fill="#d7d8d8"/><path d="M14.55 37.94h.76l.54 41.87h-1.81z" fill="#fff"/><path d="M15.49 34.72l1.08 1.78a.63.63 0 0 1-.54 1h-2.18a.64.64 0 0 1-.54-1l1.08-1.78a.65.65 0 0 1 1.1 0z" fill="#e0e0e1"/><path d="M20.72 39l-3.92-1.76 9.45 6.56a.11.11 0 0 0 .14-.18z" fill="#fff"/><path d="M19.81 40.29l-3-3 9.45 6.56a.12.12 0 0 1-.13.2zM9.16 39l3.92-1.76-9.45 6.56a.11.11 0 1 1-.13-.18z" fill="#f3f2f2"/><path d="M10.07 40.29l3-3-9.44 6.51a.12.12 0 0 0 .13.2zm4.08-10.42l.79 4.2V22.62a.12.12 0 0 0-.23 0z" fill="#fff"/><path d="M15.73 29.87l-.79 4.2V22.62a.12.12 0 0 1 .23 0z" fill="#f3f2f2"/><path d="M15.68 36.49a2 2 0 0 1-1.13-.64 1.55 1.55 0 0 1-.36-.79l.2-.34a.65.65 0 0 1 1.1 0l1.08 1.78a2.66 2.66 0 0 1-.89-.01z" fill="none"/><path d="M15.68 36.49a2.66 2.66 0 0 0 .89 0 .63.63 0 0 1-.54 1h-2.18a.64.64 0 0 1-.54-1l.88-1.44a1.55 1.55 0 0 0 .36.79 2 2 0 0 0 1.13.65z" fill="#d7d8d8"/><path d="M20.66 56.67h.38l.26 23.14h-.89z" fill="#fff"/><path d="M21.13 55.09l.53.88a.31.31 0 0 1-.27.47h-1.07a.31.31 0 0 1-.26-.47l.53-.88a.32.32 0 0 1 .54 0z" fill="#e0e0e1"/><path d="M23.7 57.2l-1.93-.87 3.74 2.6a.1.1 0 0 0 .12-.16z" fill="#fff"/><path d="M23.25 57.83l-1.48-1.5 3.74 2.6c.11.07 0 .23-.11.16zM18 57.2l2-.87-3.74 2.6a.1.1 0 0 1-.12-.16z" fill="#f3f2f2"/><path d="M18.47 57.83l1.53-1.5-3.74 2.6a.09.09 0 1 0 .1.16zm2-5.12l.39 2.06v-4.53a.1.1 0 0 0-.2 0z" fill="#fff"/><path d="M21.25 52.71l-.39 2.06v-4.53a.1.1 0 0 1 .2 0z" fill="#f3f2f2"/><path d="M21.22 56a1 1 0 0 1-.55-.31.74.74 0 0 1-.18-.39l.1-.17a.32.32 0 0 1 .54 0l.53.87a1.09 1.09 0 0 1-.44 0z" fill="none"/><path d="M21.22 56a1.09 1.09 0 0 0 .44 0 .31.31 0 0 1-.27.47h-1.07a.31.31 0 0 1-.26-.47l.43-.71a.74.74 0 0 0 .18.39 1 1 0 0 0 .55.32z" fill="#d7d8d8"/><path d="M28.83 75.45a10.23 10.23 0 0 0-2.69-4.57A5.42 5.42 0 0 0 23 69.61a4.52 4.52 0 0 0-2.95.61A7.9 7.9 0 0 0 17.31 74a27.86 27.86 0 0 0-1.38 5.21 3.57 3.57 0 0 0 0 1.59 1.33 1.33 0 0 0 1.44.82h10.47a11.49 11.49 0 0 0 1.76 0c.43-.07.49-.43.42-1a30 30 0 0 0-1.19-5.17z" fill="#b4d596"/><path d="M18 81.45a1.06 1.06 0 0 1 .51-.11 9 9 0 0 0 6.3-3 8.61 8.61 0 0 0 1.31-2 8.94 8.94 0 0 0 .69-2c.15-.67.13-1.34.24-2a1.15 1.15 0 0 1 .1-.34 12.51 12.51 0 0 1 1.68 3.46 30 30 0 0 1 1.18 5c.07.61 0 1-.42 1a11.49 11.49 0 0 1-1.76 0h-9.98a.46.46 0 0 1 .15-.01z" fill="#699743"/><path d="M29.1 80.79c.08 0 .08.13 0 .13s-.1-.13 0-.13zm-.1-.68a.13.13 0 0 1 0 .25.13.13 0 0 1 0-.25zm-.34.37c.14 0 .13.23 0 .22a.11.11 0 1 1 0-.22zm-.66.21a.14.14 0 0 1 0 .31.14.14 0 1 1 0-.31zm.89.25a.09.09 0 0 1 0 .18.09.09 0 0 1 0-.18zm-.24-.78a.1.1 0 0 1 0-.2c.14.04.13.2 0 .2zm.2-.88a.09.09 0 0 1 0 .18.09.09 0 0 1 0-.18zm.09-.28a.1.1 0 0 1 0-.2.1.1 0 0 1 0 .2zm-.41-.52a.11.11 0 0 1 0-.22c.15.01.14.23 0 .22zm-.35.41a.11.11 0 0 1 0 .21c-.18-.01-.13-.22 0-.21zm.16.82c.16 0 .15.27 0 .26a.13.13 0 0 1 0-.26zm-1.05.4a.12.12 0 0 1 0 .24.12.12 0 1 1 0-.24zm.2.67c.14 0 .13.23 0 .22a.11.11 0 0 1 0-.22zm.41-.95c.17 0 .16.28 0 .27a.14.14 0 0 1 0-.27zm-.44-.43a.1.1 0 1 1 0 .19c-.13 0-.12-.2 0-.19zm-.92.73a.11.11 0 0 1 0 .22.11.11 0 0 1 0-.22zm-.02.64a.11.11 0 0 1 0 .21.11.11 0 0 1 0-.21zm.48.02a.09.09 0 1 1 0 .21.09.09 0 1 1 0-.21zm-1.55-.3a.14.14 0 1 1 0 .27.14.14 0 0 1 0-.27zm-.96.31a.12.12 0 0 1 0 .23.12.12 0 0 1 0-.23zm-.87.2c.1 0 .09.16 0 .16s-.11-.16 0-.16zm2.38-.12a.12.12 0 0 1 0 .24.12.12 0 0 1 0-.24zm.05-.72c.13 0 .12.21 0 .21a.11.11 0 1 1 0-.21zm-1.65.25c-.09 0-.08-.14 0-.14a.07.07 0 1 1 0 .14zm.68.59a.09.09 0 1 1 0 .17.09.09 0 1 1 0-.17zm1.63-1.49a.1.1 0 1 1 0 .2c-.14 0-.13-.21 0-.2zm.92-1.22a.11.11 0 0 1 0 .21.11.11 0 0 1 0-.21zm.63-.29a.13.13 0 0 1 0-.25.13.13 0 0 1 0 .25zm-.34-1.23a.12.12 0 0 1 0 .24c-.16-.01-.15-.25 0-.24zm.43.07c-.12 0-.11-.2 0-.19s.12.19 0 .19zm.2.77a.1.1 0 1 1 0-.2.1.1 0 1 1 0 .2zM27.79 76a.07.07 0 0 1 0-.14.07.07 0 0 1 0 .14zm-.28-.45c-.11 0-.11-.19 0-.18s.12.18 0 .18zm-.18 2.05a.1.1 0 1 1 0-.19c.13 0 .12.19 0 .19zm-.33.76a.12.12 0 1 1 0-.23.12.12 0 0 1 0 .23zm-1.06.25c.14 0 .13.22 0 .21a.11.11 0 0 1 0-.21zm-.11.72c.11 0 .1.17 0 .17s-.11-.18 0-.17zm1.17-.25a.12.12 0 0 1 0-.23.12.12 0 0 1 0 .23zm.47-.33a.09.09 0 0 1 0 .18.09.09 0 0 1 0-.18zm.36.25a.1.1 0 0 1 0 .2c-.14-.02-.13-.2 0-.2zm.1.66c-.14 0-.13-.21 0-.2a.1.1 0 1 1 0 .2zm.52-.15a.12.12 0 0 1 0-.24c.16.01.15.25 0 .24zm.77.32a.09.09 0 1 1 0 .17c-.12 0-.11-.18 0-.17zm-1.22.65a.12.12 0 0 1 0-.24.12.12 0 0 1 0 .24zm1.15-.07a.1.1 0 1 1 0 .2c-.15-.01-.15-.21 0-.2zm-.74.59a.13.13 0 0 1 0 .25.13.13 0 0 1 0-.25zm-.97-.54c.15 0 .14.25 0 .24a.12.12 0 0 1 0-.24zm-.24-.64c-.14 0-.13-.22 0-.21a.11.11 0 0 1 0 .21zm-.38.68a.1.1 0 0 1 0 .2.1.1 0 0 1 0-.2zm.84-2.5a.09.09 0 1 1 0-.17.09.09 0 1 1 0 .17zm.46.51a.12.12 0 0 1 0-.23.12.12 0 0 1 0 .23zm.68-.57a.05.05 0 0 1 0-.1.05.05 0 1 1 0 .1zm-.8-.47c-.14 0-.13-.22 0-.22s.09.23 0 .22zm-1.45 1.44c.13 0 .12.21 0 .2a.1.1 0 0 1 0-.2zm-.35.58a.12.12 0 1 1 0 .24.12.12 0 0 1 0-.24zm-1.14.67a.12.12 0 1 1 0-.24c.16 0 .15.24 0 .24zm.94.48a.11.11 0 0 1 0-.22c.18 0 .17.22 0 .22zm-1-.31c.17 0 .16.28 0 .27a.14.14 0 0 1 0-.27zm.65-.69a.1.1 0 0 1 0 .19c-.13-.01-.12-.2 0-.19zm-.25 1.29a.13.13 0 0 1 0 .25.13.13 0 1 1 0-.25zm-1.18.07a.12.12 0 0 1 0 .24.12.12 0 0 1 0-.24zm-.22-.45c.16 0 .15.25 0 .25a.13.13 0 0 1 0-.25z" fill="#1c6c65"/><path d="M25.61 72.24c.14-.44-.21-.86-.55-1.16s-.73-.66-.7-1.11a1.07 1.07 0 0 1 .8-.86 12.13 12.13 0 0 1 1.23-.21 1.3 1.3 0 0 0 1-.67A1.18 1.18 0 0 0 27 67a6.66 6.66 0 0 0-1.21-.72 1.86 1.86 0 0 1-1-1 1.5 1.5 0 0 1 .93-1.66 3.74 3.74 0 0 1 2.05-.13c.54.08 1.21.14 1.5-.32a1 1 0 0 0 0-.95c-.14-.3-.36-.56-.49-.86a2 2 0 0 1 .51-2.27 2 2 0 0 1 2.51 0 2 2 0 0 1 .38 2.46c-.29.45-.79.83-.76 1.36s.59.91 1.09 1.15 1.08.57 1.12 1.12-.48 1-1 1.25-1.06.58-1.18 1.13.32 1.14.79 1.53 1 .74 1.45 1.16a2.92 2.92 0 0 1 .94 1.55 1.56 1.56 0 0 1-.63 1.58 3.38 3.38 0 0 1-1.13.3 1.37 1.37 0 0 0-1 .58 2.56 2.56 0 0 0-.17.83 1.84 1.84 0 0 1-1 1.29c-.57.29-1 .11-1.59.08a4 4 0 0 1-1.63-.21 4.5 4.5 0 0 1-.83-.53l-1.48-1.12c-.37-.28-.79-.67-.69-1.12s.96-.7 1.13-1.24z" fill="#8bb96f"/><path d="M26.58 73.11l.15-.11 2.16 1.42.03-4.02h.32l.03 2.18 2.13-1.42.15.11-2.28 1.67.12 9.69h-.57l.06-7.85z" fill="#8bb96f"/><path d="M35.46 77.71a1.69 1.69 0 0 1-.11-.62.73.73 0 0 1 .56-.51c.25-.07.52-.07.78-.13a1.7 1.7 0 0 0 1.24-1.24 1.66 1.66 0 0 0-.6-1.64 7.7 7.7 0 0 0-1-.55 1 1 0 0 1-.05-1.84 6.82 6.82 0 0 0 1-.66 1.61 1.61 0 0 0-.19-2.35 9.59 9.59 0 0 0-1.18-.52 1.1 1.1 0 0 1-.74-1c0-.46.46-.76.75-1.12a2 2 0 0 0 0-2.53 2.06 2.06 0 0 0-2.49-.49 2 2 0 0 0-1 2.34 11.57 11.57 0 0 0 .49 1.15 1.3 1.3 0 0 1 0 1.14c-.51.79-1.95.29-2.56 1a1.34 1.34 0 0 0 0 1.52c.28.46.7.83 1 1.28a1.44 1.44 0 0 1 .18 1.52 2.66 2.66 0 0 1-.94.7c-.33.21-.66.56-.59.94.12.69 1.28.75 1.45 1.43.1.41-.23.79-.34 1.19-.62 2.42 4.77 3.2 4.34.99z" fill="#72b84f"/><path d="M31.98 75.86l.11-.07 1.46 1.02.1-2.78.22.01-.02 1.51 1.5-.94.1.07-1.61 1.12-.1 6.69-.39-.01.19-5.42z" fill="#72b84f"/><path d="M90.58 74.78a13.41 13.41 0 0 0-3.5-6A7.28 7.28 0 0 0 83 67.14a6 6 0 0 0-3.87.8 10.42 10.42 0 0 0-3.55 4.93 36.2 36.2 0 0 0-1.79 6.81 4.28 4.28 0 0 0 0 2.07 1.72 1.72 0 0 0 1.88 1.08h9.17c1.51 0 3 0 4.53-.06a16.06 16.06 0 0 0 2.3 0c.57-.09.64-.57.54-1.36a37.47 37.47 0 0 0-1.63-6.63z" fill="#b4d596"/><path d="M105.18 75.35c-1-3-2.43-5.79-4.38-7.46a9 9 0 0 0-5.16-2.08 7.46 7.46 0 0 0-4.83 1C88.93 68 87.43 70.34 86.37 73a46 46 0 0 0-2.24 8.51 5.51 5.51 0 0 0 0 2.58 2.16 2.16 0 0 0 2.35 1.35h11.46l5.67-.07a21 21 0 0 0 2.86 0c.71-.11.81-.71.69-1.7a47.15 47.15 0 0 0-1.98-8.32z" fill="#699743"/><path d="M80.72 79.52h-16.6V67.78h16.6z" fill="#fff"/><path d="M80.72 79.52h-16.6V67.78z" fill="#f8f8f7"/><path d="M64.12 67.78v11.74h16.6V67.78zm6.44.49v3.32h-3v-3.32zm-6 3.65h2.58v3.46h-2.53zm2.91 0h3v3.46h-3zm6.42 3.46h-3v-3.46h3zm.34-3.46h3v3.46h-3zm-.34-3.65v3.32h-3v-3.32zm3.37 0v3.32h-3v-3.32zm2.92 3.32h-2.53v-3.32h2.58zm0 3.79h-2.53v-3.46h2.58zM77.65 79v-3.28h2.58V79zm-3.37 0v-3.28h3V79zm-3.38 0v-3.28h3V79zm-3.38 0v-3.28h3V79zm-2.91 0v-3.28h2.58V79zm0-10.77h2.58v3.32h-2.58z" fill="url(#a)"/><g fill="#d7d8d8"><path d="M71.49 83.39h1.86a1.14 1.14 0 0 1 1.14 1.13h-4.14a1.14 1.14 0 0 1 1.14-1.13z"/><path d="M72.71 83.62h-.57v-4.34h.57z"/></g></svg>