<svg xmlns="http://www.w3.org/2000/svg" viewBox="0 0 120.19 93.66"><defs><style>.cls-1{fill:#002c32;opacity:0.9;}.cls-2{fill:#bfc4c6;}.cls-3{fill:#d4dadc;}.cls-4{fill:#e9e9e9;}.cls-5{fill:#e0e0e1;}.cls-6{fill:#a5a4a4;}.cls-7{fill:#969696;}.cls-8{fill:#848484;}.cls-9{fill:#7a7b7c;}.cls-10{fill:#5f5f5f;}.cls-11{fill:#767676;}.cls-12{fill:#e6e6e6;}.cls-13{fill:#d7d8d8;}.cls-14{fill:#5a595b;}</style></defs><title>illustration_pollueur_2</title><g id="Calque_2" data-name="Calque 2"><g id="Calque_1-2" data-name="Calque 1"><path class="cls-1" d="M11.07,67.93S6.36,77.74,32.82,86.26s86.85,7.35,86.85,7.35V71.77Z"/><path class="cls-2" d="M0,64.81c0,3.85,53.81,7,120.19,7V57.86C53.81,57.86,0,61,0,64.81Z"/><path class="cls-3" d="M4.51,62.79c0,3.69,51.79,6.69,115.68,6.69V56.09C56.3,56.09,4.51,59.09,4.51,62.79Z"/><polygon class="cls-4" points="96.94 57.45 112.87 57.45 109.14 6.72 100.68 6.72 96.94 57.45"/><polygon class="cls-5" points="112.87 57.45 109.14 6.72 104.91 6.72 104.91 57.45 112.87 57.45"/><path class="cls-6" d="M6.86,38.11c2.28-3,5.68-5.29,9.41-5.39a12.35,12.35,0,0,1,8.15,3.21,27,27,0,0,1,5.5,7,67.24,67.24,0,0,1,4.58,9.43c.51,1.32,1.41,3.78.7,5a4.78,4.78,0,0,1-3,1.79c-5.77,1.6-12.13,1.71-18.1,2.14-3,.22-6.12.23-8.6-1.4C-2,55,2.68,43.55,6.86,38.11Z"/><path class="cls-7" d="M31.49,58.3A44.59,44.59,0,0,1,12.2,57.15a9.75,9.75,0,0,1-4.71-2.5,7.2,7.2,0,0,1-1.63-4.13A21.12,21.12,0,0,1,6.05,46L7,38l-.09.12C2.68,43.55-2,55,5.46,59.94c2.48,1.63,5.65,1.62,8.6,1.4,6-.43,12.33-.54,18.1-2.14a7.61,7.61,0,0,0,2.09-.83,2.4,2.4,0,0,0-.69-.21A6.89,6.89,0,0,0,31.49,58.3Z"/><path class="cls-8" d="M29.63,44.8C31.3,39.71,33.7,35,37,32.22a15,15,0,0,1,8.64-3.5,12.36,12.36,0,0,1,8.09,1.69c3.15,2,5.67,5.95,7.44,10.38a77.24,77.24,0,0,1,3.75,14.35A9.21,9.21,0,0,1,65,59.5c-.65,2-2.44,2.26-3.93,2.27q-9.6,0-19.19,0c-3.17,0-6.33-.07-9.5-.12a33.45,33.45,0,0,1-4.8-.09c-1.19-.19-1.35-1.2-1.15-2.86A80.73,80.73,0,0,1,29.63,44.8Z"/><path class="cls-9" d="M59.26,61.33a2.82,2.82,0,0,0-1.41-.3,24.77,24.77,0,0,1-17.24-8.34A24.49,24.49,0,0,1,37,47.22a24.81,24.81,0,0,1-1.88-5.5c-.4-1.83-.34-3.67-.64-5.5a3.07,3.07,0,0,0-.29-.94,35.2,35.2,0,0,0-4.58,9.52A80.73,80.73,0,0,0,26.4,58.66c-.2,1.66,0,2.67,1.15,2.86a33.45,33.45,0,0,0,4.8.09c3.17,0,6.33.09,9.5.12q8.9.08,17.79,0A1.08,1.08,0,0,0,59.26,61.33Z"/><path class="cls-10" d="M28.89,59.51a.18.18,0,0,0,0,.36A.18.18,0,0,0,28.89,59.51Z"/><path class="cls-10" d="M29.27,57.63a.35.35,0,0,0,0,.69A.35.35,0,0,0,29.27,57.63Z"/><path class="cls-10" d="M30.1,58.66a.31.31,0,0,0,0,.61A.31.31,0,0,0,30.1,58.66Z"/><path class="cls-10" d="M31.87,59.23a.4.4,0,0,0,0,.79A.4.4,0,0,0,31.87,59.23Z"/><path class="cls-10" d="M29.47,59.92a.26.26,0,0,0,0,.51A.26.26,0,0,0,29.47,59.92Z"/><path class="cls-10" d="M30.12,57.77a.28.28,0,0,0,0-.55A.28.28,0,0,0,30.12,57.77Z"/><path class="cls-10" d="M29.57,55.35a.25.25,0,0,0,0,.49A.25.25,0,0,0,29.57,55.35Z"/><path class="cls-10" d="M29.31,54.51a.26.26,0,0,0,0-.52A.26.26,0,0,0,29.31,54.51Z"/><path class="cls-10" d="M30.44,53.15a.3.3,0,0,0,0-.6A.3.3,0,0,0,30.44,53.15Z"/><path class="cls-10" d="M31.39,54.27a.29.29,0,0,0,0,.58A.29.29,0,0,0,31.39,54.27Z"/><path class="cls-10" d="M31,56.54a.36.36,0,0,0,0,.71A.36.36,0,0,0,31,56.54Z"/><path class="cls-10" d="M33.84,57.64a.33.33,0,0,0,0,.65A.33.33,0,0,0,33.84,57.64Z"/><path class="cls-10" d="M33.3,59.49a.31.31,0,0,0,0,.61A.31.31,0,0,0,33.3,59.49Z"/><path class="cls-10" d="M32.17,56.88a.36.36,0,0,0,0,.72A.36.36,0,0,0,32.17,56.88Z"/><path class="cls-10" d="M33.37,55.68a.27.27,0,0,0,0,.54A.27.27,0,0,0,33.37,55.68Z"/><path class="cls-10" d="M35.88,57.7a.29.29,0,0,0,0,.58A.29.29,0,0,0,35.88,57.7Z"/><path class="cls-10" d="M36,59.46A.28.28,0,0,0,36,60,.28.28,0,0,0,36,59.46Z"/><path class="cls-10" d="M34.54,59.5a.24.24,0,0,0,0,.48A.24.24,0,0,0,34.54,59.5Z"/><path class="cls-10" d="M38.85,58.69a.37.37,0,0,0,0,.74A.37.37,0,0,0,38.85,58.69Z"/><path class="cls-10" d="M41.49,59.54a.32.32,0,0,0,0,.63A.32.32,0,0,0,41.49,59.54Z"/><path class="cls-10" d="M43.88,60.11a.22.22,0,0,0,0,.43A.22.22,0,0,0,43.88,60.11Z"/><path class="cls-10" d="M37.32,59.76a.32.32,0,0,0,0,.64A.32.32,0,0,0,37.32,59.76Z"/><path class="cls-10" d="M37.24,57.77a.29.29,0,0,0,0,.57A.29.29,0,0,0,37.24,57.77Z"/><path class="cls-10" d="M41.73,58.46a.2.2,0,0,0,0-.39A.2.2,0,0,0,41.73,58.46Z"/><path class="cls-10" d="M39.87,60.08a.24.24,0,0,0,0,.48A.24.24,0,0,0,39.87,60.08Z"/><path class="cls-10" d="M35.41,56a.28.28,0,0,0,0,.56A.28.28,0,0,0,35.41,56Z"/><path class="cls-10" d="M32.91,52.62a.3.3,0,0,0,0,.59A.3.3,0,0,0,32.91,52.62Z"/><path class="cls-10" d="M31.17,51.69a.34.34,0,0,0,0-.68A.34.34,0,0,0,31.17,51.69Z"/><path class="cls-10" d="M32.12,48.44a.33.33,0,0,0,0,.65A.33.33,0,0,0,32.12,48.44Z"/><path class="cls-10" d="M30.94,48.62a.26.26,0,0,0,0-.51A.26.26,0,1,0,30.94,48.62Z"/><path class="cls-10" d="M30.4,50.76a.29.29,0,0,0,0-.57A.29.29,0,0,0,30.4,50.76Z"/><path class="cls-10" d="M32.48,46.24a.2.2,0,0,0,0-.39A.2.2,0,0,0,32.48,46.24Z"/><path class="cls-10" d="M33.22,45.08a.25.25,0,0,0,0-.5A.25.25,0,0,0,33.22,45.08Z"/><path class="cls-10" d="M33.73,50.72a.27.27,0,0,0,0-.53A.27.27,0,0,0,33.73,50.72Z"/><path class="cls-10" d="M34.72,52.83a.33.33,0,0,0,0-.65A.33.33,0,0,0,34.72,52.83Z"/><path class="cls-10" d="M37.52,53.51a.29.29,0,0,0,0,.58A.29.29,0,0,0,37.52,53.51Z"/><path class="cls-10" d="M37.82,55.48a.23.23,0,0,0,0,.46A.23.23,0,0,0,37.82,55.48Z"/><path class="cls-10" d="M34.74,54.8a.32.32,0,0,0,0-.63A.32.32,0,0,0,34.74,54.8Z"/><path class="cls-10" d="M33.35,53.9a.24.24,0,0,0,0,.48A.24.24,0,0,0,33.35,53.9Z"/><path class="cls-10" d="M32.36,54.53a.28.28,0,0,0,0,.55A.28.28,0,0,0,32.36,54.53Z"/><path class="cls-10" d="M32.1,56.39a.28.28,0,0,0,0-.56A.28.28,0,0,0,32.1,56.39Z"/><path class="cls-10" d="M30.67,56a.33.33,0,0,0,0-.66A.33.33,0,0,0,30.67,56Z"/><path class="cls-10" d="M28.56,56.86a.24.24,0,0,0,0,.48A.24.24,0,0,0,28.56,56.86Z"/><path class="cls-10" d="M31.85,58.65a.33.33,0,0,0,0-.65A.33.33,0,0,0,31.85,58.65Z"/><path class="cls-10" d="M28.74,58.46a.28.28,0,0,0,0,.55A.28.28,0,0,0,28.74,58.46Z"/><path class="cls-10" d="M30.77,60a.34.34,0,0,0,0,.67A.34.34,0,0,0,30.77,60Z"/><path class="cls-10" d="M33.43,58.61a.33.33,0,0,0,0,.66A.33.33,0,0,0,33.43,58.61Z"/><path class="cls-10" d="M34.09,56.83a.29.29,0,0,0,0-.58A.29.29,0,0,0,34.09,56.83Z"/><path class="cls-10" d="M35.13,58.71a.27.27,0,0,0,0,.54A.27.27,0,0,0,35.13,58.71Z"/><path class="cls-10" d="M32.82,51.92a.24.24,0,0,0,0-.48A.24.24,0,0,0,32.82,51.92Z"/><path class="cls-10" d="M31.57,53.22a.31.31,0,0,0,0-.61A.31.31,0,0,0,31.57,53.22Z"/><path class="cls-10" d="M29.7,51.66a.14.14,0,0,0,0-.28A.14.14,0,0,0,29.7,51.66Z"/><path class="cls-10" d="M32,50.37a.3.3,0,0,0,0-.6A.3.3,0,0,0,32,50.37Z"/><path class="cls-10" d="M35.85,54.33a.28.28,0,0,0,0,.55A.28.28,0,0,0,35.85,54.33Z"/><path class="cls-10" d="M36.82,55.93a.34.34,0,0,0,0,.67A.34.34,0,0,0,36.82,55.93Z"/><path class="cls-10" d="M40,57.77a.34.34,0,0,0,0-.67A.34.34,0,0,0,40,57.77Z"/><path class="cls-10" d="M37.29,59.08a.3.3,0,0,0,0-.59A.3.3,0,0,0,37.29,59.08Z"/><path class="cls-10" d="M40.25,58.23a.38.38,0,0,0,0,.76A.38.38,0,0,0,40.25,58.23Z"/><path class="cls-10" d="M38.31,56.33a.27.27,0,0,0,0,.53A.27.27,0,0,0,38.31,56.33Z"/><path class="cls-10" d="M39,59.89a.35.35,0,0,0,0,.7A.35.35,0,0,0,39,59.89Z"/><path class="cls-10" d="M42.22,60.05a.34.34,0,0,0,0,.68A.34.34,0,0,0,42.22,60.05Z"/><path class="cls-10" d="M42.76,58.84a.35.35,0,0,0,0,.69A.35.35,0,0,0,42.76,58.84Z"/><path class="cls-8" d="M78.35,50.26a18.5,18.5,0,0,0-2.63-4.34,6.53,6.53,0,0,0-3.53-2.34c-2-.39-4,.73-5.45,2.63a20.16,20.16,0,0,0-3.27,7.24,11.23,11.23,0,0,0-.41,2.27A4.58,4.58,0,0,0,63.43,58a2.65,2.65,0,0,0,2.27,1.58,88.76,88.76,0,0,0,13.06-.24,2.93,2.93,0,0,0,1.76-.86c.6-.58.12-1.58-.1-2.43A37.13,37.13,0,0,0,78.35,50.26Z"/><path class="cls-11" d="M76.48,47.75a9.52,9.52,0,0,1,.4,4,7,7,0,0,1-.65,2.19,9,9,0,0,1-4.88,4.2A23.09,23.09,0,0,1,65,59.41a2.5,2.5,0,0,0,.75.15,88.76,88.76,0,0,0,13.06-.24,2.93,2.93,0,0,0,1.76-.86c.6-.58.12-1.58-.1-2.43a37.13,37.13,0,0,0-2.07-5.77A18.6,18.6,0,0,0,75.76,46c.07.26.29.57.38.81S76.38,47.42,76.48,47.75Z"/><polygon class="cls-12" points="75 59.84 100.18 59.84 94.28 0 80.91 0 75 59.84"/><polygon class="cls-13" points="100.18 59.84 94.28 0 87.59 0 87.59 59.84 100.18 59.84"/><polygon class="cls-14" points="65.92 37.79 66.24 37.55 70.67 40.82 70.77 31.6 71.42 31.6 71.47 36.61 75.88 33.38 76.19 33.62 71.48 37.43 71.65 59.6 70.5 59.6 70.67 41.64 65.92 37.79"/><polygon class="cls-14" points="74.23 43.22 74.48 43.03 78.04 45.65 78.11 38.26 78.64 38.26 78.68 42.28 82.21 39.68 82.46 39.88 78.68 42.93 78.82 60.7 77.9 60.7 78.03 46.3 74.23 43.22"/><polygon class="cls-14" points="100.93 48.97 101.11 48.83 103.64 50.69 103.7 45.46 104.07 45.46 104.1 48.3 106.61 46.47 106.79 46.6 104.1 48.76 104.2 61.34 103.54 61.34 103.64 51.15 100.93 48.97"/><polygon class="cls-14" points="104.67 43.68 104.92 43.49 108.47 46.09 108.54 38.77 109.06 38.77 109.1 42.75 112.62 40.18 112.87 40.37 109.11 43.4 109.25 60.99 108.33 60.99 108.46 46.73 104.67 43.68"/></g></g></svg>