<svg viewBox="0 0 120.19 93.66" xmlns="http://www.w3.org/2000/svg"><path d="M11.07 67.93s-4.71 9.81 21.75 18.33 86.85 7.35 86.85 7.35V71.77z" fill="#002c32" opacity=".9"/><path d="M0 64.81c0 3.85 53.81 7 120.19 7V57.86C53.81 57.86 0 61 0 64.81z" fill="#bfc4c6"/><path d="M4.51 62.79c0 3.69 51.79 6.69 115.68 6.69V56.09c-63.89 0-115.68 3-115.68 6.7z" fill="#d4dadc"/><path d="M96.94 57.45h15.93l-3.73-50.73h-8.46z" fill="#e9e9e9"/><path d="M112.87 57.45l-3.73-50.73h-4.23v50.73z" fill="#e0e0e1"/><path d="M6.86 38.11c2.28-3 5.68-5.29 9.41-5.39a12.35 12.35 0 0 1 8.15 3.21 27 27 0 0 1 5.5 7 67.24 67.24 0 0 1 4.58 9.43c.51 1.32 1.41 3.78.7 5a4.78 4.78 0 0 1-3 1.79c-5.77 1.6-12.13 1.71-18.1 2.14-3 .22-6.12.23-8.6-1.4C-2 55 2.68 43.55 6.86 38.11z" fill="#a5a4a4"/><path d="M31.49 58.3a44.59 44.59 0 0 1-19.29-1.15 9.75 9.75 0 0 1-4.71-2.5 7.2 7.2 0 0 1-1.63-4.13A21.12 21.12 0 0 1 6.05 46L7 38l-.09.12C2.68 43.55-2 55 5.46 59.94c2.48 1.63 5.65 1.62 8.6 1.4 6-.43 12.33-.54 18.1-2.14a7.61 7.61 0 0 0 2.09-.83 2.4 2.4 0 0 0-.69-.21 6.89 6.89 0 0 0-2.07.14z" fill="#969696"/><path d="M29.63 44.8C31.3 39.71 33.7 35 37 32.22a15 15 0 0 1 8.64-3.5 12.36 12.36 0 0 1 8.09 1.69c3.15 2 5.67 5.95 7.44 10.38a77.24 77.24 0 0 1 3.75 14.35A9.21 9.21 0 0 1 65 59.5c-.65 2-2.44 2.26-3.93 2.27H41.88c-3.17 0-6.33-.07-9.5-.12a33.45 33.45 0 0 1-4.8-.09c-1.19-.19-1.35-1.2-1.15-2.86a80.73 80.73 0 0 1 3.2-13.9z" fill="#848484"/><path d="M59.26 61.33a2.82 2.82 0 0 0-1.41-.3 24.77 24.77 0 0 1-17.24-8.34A24.49 24.49 0 0 1 37 47.22a24.81 24.81 0 0 1-1.88-5.5c-.4-1.83-.34-3.67-.64-5.5a3.07 3.07 0 0 0-.29-.94 35.2 35.2 0 0 0-4.58 9.52 80.73 80.73 0 0 0-3.21 13.86c-.2 1.66 0 2.67 1.15 2.86a33.45 33.45 0 0 0 4.8.09c3.17 0 6.33.09 9.5.12q8.9.08 17.79 0a1.08 1.08 0 0 0-.38-.4z" fill="#7a7b7c"/><path d="M28.89 59.51a.18.18 0 0 0 0 .36.18.18 0 0 0 0-.36zm.38-1.88a.35.35 0 0 0 0 .69.35.35 0 0 0 0-.69zm.83 1.03a.31.31 0 0 0 0 .61.31.31 0 0 0 0-.61zm1.77.57a.4.4 0 0 0 0 .79.4.4 0 0 0 0-.79zm-2.4.69a.26.26 0 0 0 0 .51.26.26 0 0 0 0-.51zm.65-2.15a.28.28 0 0 0 0-.55.28.28 0 0 0 0 .55zm-.55-2.42a.25.25 0 0 0 0 .49.25.25 0 0 0 0-.49zm-.26-.84a.26.26 0 0 0 0-.52.26.26 0 0 0 0 .52zm1.13-1.36a.3.3 0 0 0 0-.6.3.3 0 0 0 0 .6zm.95 1.12a.29.29 0 0 0 0 .58.29.29 0 0 0 0-.58zM31 56.54a.36.36 0 0 0 0 .71.36.36 0 0 0 0-.71zm2.84 1.1a.33.33 0 0 0 0 .65.33.33 0 0 0 0-.65zm-.54 1.85a.31.31 0 0 0 0 .61.31.31 0 0 0 0-.61zm-1.13-2.61a.36.36 0 0 0 0 .72.36.36 0 0 0 0-.72zm1.2-1.2a.27.27 0 0 0 0 .54.27.27 0 0 0 0-.54zm2.51 2.02a.29.29 0 0 0 0 .58.29.29 0 0 0 0-.58zm.12 1.76a.28.28 0 0 0 0 .54.28.28 0 0 0 0-.54zm-1.46.04a.24.24 0 0 0 0 .48.24.24 0 0 0 0-.48zm4.31-.81a.37.37 0 0 0 0 .74.37.37 0 0 0 0-.74zm2.64.85a.32.32 0 0 0 0 .63.32.32 0 0 0 0-.63zm2.39.57a.22.22 0 0 0 0 .43.22.22 0 0 0 0-.43zm-6.56-.35a.32.32 0 0 0 0 .64.32.32 0 0 0 0-.64zm-.08-1.99a.29.29 0 0 0 0 .57.29.29 0 0 0 0-.57zm4.49.69a.2.2 0 0 0 0-.39.2.2 0 0 0 0 .39zm-1.86 1.62a.24.24 0 0 0 0 .48.24.24 0 0 0 0-.48zM35.41 56a.28.28 0 0 0 0 .56.28.28 0 0 0 0-.56zm-2.5-3.38a.3.3 0 0 0 0 .59.3.3 0 0 0 0-.59zm-1.74-.93a.34.34 0 0 0 0-.68.34.34 0 0 0 0 .68zm.95-3.25a.33.33 0 0 0 0 .65.33.33 0 0 0 0-.65zm-1.18.18a.26.26 0 0 0 0-.51.26.26 0 1 0 0 .51zm-.54 2.14a.29.29 0 0 0 0-.57.29.29 0 0 0 0 .57zm2.08-4.52a.2.2 0 0 0 0-.39.2.2 0 0 0 0 .39zm.74-1.16a.25.25 0 0 0 0-.5.25.25 0 0 0 0 .5zm.51 5.64a.27.27 0 0 0 0-.53.27.27 0 0 0 0 .53zm.99 2.11a.33.33 0 0 0 0-.65.33.33 0 0 0 0 .65zm2.8.68a.29.29 0 0 0 0 .58.29.29 0 0 0 0-.58zm.3 1.97a.23.23 0 0 0 0 .46.23.23 0 0 0 0-.46zm-3.08-.68a.32.32 0 0 0 0-.63.32.32 0 0 0 0 .63zm-1.39-.9a.24.24 0 0 0 0 .48.24.24 0 0 0 0-.48zm-.99.63a.28.28 0 0 0 0 .55.28.28 0 0 0 0-.55zm-.26 1.86a.28.28 0 0 0 0-.56.28.28 0 0 0 0 .56zM30.67 56a.33.33 0 0 0 0-.66.33.33 0 0 0 0 .66zm-2.11.86a.24.24 0 0 0 0 .48.24.24 0 0 0 0-.48zm3.29 1.79a.33.33 0 0 0 0-.65.33.33 0 0 0 0 .65zm-3.11-.19a.28.28 0 0 0 0 .55.28.28 0 0 0 0-.55zM30.77 60a.34.34 0 0 0 0 .67.34.34 0 0 0 0-.67zm2.66-1.39a.33.33 0 0 0 0 .66.33.33 0 0 0 0-.66zm.66-1.78a.29.29 0 0 0 0-.58.29.29 0 0 0 0 .58zm1.04 1.88a.27.27 0 0 0 0 .54.27.27 0 0 0 0-.54zm-2.31-6.79a.24.24 0 0 0 0-.48.24.24 0 0 0 0 .48zm-1.25 1.3a.31.31 0 0 0 0-.61.31.31 0 0 0 0 .61zm-1.87-1.56a.14.14 0 0 0 0-.28.14.14 0 0 0 0 .28zm2.3-1.29a.3.3 0 0 0 0-.6.3.3 0 0 0 0 .6zm3.85 3.96a.28.28 0 0 0 0 .55.28.28 0 0 0 0-.55zm.97 1.6a.34.34 0 0 0 0 .67.34.34 0 0 0 0-.67zM40 57.77a.34.34 0 0 0 0-.67.34.34 0 0 0 0 .67zm-2.71 1.31a.3.3 0 0 0 0-.59.3.3 0 0 0 0 .59zm2.96-.85a.38.38 0 0 0 0 .76.38.38 0 0 0 0-.76zm-1.94-1.9a.27.27 0 0 0 0 .53.27.27 0 0 0 0-.53zm.69 3.56a.35.35 0 0 0 0 .7.35.35 0 0 0 0-.7zm3.22.16a.34.34 0 0 0 0 .68.34.34 0 0 0 0-.68zm.54-1.21a.35.35 0 0 0 0 .69.35.35 0 0 0 0-.69z" fill="#5f5f5f"/><path d="M78.35 50.26a18.5 18.5 0 0 0-2.63-4.34 6.53 6.53 0 0 0-3.53-2.34c-2-.39-4 .73-5.45 2.63a20.16 20.16 0 0 0-3.27 7.24 11.23 11.23 0 0 0-.41 2.27 4.58 4.58 0 0 0 .37 2.28 2.65 2.65 0 0 0 2.27 1.58 88.76 88.76 0 0 0 13.06-.24 2.93 2.93 0 0 0 1.76-.86c.6-.58.12-1.58-.1-2.43a37.13 37.13 0 0 0-2.07-5.79z" fill="#848484"/><path d="M76.48 47.75a9.52 9.52 0 0 1 .4 4 7 7 0 0 1-.65 2.19 9 9 0 0 1-4.88 4.2A23.09 23.09 0 0 1 65 59.41a2.5 2.5 0 0 0 .75.15 88.76 88.76 0 0 0 13.06-.24 2.93 2.93 0 0 0 1.76-.86c.6-.58.12-1.58-.1-2.43a37.13 37.13 0 0 0-2.07-5.77A18.6 18.6 0 0 0 75.76 46c.07.26.29.57.38.81s.24.61.34.94z" fill="#767676"/><path d="M75 59.84h25.18L94.28 0H80.91z" fill="#e6e6e6"/><path d="M100.18 59.84L94.28 0h-6.69v59.84z" fill="#d7d8d8"/><g fill="#5a595b"><path d="M65.92 37.79l.32-.24 4.43 3.27.1-9.22h.65l.05 5.01 4.41-3.23.31.24-4.71 3.81.17 22.17H70.5l.17-17.96z"/><path d="M74.23 43.22l.25-.19 3.56 2.62.07-7.39h.53l.04 4.02 3.53-2.6.25.2-3.78 3.05.14 17.77h-.92l.13-14.4zm26.7 5.75l.18-.14 2.53 1.86.06-5.23h.37l.03 2.84 2.51-1.83.18.13-2.69 2.16.1 12.58h-.66l.1-10.19z"/><path d="M104.67 43.68l.25-.19 3.55 2.6.07-7.32h.52l.04 3.98 3.52-2.57.25.19-3.76 3.03.14 17.59h-.92l.13-14.26z"/></g></svg>