<svg xmlns="http://www.w3.org/2000/svg" viewBox="0 0 95.57 69.67"><defs><style>.cls-1{fill:#1d1d1b;}.cls-2{fill:#002c32;}.cls-3{fill:#42ab36;}.cls-4{fill:#006130;}.cls-5{fill:#fff;}</style></defs><title>logo</title><g id="Calque_2" data-name="Calque 2"><g id="Calque_1-2" data-name="Calque 1"><path class="cls-1" d="M13.88,38.39H18.6v.21H14.1v3.6h4.06v.21H14.1v3.68h4.66v.21H13.88Z"/><path class="cls-1" d="M23.57,45.89a2.14,2.14,0,0,1-.65.35,2,2,0,0,1-.75.13,2.25,2.25,0,0,1-1.12-.29,2.33,2.33,0,0,1-.8-.79,2.11,2.11,0,0,1-.3-1.12,2.16,2.16,0,0,1,.3-1.12,2.36,2.36,0,0,1,.8-.8,2.15,2.15,0,0,1,1.11-.3,2.44,2.44,0,0,1,.77.13,2.14,2.14,0,0,1,.64.37l-.12.16a2.45,2.45,0,0,0-.59-.34,2,2,0,0,0-.69-.13,1.94,1.94,0,0,0-1,.28,2,2,0,0,0-1,1.75,2,2,0,0,0,1,1.74,2,2,0,0,0,1.7.15,2.19,2.19,0,0,0,.58-.32Z"/><path class="cls-1" d="M24.38,44.16a2.12,2.12,0,0,1,.3-1.11,2.3,2.3,0,0,1,.8-.81,2.26,2.26,0,0,1,2.25,0,2.25,2.25,0,0,1,.81.81,2.22,2.22,0,0,1,0,2.23,2.22,2.22,0,0,1-.81.8,2.26,2.26,0,0,1-1.13.29,2.15,2.15,0,0,1-1.12-.29,2.21,2.21,0,0,1-.8-.78A2.16,2.16,0,0,1,24.38,44.16Zm.23,0a2,2,0,0,0,.26,1,2,2,0,0,0,.73.73,2,2,0,0,0,2,0,2,2,0,0,0,.72-.73,2,2,0,0,0,0-2,2.1,2.1,0,0,0-.72-.73,1.94,1.94,0,0,0-1-.28,1.8,1.8,0,0,0-1,.3,2,2,0,0,0-.71.75A2,2,0,0,0,24.61,44.16Z"/><path class="cls-1" d="M30.2,37.83h.23V46.3H30.2Z"/><path class="cls-1" d="M31.79,44.16a2.12,2.12,0,0,1,.3-1.11,2.3,2.3,0,0,1,.8-.81,2.13,2.13,0,0,1,1.12-.3,2.17,2.17,0,0,1,1.13.3,2.25,2.25,0,0,1,.81.81,2.22,2.22,0,0,1,0,2.23,2.22,2.22,0,0,1-.81.8,2.26,2.26,0,0,1-1.13.29,2.13,2.13,0,0,1-1.12-.29,2.21,2.21,0,0,1-.8-.78A2.16,2.16,0,0,1,31.79,44.16Zm.23,0a2,2,0,0,0,1,1.75,2,2,0,0,0,1,.27,1.93,1.93,0,0,0,1-.27,2,2,0,0,0,.72-.73,2,2,0,0,0,0-2,2.1,2.1,0,0,0-.72-.73,1.94,1.94,0,0,0-1-.28,1.8,1.8,0,0,0-1,.3,2,2,0,0,0-.71.75A1.88,1.88,0,0,0,32,44.16Z"/><path class="cls-2" d="M5.21,11.14a20.52,20.52,0,0,0-3,6.18A42.48,42.48,0,0,0,.79,23.9C.47,26.08.26,28.26.15,30.4S0,34.34,0,36c0,.44,0,1.15,0,2.12s.07,2.06.14,3.29.14,2.47.22,3.79S.57,47.8.69,49s.26,2.45.43,3.46a10.23,10.23,0,0,0,1.14,3.61,6.61,6.61,0,0,0,.52.78,12,12,0,0,0,2.1,2.22A16.74,16.74,0,0,0,8,61.13a22.65,22.65,0,0,0,3.14,1.37,11.86,11.86,0,0,0,3.84.7A18,18,0,0,0,20.62,62c1.89-.66,3.87-1.46,5.89-2.38.81-.37,1.58-.75,2.33-1.13l.38-.2c.71-.37,1.4-.75,2.06-1.14l.18-.1a1.67,1.67,0,0,1,.08.2c.12.31.24.62.38.92s.12.3.19.45c.21.44.43.87.67,1.28A8.26,8.26,0,0,0,40,64a9,9,0,0,0,7.79-4.34,16.3,16.3,0,0,0,1.71-3.79c.42.64.83,1.25,1.26,1.82A19.07,19.07,0,0,0,53.84,61,8.78,8.78,0,0,0,59.5,63.2a8.22,8.22,0,0,0,1-.06l.32,0a6.37,6.37,0,0,0,.63-.11c.13,0,.25-.07.37-.1l.54-.16c.13,0,.25-.1.37-.15s.34-.13.5-.21l.36-.2c.15-.09.3-.17.45-.27s.22-.16.34-.24.28-.2.42-.32.21-.2.31-.29.26-.24.38-.37h0A4.89,4.89,0,0,0,65,62.73c0,4,4.82,7,11.2,6.94s11.18-3,11.17-7a4.84,4.84,0,0,0-.25-1.52Z"/><path class="cls-3" d="M95.5,36.49h0a32.5,32.5,0,0,0-.5-3.93,27.43,27.43,0,0,0-2.66-7.75,20.1,20.1,0,0,0-5.46-6.5,14.82,14.82,0,0,0-9.31-3,15.89,15.89,0,0,0-9.37,2.85c-.29.2-.57.41-.85.63a7.67,7.67,0,0,0-.53-.74,7.75,7.75,0,0,0-6.26-3,10.24,10.24,0,0,0-5.43,1.67,22.52,22.52,0,0,0-3,2.24c-.07-1.13-.18-2.29-.34-3.47a21.15,21.15,0,0,0-.68-3c2.58-1.26,4.18-3.21,4.17-5.5C55.27,3,50.46,0,44.09,0,38.74,0,34.5,2.12,33.28,5.14c-.32-.19-.65-.38-1-.55a9.8,9.8,0,0,0-4.16-.93A22.65,22.65,0,0,0,25,3.93c-1.09.15-2.31.36-3.65.6s-2.78.55-4.26.91-2.9.76-4.18,1.16A30.26,30.26,0,0,0,9.13,8.06,12.09,12.09,0,0,0,6.39,9.8L87.87,59.59a19,19,0,0,0,3.41-4.18,27.32,27.32,0,0,0,3.07-7.54,41.16,41.16,0,0,0,1.18-7.64h0c0-.48,0-1,0-1.47,0-.12,0-.24,0-.37C95.57,37.76,95.55,37.13,95.5,36.49Z"/><path class="cls-4" d="M33.11,48.88a9.13,9.13,0,0,1-2.92,2.49,45.54,45.54,0,0,1-5.09,2.7q-2.79,1.27-5.4,2.18a13.41,13.41,0,0,1-3.85.91,6.64,6.64,0,0,1-2-.4,16.2,16.2,0,0,1-2.37-1A11.87,11.87,0,0,1,9.3,54.31a6.23,6.23,0,0,1-1.4-1.55A6.4,6.4,0,0,1,7.43,51c-.14-.87-.27-1.88-.37-3s-.2-2.39-.29-3.7-.15-2.54-.22-3.72-.1-2.23-.13-3.14,0-1.57,0-2q0-2.3.15-5.28t.58-6a38.94,38.94,0,0,1,1.27-5.78,15.05,15.05,0,0,1,2.26-4.69,4.93,4.93,0,0,1,1.74-1.18,23.56,23.56,0,0,1,3.07-1.19c1.18-.37,2.45-.72,3.82-1.06s2.67-.61,3.94-.84,2.41-.42,3.44-.56A17.73,17.73,0,0,1,29,8.65a4,4,0,0,1,1.77.4,4.4,4.4,0,0,1,1.43,1.08,5.18,5.18,0,0,1,.93,1.52,4.62,4.62,0,0,1,.35,1.77,3.68,3.68,0,0,1-.22,1.37A6.81,6.81,0,0,1,32.63,16,9.06,9.06,0,0,1,30,18c-1.33.75-2.76,1.48-4.32,2.21s-3,1.38-4.46,2-2.44,1-3,1.25c-.17.95-.34,1.91-.53,2.88a29.43,29.43,0,0,0-.4,2.95,36,36,0,0,1,4.35-1.86,13.33,13.33,0,0,1,4.59-.88q4.41,0,4.41,4.34a4.12,4.12,0,0,1-.4,1.87,5.24,5.24,0,0,1-1.05,1.42,7.15,7.15,0,0,1-1.49,1.09l-1.65.91a32.21,32.21,0,0,1-4.15,1.83q-2.18.78-4.35,1.53c-.08.33-.16.69-.25,1.09a5.67,5.67,0,0,0-.12,1.14,11.32,11.32,0,0,0,.13,1.74c.08.58.17,1.16.25,1.74L20,44.36c1.09-.37,2.24-.75,3.44-1.12s2.36-.7,3.48-1a11.7,11.7,0,0,1,2.48-.4,3.83,3.83,0,0,1,1.74.4,4.35,4.35,0,0,1,1.37,1,5.46,5.46,0,0,1,.9,1.52,4.68,4.68,0,0,1,.34,1.74A4.61,4.61,0,0,1,33.11,48.88Zm25-9q1.3,2.26,2.49,4.8c.78,1.7,1.46,3.36,2,5a12.8,12.8,0,0,1,.84,4,3.94,3.94,0,0,1-.8,2.4,2.66,2.66,0,0,1-2.23,1.09,3.4,3.4,0,0,1-2.15-.9,13.67,13.67,0,0,1-2.17-2.36A28.63,28.63,0,0,1,54,50.65c-.66-1.2-1.27-2.37-1.83-3.53s-1.06-2.25-1.5-3.26-.78-1.83-1-2.45a8.09,8.09,0,0,1-1.7,1.33A16.46,16.46,0,0,0,46.14,44q0,1.3-.09,3.66a29.06,29.06,0,0,1-.55,4.66,12.12,12.12,0,0,1-1.52,4A3.44,3.44,0,0,1,40.88,58a2.75,2.75,0,0,1-2.49-1.46,10.94,10.94,0,0,1-1.27-3.41,23,23,0,0,1-.47-4c0-1.34-.07-2.37-.07-3.07,0-3.06.08-6.13.24-9.19s.26-6.13.3-9.19c0-.7,0-1.62,0-2.76s.1-2.37.22-3.7.3-2.67.55-4A18.55,18.55,0,0,1,39,13.51a7.69,7.69,0,0,1,1.77-2.67,3.67,3.67,0,0,1,2.64-1,2.48,2.48,0,0,1,1.89.84,6.17,6.17,0,0,1,1.25,2.14,14,14,0,0,1,.68,2.91c.15,1.08.25,2.15.32,3.2s.09,2,.09,3V24q0,.57,0,1.65c0,.72,0,1.48-.06,2.27s0,1.51,0,2.17a5.41,5.41,0,0,0,.13,1.43c.28,0,.72-.28,1.3-.84s1.25-1.28,2-2.15,1.59-1.79,2.48-2.76,1.8-1.9,2.73-2.77a17.58,17.58,0,0,1,2.76-2.15A4.92,4.92,0,0,1,61.45,20a2.29,2.29,0,0,1,1.92.87,3.11,3.11,0,0,1,.69,2,7.91,7.91,0,0,1-.9,3.54A26,26,0,0,1,61,30a42.23,42.23,0,0,1-2.66,3.36c-.93,1-1.75,2-2.45,2.89C56.46,37.16,57.19,38.37,58.06,39.88Zm32.84-.51a36.18,36.18,0,0,1-1,6.65,21.73,21.73,0,0,1-2.45,6,13.75,13.75,0,0,1-4.09,4.35,10.36,10.36,0,0,1-5.9,1.69,9.37,9.37,0,0,1-5.53-1.67,14.85,14.85,0,0,1-4-4.28,20.65,20.65,0,0,1-2.42-5.81A25.59,25.59,0,0,1,64.7,40a30.2,30.2,0,0,1,.8-6.8A22.91,22.91,0,0,1,68,26.82a14.62,14.62,0,0,1,4.28-4.72,10.49,10.49,0,0,1,6.2-1.84,9.41,9.41,0,0,1,5.93,1.89,14.22,14.22,0,0,1,4,4.71A21.5,21.5,0,0,1,90.46,33,25.3,25.3,0,0,1,90.9,39.37Z"/><path class="cls-5" d="M32.48,43.32a4.35,4.35,0,0,0-1.37-1,3.83,3.83,0,0,0-1.74-.4,11.7,11.7,0,0,0-2.48.4c-1.12.27-2.28.6-3.48,1S21.06,44,20,44.36l-2.39.81c-.08-.58-.17-1.16-.25-1.74a11.32,11.32,0,0,1-.13-1.74,5.67,5.67,0,0,1,.12-1.14c.09-.4.17-.76.25-1.09q2.17-.75,4.35-1.53a32.21,32.21,0,0,0,4.15-1.83l1.65-.91a7.15,7.15,0,0,0,1.49-1.09,5.24,5.24,0,0,0,1.05-1.42,4.12,4.12,0,0,0,.4-1.87q0-4.33-4.41-4.34a13.33,13.33,0,0,0-4.59.88,36,36,0,0,0-4.35,1.86,29.43,29.43,0,0,1,.4-2.95c.19-1,.36-1.93.53-2.88.57-.25,1.58-.67,3-1.25s2.91-1.23,4.46-2S28.7,18.71,30,18A9.06,9.06,0,0,0,32.63,16a6.81,6.81,0,0,0,.65-1.24,3.68,3.68,0,0,0,.22-1.37,4.62,4.62,0,0,0-.35-1.77,5.18,5.18,0,0,0-.93-1.52,4.4,4.4,0,0,0-1.43-1.08A4,4,0,0,0,29,8.65a17.73,17.73,0,0,0-2.36.22c-1,.14-2.18.33-3.44.56s-2.58.51-3.94.84-2.64.69-3.82,1.06a23.56,23.56,0,0,0-3.07,1.19,4.93,4.93,0,0,0-1.74,1.18,15.05,15.05,0,0,0-2.26,4.69,38.94,38.94,0,0,0-1.27,5.78q-.43,3-.58,6t-.15,5.28q0,.62,0,2c0,.91.07,2,.13,3.14s.14,2.42.22,3.72S7,46.82,7.06,48s.23,2.17.37,3a6.4,6.4,0,0,0,.47,1.74,6.23,6.23,0,0,0,1.4,1.55,11.87,11.87,0,0,0,2.14,1.42,16.2,16.2,0,0,0,2.37,1,6.64,6.64,0,0,0,2,.4,13.41,13.41,0,0,0,3.85-.91q2.61-.9,5.4-2.18a45.54,45.54,0,0,0,5.09-2.7,9.13,9.13,0,0,0,2.92-2.49,4.61,4.61,0,0,0,.61-2.3,4.68,4.68,0,0,0-.34-1.74A5.46,5.46,0,0,0,32.48,43.32Z"/><path class="cls-5" d="M61,30a26,26,0,0,0,2.17-3.57,7.91,7.91,0,0,0,.9-3.54,3.11,3.11,0,0,0-.69-2A2.29,2.29,0,0,0,61.45,20a4.92,4.92,0,0,0-2.55.84A17.58,17.58,0,0,0,56.14,23c-.93.87-1.84,1.79-2.73,2.77s-1.71,1.89-2.48,2.76-1.43,1.59-2,2.15-1,.84-1.3.84a5.41,5.41,0,0,1-.13-1.43c0-.66,0-1.39,0-2.17s0-1.55.06-2.27,0-1.27,0-1.65V21.85c0-.91,0-1.89-.09-3s-.17-2.12-.32-3.2a14,14,0,0,0-.68-2.91,6.17,6.17,0,0,0-1.25-2.14,2.48,2.48,0,0,0-1.89-.84,3.67,3.67,0,0,0-2.64,1A7.69,7.69,0,0,0,39,13.51a18.55,18.55,0,0,0-1.05,3.7c-.25,1.36-.43,2.71-.55,4s-.2,2.56-.22,3.7,0,2.06,0,2.76c0,3.06-.14,6.13-.3,9.19s-.24,6.13-.24,9.19c0,.7,0,1.73.07,3.07a23,23,0,0,0,.47,4,10.94,10.94,0,0,0,1.27,3.41A2.75,2.75,0,0,0,40.88,58,3.44,3.44,0,0,0,44,56.28a12.12,12.12,0,0,0,1.52-4,29.06,29.06,0,0,0,.55-4.66q.09-2.35.09-3.66a16.46,16.46,0,0,1,1.77-1.22,8.09,8.09,0,0,0,1.7-1.33c.25.62.6,1.43,1,2.45s.94,2.1,1.5,3.26,1.17,2.33,1.83,3.53a28.63,28.63,0,0,0,2.09,3.26,13.67,13.67,0,0,0,2.17,2.36,3.4,3.4,0,0,0,2.15.9,2.66,2.66,0,0,0,2.23-1.09,3.94,3.94,0,0,0,.8-2.4,12.8,12.8,0,0,0-.84-4c-.56-1.61-1.24-3.27-2-5s-1.62-3.29-2.49-4.8-1.6-2.72-2.18-3.63c.7-.87,1.52-1.84,2.45-2.89A42.23,42.23,0,0,0,61,30Z"/><path class="cls-5" d="M88.34,26.86a14.22,14.22,0,0,0-4-4.71,9.41,9.41,0,0,0-5.93-1.89,10.49,10.49,0,0,0-6.2,1.84A14.62,14.62,0,0,0,68,26.82a22.91,22.91,0,0,0-2.48,6.4,30.2,30.2,0,0,0-.8,6.8,25.59,25.59,0,0,0,.82,6.3,20.65,20.65,0,0,0,2.42,5.81,14.85,14.85,0,0,0,4,4.28,9.37,9.37,0,0,0,5.53,1.67,10.36,10.36,0,0,0,5.9-1.69A13.75,13.75,0,0,0,87.44,52a21.73,21.73,0,0,0,2.45-6,36.18,36.18,0,0,0,1-6.65A25.3,25.3,0,0,0,90.46,33,21.5,21.5,0,0,0,88.34,26.86Z"/><path class="cls-3" d="M80.08,45.4a4.05,4.05,0,0,1-2.81.82,25.55,25.55,0,0,1,1-9.48,23.08,23.08,0,0,0-2,9.27,3.85,3.85,0,0,1-1.66-1.27c-1.45-1.92-1.89-5.66,4.21-12.63C83.46,40.34,82,43.88,80.08,45.4Z"/><path class="cls-5" d="M83.63,62.29c-.1.14-.19.29-.3.43s-.39.52-.6.77a6.54,6.54,0,0,1-1.07,1,6.2,6.2,0,0,1-1,.63,5.4,5.4,0,0,1-1.17.47,6.78,6.78,0,0,1-1.85.27,9.37,9.37,0,0,1-1.58-.14,11,11,0,0,1-1.23-.29l-.7-.23L74,65.17,73.79,67l-3.24-5,5.91-.23v0L75,63l.17.07,1,.36a11.17,11.17,0,0,0,1.41.35,8.93,8.93,0,0,0,1.55.14,6.17,6.17,0,0,0,1.13-.1,6.76,6.76,0,0,0,1.38-.39,8.24,8.24,0,0,0,1.46-.79l.5-.38h0Z"/><path class="cls-5" d="M39.47,7.36c.1-.15.19-.3.3-.44s.39-.51.6-.76a7.45,7.45,0,0,1,1.07-1,6.29,6.29,0,0,1,1-.63A6.17,6.17,0,0,1,43.58,4a6.78,6.78,0,0,1,1.85-.26A8.36,8.36,0,0,1,47,3.9a10,10,0,0,1,1.23.28l.71.23.19.06.17-1.81,3.25,5-5.92.22h0L48.1,6.61l-.17-.07-1-.35a9.68,9.68,0,0,0-1.41-.35A7.24,7.24,0,0,0,44,5.7a6.09,6.09,0,0,0-1.13.1,6.42,6.42,0,0,0-1.38.39A7.09,7.09,0,0,0,40,7l-.5.37,0,0Z"/></g></g></svg>