<svg xmlns="http://www.w3.org/2000/svg" xmlns:xlink="http://www.w3.org/1999/xlink" viewBox="0 0 41.18 22.59"><defs><style>.cls-1{fill:#f5f4f4;}.cls-2{fill:url(#linear-gradient);}</style><linearGradient id="linear-gradient" x1="2718.6" y1="14.58" x2="2759.78" y2="14.58" gradientTransform="translate(-2718.6)" gradientUnits="userSpaceOnUse"><stop offset="0" stop-color="#bde4fa"/><stop offset="1" stop-color="#d4dde7"/></linearGradient></defs><title>nuage-1</title><g id="Calque_2" data-name="Calque 2"><g id="Calque_1-2" data-name="Calque 1"><path class="cls-1" d="M35.22,10.76a6,6,0,0,0-1.85.29,5.07,5.07,0,0,0,.49-2.16A5.14,5.14,0,0,0,28.7,3.76a5.2,5.2,0,0,0-2.9.88A7.45,7.45,0,0,0,11.6,6a8.59,8.59,0,1,0-3,16.63H35.22a5.92,5.92,0,1,0,0-11.83Z"/><path class="cls-2" d="M11.85,19.4a8.61,8.61,0,0,1-8.64-8.58A8.49,8.49,0,0,1,4.35,6.57a8.56,8.56,0,0,0,4.28,16H35.22A5.94,5.94,0,0,0,40.72,19a5.94,5.94,0,0,1-2.28.45Z"/></g></g></svg>