<svg xmlns="http://www.w3.org/2000/svg" xmlns:xlink="http://www.w3.org/1999/xlink" viewBox="0 0 51.32 20.37"><defs><style>.cls-1{fill:url(#linear-gradient);}</style><linearGradient id="linear-gradient" x1="762.93" y1="12.58" x2="814.44" y2="12.58" gradientTransform="matrix(-1, -0.03, -0.03, 1, 814.47, 21.54)" gradientUnits="userSpaceOnUse"><stop offset="0" stop-color="#e4e4e3"/><stop offset="1" stop-color="#dadada"/></linearGradient></defs><title>fumee3</title><g id="Calque_2" data-name="Calque 2"><g id="Calque_1-2" data-name="Calque 1"><path class="cls-1" d="M0,10.63A2.24,2.24,0,0,1,1.52,8.87,6.54,6.54,0,0,1,3.94,8.6l13.23.15c1.1,0,2.45-.14,2.86-1.15s-.51-2.11-1.53-2.46a26.23,26.23,0,0,0-3.2-.46c-1.06-.22-2.17-1-2.18-2A2.09,2.09,0,0,1,14.5.81,6.18,6.18,0,0,1,16.89.49l9.1,0L42.6.39c1.27,0,2.56.07,3.82,0A10.44,10.44,0,0,1,48.69,0c1.67.24,2.63,2.54,1.17,3.7a4,4,0,0,1-3.14.35l-4.87-.83c-1-.16-2.23-.23-2.79.61a1.65,1.65,0,0,0,.16,1.86,2.85,2.85,0,0,0,1.69,1c1.41.33,2.9,0,4.31.29s2.87,1.58,2.45,3a2.64,2.64,0,0,1-2.59,1.54c-1.08,0-2.13-.32-3.21-.33-.83,0-1.84.38-1.88,1.21s1,1.31,1.81,1.53l6.93,1.82a4.89,4.89,0,0,1,1.85.77,1.71,1.71,0,0,1,.68,1.77c-.31,1-1.58,1.17-2.6,1.2l-31.2.92A5.91,5.91,0,0,1,14.65,20a2,2,0,0,1-1.09-2.36c.44-1,1.8-1.17,2.9-1.17h9.93c.88,0,2-.19,2.19-1.05A1.32,1.32,0,0,0,27.79,14a3.76,3.76,0,0,0-1.66-.29L4,13.14a6.81,6.81,0,0,1-2.62-.43A2.24,2.24,0,0,1,0,10.63Z"/></g></g></svg>