<svg viewBox="0 0 44.25 19.7" xmlns="http://www.w3.org/2000/svg" xmlns:xlink="http://www.w3.org/1999/xlink"><linearGradient id="a" gradientTransform="matrix(-1 0 0 1 1018.69 0)" gradientUnits="userSpaceOnUse" x1="974.44" x2="1018.69" y1="9.85" y2="9.85"><stop offset="0" stop-color="#e4e4e3"/><stop offset="1" stop-color="#dadada"/></linearGradient><path d="m1.54 8.75a9.9 9.9 0 0 1 2.72-.42 3.64 3.64 0 0 0 1.91-.59 1.52 1.52 0 0 0 .55-1.74c-.52-1-2.5-1.74-3-2.78a2.3 2.3 0 0 1 .74-2.42 4.49 4.49 0 0 1 2.11-.53c7.27-.59 14.67 0 22-.15a13.78 13.78 0 0 1 6.11 1.12 4.32 4.32 0 0 1 1.71 1.2 1.9 1.9 0 0 1 .33 2c-.28.59-.94 1-1 1.64-.09.94 1.09 1.43 2 1.51s2.15.06 3.21.24a4.42 4.42 0 0 1 2.78 1.45 2.36 2.36 0 0 1 .08 2.95 3.26 3.26 0 0 1 -2.7.78 6.68 6.68 0 0 0 -2.89.16c-.9.36-1.57 1.51-1 2.32s2 .81 2.34 1.73a1.41 1.41 0 0 1 -.73 1.64 4.13 4.13 0 0 1 -1.91.37l-13.65.44c-3.12.1-6.31.19-9.25-.85-.9-.32-1.94-1.1-1.62-2 .39-1.12 2.44-1 2.65-2.16a1.26 1.26 0 0 0 -.93-1.31 3.93 3.93 0 0 0 -1.74 0 31.93 31.93 0 0 1 -9.36-.35c-1.34-.26-2.89-.87-3-2.18a2.25 2.25 0 0 1 1.54-2.07z" fill="url(#a)"/></svg>