<svg viewBox="0 0 41.18 22.59" xmlns="http://www.w3.org/2000/svg" xmlns:xlink="http://www.w3.org/1999/xlink"><linearGradient id="a" gradientUnits="userSpaceOnUse" x1="0" x2="41.18" y1="14.58" y2="14.58"><stop offset="0" stop-color="#bde4fa"/><stop offset="1" stop-color="#d4dde7"/></linearGradient><path d="m35.22 10.76a6 6 0 0 0 -1.85.29 5.07 5.07 0 0 0 .49-2.16 5.14 5.14 0 0 0 -5.16-5.13 5.2 5.2 0 0 0 -2.9.88 7.45 7.45 0 0 0 -14.2 1.36 8.59 8.59 0 1 0 -3 16.63h26.62a5.92 5.92 0 1 0 0-11.83z" fill="#f5f4f4"/><path d="m11.85 19.4a8.61 8.61 0 0 1 -8.64-8.58 8.49 8.49 0 0 1 1.14-4.25 8.56 8.56 0 0 0 4.28 16h26.59a5.94 5.94 0 0 0 5.5-3.57 5.94 5.94 0 0 1 -2.28.45z" fill="url(#a)"/></svg>