<svg xmlns="http://www.w3.org/2000/svg" xmlns:xlink="http://www.w3.org/1999/xlink" viewBox="0 0 44.25 19.7"><defs><style>.cls-1{fill:url(#linear-gradient);}</style><linearGradient id="linear-gradient" x1="974.44" y1="9.85" x2="1018.69" y2="9.85" gradientTransform="matrix(-1, 0, 0, 1, 1018.69, 0)" gradientUnits="userSpaceOnUse"><stop offset="0" stop-color="#e4e4e3"/><stop offset="1" stop-color="#dadada"/></linearGradient></defs><title>fumee1</title><g id="Calque_2" data-name="Calque 2"><g id="Calque_1-2" data-name="Calque 1"><path class="cls-1" d="M1.54,8.75a9.9,9.9,0,0,1,2.72-.42,3.64,3.64,0,0,0,1.91-.59A1.52,1.52,0,0,0,6.72,6c-.52-1-2.5-1.74-3-2.78A2.3,2.3,0,0,1,4.46.8,4.49,4.49,0,0,1,6.57.27c7.27-.59,14.67,0,22-.15a13.78,13.78,0,0,1,6.11,1.12,4.32,4.32,0,0,1,1.71,1.2,1.9,1.9,0,0,1,.33,2c-.28.59-.94,1-1,1.64-.09.94,1.09,1.43,2,1.51s2.15.06,3.21.24a4.42,4.42,0,0,1,2.78,1.45,2.36,2.36,0,0,1,.08,2.95,3.26,3.26,0,0,1-2.7.78,6.68,6.68,0,0,0-2.89.16c-.9.36-1.57,1.51-1,2.32s2,.81,2.34,1.73a1.41,1.41,0,0,1-.73,1.64,4.13,4.13,0,0,1-1.91.37l-13.65.44c-3.12.1-6.31.19-9.25-.85-.9-.32-1.94-1.1-1.62-2,.39-1.12,2.44-1,2.65-2.16a1.26,1.26,0,0,0-.93-1.31,3.93,3.93,0,0,0-1.74,0A31.93,31.93,0,0,1,3,13C1.66,12.74.11,12.13,0,10.82A2.25,2.25,0,0,1,1.54,8.75Z"/></g></g></svg>