<svg viewBox="0 0 1571 287.3" xmlns="http://www.w3.org/2000/svg"><g fill="#99b772"><path d="M229.1 100.5c.4-.2.9-.3 1.4-.2.7 0 2.7-.3 2.7-.7 0-.5.1-1 .2-1.4h1.8c.9 0 3.5-1.8 4.3-2.5l.7-.8.7-.8c.9-1.1 2-2 3.2-2.8 1-.6 3.7-2.1 3.9-2.2.4-.4.5-1.1.2-1.6-.4-1.5-.5-3.1-.4-4.6l.6-.4.7-.5c1.4 0 2.3.5 2 1.2-.4 1.7-.4 3.6 0 5.3l1.8-.2 1.2-.1c2 0 4-.1 6-.5 1.5-.4 5.7-2.5 5.3-3.8s2.1-4 2.4-3.7 1.6.7 2.2.2-.7-3-.6-3.8 3-1.8 3.9-1.9 3.4-.9 3-1.3c-1.2-.5-2.5-.5-3.7 0l-1.2.2-1.6.3c-1.9-.5-3.5-1.9-4.4-3.7-.6-1.6 1.4-6 1.9-6.8s1.3-4 .1-5.1l-1.4.4-.7.2c-.5 1.5-1.1 3-1.9 4.4-.6 1.1-2.9 4.7-3.4 6s1.4 4.7 1.7 5.3-1 2.3-1.5 3-2.1 5.2-3.5 7.9l-1.1.1h-.4c-.8-1.2-1.4-2.5-1.9-3.9-.5-1.6-2.5-5.8-2.9-5.2-1.2 1-2.6 1.9-4.1 2.4l-1.2-.1c-1.3-.1-1.3-1.2-.9-2.4.2-.6-.3-1.7-.7-2.4l-1.3-2.4c3.2-3.2 6.6-6.2 10.2-9l.9-5.3.2-1.1c1.3-1.5 2.7-2.8 4.2-4.2l.2-1.9c0-.3.7-.6 1.1-.8 2.4-1.1 4.7-2.7 7.2-3.2l2.7-.6c3.2.7 5.6 1.4 5.4 1.6s-.1.9 1.4 1.1c2.6.5 5.1 1.1 7.7 1.9 1.5.5 5.7 2.9 6.1 3.8s-1.7 2.4-2.4 2.6c-1.4 0-2.8-.1-4.1-.4-1-.3-2.9-.2-2.5.8s2.2 4.1 2.8 5.1 3.4.7 2.9.1c-.6-.6-1.1-1.4-1.6-2.1.6-.2 1.2-.1 1.8.1.8.3 3.4-.4 3.7-2.1s3.6-3.2 3.3-4.2-.6-4 .2-3.7 2.8 1.2 2.5 1.5c-.5.5-.6 1.4-.1 2 .6.6 3.9-2 5.2-3.2l1.3-1 .5-.4c.8-.4 1.5-.4 1.7-.1.5.5 1.3.7 2 .4 1.4-.6 2.9-1 4.4-1.1l.8.1c.4 0 .8.1 1-.1l.3-.3c.1-.5 0-1-.1-1.4-.2-.3.9-1.2 3.2-1s7.8 2 7.9 1.9c-.1-.7-.5-1.4-1.1-1.9l-.9-.5-1-.6c-.3-.8-.7-1.6-1.2-2.3-.5-.9-.7-2-.6-3 .2-1.1 1.8-4.3 2.8-4.5s3.5 2.9 3.9 2.7 1.9-.6 2.2-.3c.7.3 1.6 0 1.9-.7 0-.1 0-.1.1-.2.3-1.1 3.9-1.3 4.6-1.1s1.8.1.4-.3-2.3-4.3-1-4.8 4.3-2 3.9-2.2.1-2.8 1.9-4.9 9.2-5.6 8.8-7-.7-5.3-.3-5.9h.3c.7 0 1.3.2 1.9.6l-.5 2.2c1.2 0 2.3.1 3.5.4 1.1.1 2.1 0 3.1-.3 2.6-.3 5.2-.2 7.7.2 1.5.4 1.8 6.3.6 8.2l-1.1 1.8-.6 1c-.5.7-.8 1.4-.9 2.2 1-.2 1.9-.7 2.7-1.3 1.2-.9 5.4-3.5 6.2-3.6 1.6-.2 3.2-.6 4.7-1.2.8-.4 3 1.6 3.5 1.8l.4-.2 1.2-.5c1.1-.6 2-1.5 1.9-2.1s.9-1.8 2.5-1.8 5.2.6 5 1.2 0 2.5.8 2.6c1.6.4 3.2.9 4.7 1.5l1.1.4.8.3c1.2.3 2-.1 1.8-.8s.8-2.3 2.5-2.7 6-2 5.4-2.4-2-1.7-2-2.2 3.1-2.2 6.7-2.7l3.3-.1h1.8c2 .6 4.8 1.6 6.1 2.2s7.3-2.1 9.8-3.2l3 2 1.3.9c1.3.7 4.4.6 6.9-.4s9.4-.2 9.4-.3c-.3-.6-.7-1.2-1.2-1.6-.7-.7-1.4-2.6-.1-3.1s7.2-1.1 10.7-1l3 .4c2.5.4 5 1 7.4 1.8l1.4.4c1.2.7 2.4 1.3 3.7 1.9.6.2 2.7-.6 3.8-.6s4.3 1.9 5.2 3.3l-.4 1-.9 2.4c1.5 1.6 2.3 3.3 1.7 3.8l-.2-.1-2-.8c-1.9-.8-3.8-1.8-5.6-2.8l-.4.2-2 1.2c-1.6-1.4-2.6-1.6-2.2-.4s.8 4.7.1 4.7-2 .7-.7 1.2c2 1 3.8 2.3 5.5 3.8 1 1.1 1.9 2.2 2.7 3.4-.3.2-.8.3-1.2.2s-2.5 1.4-3.8 3.5-3.4 8.1-4.5 7.6-3.7 2.8-3.8 2.6-1.1-.2-1.9.1l-.5.5-.5.4c-.2.9-.4 1.7-.3 2.6.2 1.1.5 2.1 1 3.1.5.5 1 1 1.5 1.4.3.4.6.8.7 1.3.3.9.8 1.7 1.3 2.4.3.4.7 1.7.5 1.7s-1.1.3-.8 1c.6 1.5 1 3 1.4 4.5l-.4.3-1.8 1.5c.6.9 1 1.9 1.3 3-.5.7-.7 1.5-.8 2.4-.2 1.6-.5 3.2-1 4.8-1.2-1.7-2.3-3.5-3.2-5.4-1.6-2.9-5.3-11.7-5.2-12.7.2-1.7.4-3.4.8-5.1.2-.8 1-3.9 1.4-5.2.4-2 .6-4.1.5-6.1-.2-.9-1.3-2.9-2-1.7s-2.8 4-3 3.3c-.8-1.1-2.2-1.4-3.4-.8-1.4.8-2.1 7.8-2.2 8.8s-2.7 1.9-2.7 1.6c-.1-.7-.6-1.3-1.3-1.5-.9-.2-4.3 1.9-5.9 2.3l-1.5.1c-2.1 0-4 1.3-4.5 3.3-1.5 3.8-1.7 8-3.9 11.6-.7.9-.5 2.1.4 2.8.4.3.8.4 1.3.4 1.3-.1 2.6-.3 3.9-.9l1.1-.4c2.2 1.9 3.8 4.3 4.8 7.1.8 2.4 1.6 10.9 1.3 13.6s-3.7 9.9-4.3 10.4-4 .4-4.8 1.2l-.2.9-.6 2.3c-.9 1.5-1.5 3.2-2 4.9.3.7.8 1.4 1.3 2 1.1 1.4 2.1 3 2.9 4.6.7 1.5-3.3 2.9-3.2.9s-4.6-4.7-4.6-5.3-1-2.6-2.1-2.2-4 .8-4 .1-.6-1.9-1.3-.6-4.2 3-3.8 3.7c.9 1.1 2 1.9 3.3 2.5l.2-.3 1.4-2.1c1.6.9 2.2 2.4 1.4 3.4s-2 4.9-.7 6.4c2 3.2 3.6 6.6 4.8 10.2l-1.9 1.9-.5.5c-.5 1.7-1.1 3.4-1.8 5-.8 1.8-6.4 4.9-7.4 5.3-1.5.6-2.9 1.3-4.2 2.1-.3.3-1.4.7-1.9.3s-1.8-1.3-2.1-1.3l-.1.1-4.9 3.5 5.5 6.6c1.2 2.2 2.2 4.7 2.7 7.2l-2.6 1.8-1.5 1.1c-1.5 1.2-3.8 1-5-.6-1.3-1.6-6.8-3-7.6-.6l.4 1.8c.6 2.1 1.9 4 3.7 5.3l3.1 2.2c.6 3.4 1.1 6.4 1 6.5-.6.1-1.3-.1-1.7-.5-1.1-.9-2.2-1.9-3.2-2.9-.5-1.2-.8-2.4-1.1-3.6s-2.5-3.9-3-4.5-.9-4.2-1.4-6.5-2-8.2-2.4-8.1l-.1.1-.9.6c-1 .7-2 .8-2.2.2s-1.2-3-1.7-4.1l-.6-1-1.1-1.7c-1.3-1.8-2.5-3.6-2.9-4s-1.6-1.5-1.6-.9-.8 2-1.6 2.1-3 .4-3.2.5c-1.3 1.2-2.5 2.5-3.6 3.9-1.7 1.9-6.7 6.9-6.9 7.4-.2 1.5-.4 3.1-.4 4.6-.1 1.7-2.5 6.2-3 6.6s-3.5-3.4-5.8-7-5.1-14.7-6.3-14.3-3.3-2.1-3.1-2.2.7-.6.6-.7c-.6-.3-1.1-.6-1.8-.8-.9-.3-3.3-2.2-4.6-2.7s-7.5-1.3-10.7-1.5l-2.9-.4c-.6-.1-1-1-1.5-1.3l-.5-.3c-.9-.1-1.9-.1-2.8 0s-3.6-1.4-4.7-2.3-4.3-3.2-4.7-3-1 2.2.1 3.8 5.5 6 6.8 6.3l1.1-.2 1.1-.2c.8-.5 1.8-.6 2.7-.2 1.8.7 3.6 1.2 5.4 1.6l.2 1.5c.1 1.2-1.1 2.5-1.7 3.7l-.5.9c-.8 1.3-1.8 2.4-2.8 3.5-.9 1-4.9 2.7-5.5 3.2-1.6 1-3.3 1.8-5 2.5-2.9 1-5.9 1.9-8.9 2.5l-1.1-2.4-1.3-2.7c-1.5-2.9-3.5-6.3-4.3-7.5s-3.2-6-4.1-7.4c-1.3-1.9-2.9-3.7-4.6-5.4-.9-.7-1.7-1.6-2.3-2.7-.4-1.9-.1-3.9.8-5.7 1-1.8 1.7-7.3 1.6-7.4-1-.3-2-.5-3-.6-1.5-.2-6.7.5-8.4 0s-3-4.3-3.2-4.9-1.5-2.1-2.3-1.8-3.1 1.4-2.8 2.1.8 2.7.6 3.2-1.8 1.9-2.9 1.9l-.2-1.7c-.1-.7-.8-1.4-1-2.1l-.6-1.7c-1.2-2.1-2.5-4.2-4-6.1l-1.5-.8-1.6-.9c-1.2-1.4-2.5-2.8-2.8-3.1s-2.2-.7-2.8.1l.2.3 1 1.9c1.1 1.7 2.5 3.2 4.1 4.5.9.6 2.7 2.2 2.5 2.6-.3.8-.5 1.6-.7 2.4-.1.5-1.4.8-2.1-.5s-4.5-4.4-5.6-5-3-3.7-3.4-3.9c-.7-.2-1.5-.2-2.2.1-.9.4-1.8.7-2.8 1-1.7.1-3.4 0-5.1-.4l.3 2.5.1.6c-.9.7-2.3 1.7-3.1 2.3s-2.3 3.9-2.9 5.1-4 2.8-4.6 3-2.5.6-3 .7-2.3-1.3-2.9-1.4c-1.4-1-2.3-2.6-2.4-4.3 0-2.1 1.2-7.9 2.8-8.1s6.4-.3 7.4-.3 1.6-4.9 1.1-7.2l-2.6-1.1-.7-.3c-1-.2-1.3-.8-1.4-1.4zM11.5 52.6c.5-1 .6-1.6 0-1.4s-2.1.3-2.2-.1-1-1.4-1.4-1.3-1.5-.3-1.2-1-.6-3.3-2.7-4.2L5.1 42c.2-.4.3-.7.3-1.1-.3-4.1 3.3-5.1 5.7-7l.4-.3c1.6-.1 3.3-.5 4.8-1.2 1-.6 1.6-2.9.2-2.8l-1.2-.4-2.5-.4c-.1-1.5-.2-3.1-.4-4.6.1-1.1.9-1.9 1.9-2.2 1.4-.4 5.1-.9 5.5-.5.5.5 1 1 1.6 1.4.3-1 .4-2 .3-3 0-1.5 1-6.1 2.2-6.1l1.2-.2c1.1 0 2.2-.3 3.2-.8 2.8-1.9 6.2-2.8 9.6-2.5h.8c2.2 0 4.5.2 6.7.7l1.4 2.8c.1.3.2.7.4.8l2.6 1.4c3 1.6 5.9 3.5 8.6 5.5l1 1.8c1.1 1.9 1.9 3.2 4.3 2.4.5-.2 1.3.6 2 .7l.9.2c1.2.1 2.4 0 3.5-.2 1.5-.3 2.9-.8 4.3-1.4.5-.3 1.6-.6 1.6.1s.3 2.6.9 2.1 2.2-1.2 2.1-.8c.1 1 .8 1.8 1.7 2 1.1.1 3.9 2.2 4.4 2.5s2 1.4 2.4 1.7 1.5 1.6 1 1.8-1.8 1.1-1.3 1.2h.2l3.7.5c4.1.5 8.6 1 10.1 1.2l.7.7 2.4 2.6c3.1-.6 5.8-1.1 6-1 .4.2.7.7.6 1.2-.1.6.4 1.6 1.3 1.1 1.2-.8 2.3-1.7 3.2-2.8.2-.5-.3-2.8-1.7-4l2.4-1.5c.9-.6 1.5-1.8 2.4-2.6s2-.7 2.2.4l.4 1.8c-.6 1.5-.9 3.1-1 4.7.1.8.6 2.8 1 2.5s1.2-.3.6.6 1.7 3.3 3 2.6 3.7-4.5 4.3-4.8l.4.2 1.2.6c1.3 1 1.8 2.4 1 3.1s-2.1 3.7-2.6 4c-1.5.7-3.1.9-4.7.6-1.5-.4-4.7 3.8-5.3 4.8s-3.9 2-4.6 2.2-2.2.8-2.1 1-3.3 2.8-7.9 5.1l-1.4 4.9c-.2.6-.2 2 0 2.1 2.7.8 1.7 2.6 1.3 4.2l-.1.3c-.1.4 1 1 2.3 1.1s4.1 3.8 4.8 4.2c1.2.7 2.4 1.3 3.7 1.8.6.2 2.1 1.1 1.9 1.8-.4 1.3-.7 2.7-1 4-.1 1 1.6 3.5 2.3 3.7s1.8-1.4 2-2.1.4-3.4.5-4.3 4-4 6.2-5.8l-1.2-4.1c-.1-1 .3-2 .9-2.8l.8-1c.3-1.3.8-3.8 1.3-5.6l.5-1.7c.1-.3.6-.6.9-.7l1-.3c3.2 1.7 6.2 3.6 6.7 4.2.5.7 1.2 1.4 1.9 2 .1 0 .2.8-.2 1.8s-1.1 3.9-.5 4.1c.7.4 1.4.8 2.1 1.3.1.1 1-.3 1.8-1.3s4.6-1.1 6 2.7l-.5 3.7-.2 1.2c1.1 1.3 2.4 2.3 3.8 3 .8.2 1 2.8 1.1 3s1 1.3 1.5 2.1-2.4 3.4-4.3 4.5-9 1.1-10.3 1.1-3.5 1.8-2.8 2 2.4 1.4 2.1 1.8c-.4 1.2-.3 2.4.4 3.5.8 1.1 2.6 4 1.3 4.6s-4.6 1.7-4.1.9-1-1.8-4-.5-5.8 5.4-7.1 5.6l-1 .6c-1.3.8-2.4 1.8-3.4 2.9l-1 1c-1 1.5-1.9 2.4-2.1 1.9s-.5-1-.8-1.5c-.3 1-.4 1.9-.3 2.9l.2 1.4.3 1.6c-1 1.2-2.1 2.3-3.4 3.2-1.8 1.2-3.6 2.6-5.2 4.1-1.1 1.1-1.2 6-1.1 7 .2 1.4.1 2.8-.1 4.2-.6.6-1.5.8-2.3.4l-.2-.7-.5-1.5c-.2-1.7-.5-3.8-.7-4.6s-2.7-.9-3-.9-2.2-.6-4.1-1.2l-1.7.2-.5.1c-.3.4-.6.9-.8 1.4 0 .1-.3.4-.9.3s-3.3-.6-4.9-.6-6.7 2.3-8 3.4l.4 1.9.1.6c-.6 1.5-1.1 3.1-1.4 4.7-.4 1.8 2.5 7.4 4.5 8.7s7.4-2.8 8.6-4.2l1.4-.4c2-.6 2.7.4 1.9 2.3l-1 2.4c-1.4 2.8-1.7 5.1-.7 5.1 1.8.1 3.7.3 5.5.6 1.2.4 1.2 4.5 1.1 5.2 0 1.4.3 2.9 1 4.1.6.9 4.2 2.2 4.2 2.7s-1.7 1.6-3.3.7-6.2-4.6-6.8-6.1-4.8-3.5-6.3-3.9-5.1-3.2-5.8-3.5-2.4-.1-3.4-.1-4.7-1.2-6.3-1.9-6.6-3.9-7.8-5.3v-3.4c-1.1-2.3-2.4-4.5-3.8-6.6-1.8-2.8-3.5-5.8-5-8.8l-.6-1.1-.5-1c-.7-1-1.5-1.8-1.7-1.8-.4.4-.6 1-.5 1.5.5 1.9 1.2 3.8 2 5.6s3 7 3.1 7.6c.3.8.4 1.7.4 2.5-1-.8-1.7-1.7-2.3-2.9-1-1.7-3.6-6.9-3.7-8.1l-.3-.9-.6-1.8c-.7-1.9-2-5.4-2.9-7.8l-2.3-1.5c-1.4-.9-1.8-3.4-2.5-5.2l-.4-1.2c-.3-1.3-.7-2.8-.9-3.2-.1-1.6-.1-3.2.2-4.8.2-1.8 1.7-8.3 2.4-10.4s2.8-7.8 3.3-7.4 1.9 1.2 2 .5c-.2-1.5-.7-2.9-1.4-4.2-.6-1-2.9-4.2-3.7-5.1l-.1-.9-.5-3.4c-.3-2.6-.4-5.1-.4-7.7.1-.4.2-1.7-.1-1.7s-.5-1.7-.2-3.7-3.2-6.2-3.3-6.1c-.6.2-1.2 0-1.7-.4l-.2-.6c-.3-1.8-1.4-3.4-2.9-4.5-.7-.4-1.4-.7-2.1-.8l-2.2-.4c-1.3-2.2-2.9-4.1-3.4-4.1s-1.6 1.9-1.9 2.4l-.4.2-1.9.8c-2.3.8-3.9.9-3.5.1s-.6-1.6-3.1-.2l-.7 1.9-.3.7c-.8.6-2.9 2-4.8 3.1C10 57.5 7 59 4 60.2c-1 .3-3.8 0-3.5-.7l.5-.3 2.6-1.3c3.2-1.5 7.4-4.4 7.9-5.3z" opacity=".89"/><path d="M318.8 167.2c0 .8-.2 1.6-.5 2.3-2.6 5-5.4 9.8-8.6 14.4l-4.8 3.9-1 .8c-1.3 1.8-2.5 3.7-3.4 5.7-1 2 .6 9.8.6 10.6.1 1.9 0 3.9-.3 5.8-.4 1.6-4 4.6-4.4 4.9s-3.4 2.5-5.5 4.4l1.3 3.3.8 1.9c-1.2 1.3-2.5 2.6-3.9 3.6-.6.3-1.2 2.8-1.5 3.4-.6 1.2-1.3 2.4-2.2 3.5-.6.8-3.5 4.1-5.3 5.8s-8.6 2.7-9.3 2.8c-2.3.1-4.6-.1-6.9-.5l.3-2.8.1-1.1c-.6-1.3-2-4-3-5.9s-2.9-9.9-3.6-12.7l-1.2-2.3-2.5-4.6c1.9-4.5 3.8-8.8 4.2-9.6l-.1-.6-1.3-4.7c-2.4-4.7-5-9.4-5.7-10.4s.3-4.7.5-5.2c.1-1.1.1-2.3-.1-3.4-.3-.9-3.6-1.6-4.5-1.4s-4-2.8-5.6-3.6l-1.2.4-4.6 1.6c-5.2.5-10.5.8-11.8.8s-4.7-2-5.4-2.4l-3.2-2.1-.3-.4-1.4-2c-1.6-2.1-3.4-4.9-4.1-6.1s0-6.4.4-8-.8-6.5-.7-7.2c.6-1.7 1.4-3.2 2.4-4.7.9-1.3 3.5-5 3.7-5.2s1.5-1.2 2.4-1.9 3.5-4.8 4.7-6.7l1.1-1.7c.2-.3.7-.5.8-.9 1.3-3.3 3.6-3.8 6.7-2.5l.9.4c1.3-.3 4.3-1.1 6.7-1.8s9.2-1.8 9.4-1.8 1.8.2 3.5.5 1.1 5.3 1.1 5.4c1.3.7 2.7 1.4 4.1 2 2.1 1 9.1 3.9 10.7 4.4l.5-2.6.4-2.1c2.2.2 4.3.7 6.4 1.3 2.7.8 5.4 1.2 8.2 1.3l1.4.1.9.1c.9.6 2.6 2.9 3.8 5.3s5.3 10.5 6.3 13l1 2.1 2.3 4.5c3.4 4.5 7.2 9 8.5 9.9s6.4-.2 7.5-.5c1.2-.4 2.7-.6 4.3-.8zm-214.1 24.7c.8-1.2 1-2.8.6-4.2-.5-1.3 2.3-5.5 3.4-7.3s.8-6.8.7-7.4-.2-2.5.3-2.3 2.3-.5 3.9-1.7 7.2-2.9 9.7-1.7 9.5 1.1 9.7 1.1c2 .8 3.9 1.7 5.8 2.8l1.7 2.1 1.6 1.9c2.4.4 4.8.9 7.1 1.7 1.9.6 4.4 4.1 4.5 4.5.3.8.4 1.5.5 2.3 0 .6 1.8 2.1 3.8 2.3s7.8 4 9.8 4.2 6.7 2.9 7 3.1 2.1 1.3 3.3 2.1-.1 5.5-.9 6.6-3 4.9-3.4 5.7-.9 5.6-1.2 8.9l-1.4 2.8-.5.9c-.5 1-1 1.9-1.6 2.8-.4.5-3.2 1.6-4.5 2.1-2.1.9-4 2.1-5.8 3.5l.1.7c.6 3.8-1.9 6.3-3.5 9.2l-1.1 2c-1.3 1.8-2.8 3.4-4.5 4.8-.9.6-5.7 0-5.3.4.9 1.2 1.6 2.5 2.2 3.9.5 1.4-3.1 3.7-3.9 3.9s-2.8 1.7-2.9 3.1l-.7.9-.5.6c-1.6.3-2.6 1-2.3 1.4l.5.2 1.7.6c-.6 1.1-1.5 2.7-1.9 3.5l-.3.8-.3.8c-.5 1-1.1 1.9-1.9 2.8-.6.7 1.6 2.8 1.8 2.9s-.3 2-1.7 3.9-.3 8.2-1 9l-.5.7-.5.7c-.3.7-1.2 1.1-1.9.8h-.1c-1.2-1-2.2-2.2-3.1-3.5l-.4-.8-1.4-2.5c.1-3 .1-5.7.1-5.8s-.3-2.3-.5-4.3-.9-7.7-.9-8c-.2-.8-.5-1.5-.8-2.3-.7-3.1-1.1-6.2-1.1-9.3l.6-3.1.3-1.7c-.1-2-.3-6.1-.4-9.3s.1-13.5-.3-16-6.3-7.6-7.2-8.4-3.8-5.1-4.9-7-6.4-11.4-5.6-12.4zm65.8-150.3c-1.2-.6-2.1-1.4-2.1-1.6s.6-2.4.9-4.5-1.4-9.1-3.2-11l-2.2.2-.9.1c-.6-.2-1.3-.3-2-.3-.9.1-1.9-.2-2.6-.7l1.2-1.6.2-.3c-.6-1.2-.4-2.1.6-2.1s2.9 0 2-.4c-1.7-1.1-3-2.7-4-4.5l2-.5.4-.1h4.5s5.6-3.6 5.2-3.7c-.6 0-1.2-.1-1.7-.3.3-.9.8-1.6 1.5-2.3l1.1-.4c1.7-.6 3.4-1 5.1-1.3l.4-.1c.3-.2 2.2-1.3 4.1-2.4l1.9-.6 1.5-.5c1.5 1.1 2.9 2.2 3.2 2.3s1.3.3 1.5-.2 1.5-1.6 2.3-.8 3.1 2 3.4.8 3-4.8 5.2-4.8c4.3.1 8.6.4 12.9 1.1l1.3 2.7.4.8c1.2.5 1.3 1.6.1 2.4s-4.2 3-4.1 3.2 1 .1 1.7-.4 2.8-1.9 3-1.8 1.7 1.8 3.1 3.2l2.1-1.2 1.5-.9c1.5.9 1.5 3 0 4.6s-5.9 6.4-6.6 7.3.5 4.9.6 5.3 0 1.6-.6 1.7c-1.1.4-1.7 1.6-1.2 2.7.6 1.4-.5 6-1.2 6.9s-4.5.9-4.9.9-.8 1.5.4 3.3l.8 1.6.4.8c-.1 1.2-1.1 2.1-2.3 2.1l-.8-.5-1.7-1c-1.6-1.5-3.1-2.2-3.2-1.5s-.2 2.7.1 2.9-.8 2.5-3.7 4.8-12.5 6.4-13.2 6.8c-1.3 1.3-2.4 2.9-3.2 4.6-.7 1.5-2.9 5.8-3.2 6.4-1 1.4-2.3 2.7-3.6 3.8l-1.4-1.7-.2-.3-3.2-3c-1.5-1.4-3.3-7.6-3.4-9.3-.1-2.5-.1-5 0-7.4.2-.8 2.9-2.2 4.1-2.6s.9-6.1-.3-6.7zm271 169.1l1.2.8c1.5.4 3.1-.2 4-1.5 1-1.6 7.3-2.2 8-2.2s2.3 1 1.9 1.8-.8 3.9.3 4.8c1.7 1.2 3.4 2.3 5.3 3.3.7.2 2.1-3.6 2.6-6l.5-2.2.3-1.2c.8-1.2 1.5-1.9 1.7-1.3.3 1.1.5 2.3.6 3.5.1.9 2.6 2.6 3.1 3.3v.6l.2 5.2c3.3 4.2 7 9.1 8.2 10.9s1 9.4.5 11.5-4.1 8.5-5 10.1-3.7 6.5-4.3 7.4-3.8 2.1-4.5 2.5-2.8 1.1-3 .8c-1.4-.9-3-1.3-4.6-1.3-2.1 0-4.4-4.9-4.6-6.4s-1.3-5.4-2-4.7-3 2-3.2 1.2-1.2-3.4-1.6-4.2-4.4-1.4-6.5-1.3-8.4 2-9.7 2.8-6 1-6.7 1.5l-.7.1-1.7.3c-1.6.1-3.1 0-4.6-.5-.6-.4.5-2.6.8-3.1s.1-5-.3-8.9l-.7-3.4-.6-2.7c2.3-3.9 5.5-7.6 7-8.3s6.4-2.6 7.2-3.1 2.4-3.1 2.7-3.4c.7-.6 1.4-1.1 2.1-1.5 1.1-.8 2.1-1.6 3-2.5.9-1.1 2-2 3.1-2.7zM137.1 28.2c1.9-.1 3.3.4 3 1.2s-.1 3 1 2.9l.8-.3 1.9-.8c.9 1.2 1.8 2.5 2.6 3.8.2.4 1.8 2 2.8 3.2s3 5.1 2.6 5.4c-.8.9-.6 2.3.3 3.1 1.2 1.1 3.9 4.8 3 5.7s-3.8 2.4-4.4 1.5-2.2-3.2-2.5-2.8c-.6 1-.7 2.1-.4 3.2.7 1.5 1.2 3.1 1.5 4.7 0 .7-.5 2.2-1.1 2.1-.8-.3-1.7-.6-2.5-1-.2-.1-.8-.1-.5.7.3 1 .6 1.9.7 2.9-1.1-.2-2.2-.5-3.2-1-1.6-.7-4.3-6.6-5.1-8.4l-2.4.7c-.4.1-.8.1-1.2 0l-.7-.5c-.6-.7-.6-1.8.1-2.5.1 0 .1-.1.2-.1l.9-.1 1.3-.2c.8.2 1.7.3 2.6.3.3-.8.7-1.5 1.4-2l.6-.9c.8-1.2 1.8-2.5 1.8-3.8l.1-1.7c-1.4-.4-2.8-1.6-2.9-2.5-.2-1.2-.5-2.4-.9-3.5-.6 0-1.2.2-1.6.6-.6.5-3.9.4-5.7 0S126 34 126.4 34s1.2-.4.8-.7-.3-2.2 1-3.8 6.9-1.2 6 .3-3.3 5.1-2.8 4.8 3.8-6.3 5.7-6.4zm-33.9-4.9c.5-.4.9-.1.8.7-.1.9-.2 1.9-.2 2.8.5-.4.9-.9 1.2-1.4.5-.9 3.1-2.6 4.1-1l-.3.6-1.4 3.1c1.2 3.5 1.2 6.3 0 6.3h-.7c-.5 0-1.1.1-1.6.3l-2.1 1.5c-1.4-1.2-5-1.4-8.1-.5l-2.9-.9c-.7-.2-1.1-1.2-1.7-1.8l-.9-1.2-.5-.7c-.5-.8-.6-1.5-.2-1.7s1.6-.7 1.8-.7.5-.4 0-.8-1.9-1.5-1.4-1.8 1.5-1.3 1.4-1.6c.2-1.3 1-2.4 2.3-2.8 1.8-.6 6.9-1.9 6.7-1.3-.2.7 0 1.5.6 2 .7.4 1.3.9 1.9 1.5-.3.2.7-.2 1.2-.6zm349.1 170.4c-.1.1-.3-.1-.5-.4s-.3-1.2 0-1.3.7-.8-.1-1.2c-.9-.5-1.8-1.1-2.6-1.7.3-.4.7-.8 1.2-.9 1 0 2 .3 2.8 1 .4.5 3 2 4.3 1.4l1.5-.5.6-.2c.8.1 2.7.7 4.2 1.1 2.6 1 5.1 2.3 7.6 3.7 1.2.8 4.6 3.8 4.6 4.7s1.8 3.1 2.3 3.6 1.8 1.9 1.7 2.1c-.7.2-1.4.2-2-.2-1.5-.8-3-1.7-4.4-2.7-1.1-.7-2.4-1.2-3.7-1.3-.9.3-1.8.7-2.6 1.2-.7.4-3.4.1-4.1-.2s-2.7-1.8-2.6-2.8-4-4-4.8-4.4c-1.1-.4-2.2-.8-3.4-1zm-34.4-1.3c-1.6-.5-2.9-1.5-3.8-2.9l-.4-1.2c-.3-1.2-.5-2.4-.4-3.6 0-.2 1.5-.1 2.2-.5l1.4-.8c1.6-1.2 3.1-2.4 4.6-3.8 1.1-1 4.6-3.6 5.3-3.2s1.9 2.1 1.4 2.7c-.5 1.1-.7 2.3-.6 3.6.2 1.9-.2 3.7-1 5.4-1 1.7-7.5 4.6-8.7 4.3zm-104.1 16.7c1-1.2 2.2-1.3 2.8-.1s-1 6.7-1.9 9.1-3.8 8.9-4.2 9.6-3 1.5-4.4 1.2l-.1-.5-.4-2c0-2 .2-4 .5-6 .3-1 .9-4.2 1.1-5.1s5.6-5 6.6-6.2zm-80.7-113c-2.8.4-4.8.4-4.5-.1s1.4-1.8 1.5-1.7.1.2-.3 0-1.3-1.4-.7-2c.8-.9 1.5-1.9 2-3 0-.7-.3-1.3-.7-1.8-.8-.8-1.4-1.6-2-2.5-.4-1.6-.5-3.2-.5-4.8.1-1.2 3.2-2.1 3.1-1.7 0 .7.5 1.4 1.1 1.6.9.3 1.3 5.1 2.8 7.9l1.3 2.4c.1.2.3.7.4.7 1.4.1 1.7.8 1.2 1.9s0 2.9-2.3 3zM390.8 179c-.5-.6.2-1 1.5-.9s4.8 2.8 5.9 3.7 4.9 4.5 6.1 5.6 3.6 5.3 3.6 6.2-3.1 2.2-4.6 1.2-5-6.9-6-8.6-6.1-6.6-6.5-7.2zm65.7-61.1c.3 1.1-.2 2.3-1.2 2.9-1.5.8-2.9 1.7-4.2 2.6-.3.4-1.6 1.5-1.9 1.1v-.3c.1-2.4-1.2-1.9-2.6-1.3l-1.2.6c-1.5.4-2.3 0-1.8-1s3.9-2.4 4.8-2.6 2-3.5 2.7-3.3 1.7-3.1 1.8-5.2l.2-1.9.1-1.2c.3-1.6 1.3-1.6 2.3-.1s.8 8.6 1 9.7zM206.7 63.7c-.5-.1-.9-.4-1-.9s-.4-2.1 0-2.3 1.5-1.3.9-1.4-1-.6-1-1.2c0-.2.1-.3.2-.5.6-.8 4.3.5 5.8.3s5.4-.5 5.4-.1.3 2.4.4 4.4l-1.6 1.1-2.4 1.6c-3.1-.5-6.3-1-6.7-1zm295.5 208.1c.2-.2.5.5.7 1.5s-1.5 5.2-2.6 6.9-4.9 6.2-5.5 6.9-3.4-.6-4.1-1.2 1.4-4 1.9-4.4 3.3-2.3 4.9-3.4 4.5-6.2 4.7-6.3zm3.4-15.3c.2 0 .5.9.9 2s1.5 4.3 1.8 3.9c.4-.5 1.2-.6 1.7-.2.1 0 .1.1.2.2.5.7 1.9 1.5.7 4s-6.5 6.6-6.7 5 1.4-6.5 1.4-7.5-.1-4.2-.2-4.8c-.2-.9-.1-1.8.2-2.6zm-355-155c-1.2-.5-1.4-2.3-.5-3.9s5.4-4.5 5.1-3.6-.2 3.4.7 3.7 2 3.5 1.9 4.7l-.5.9-.2.4c-2.2-.7-4.4-1.4-6.5-2.2zm76.2-9.3c-2.8 1-5.3 1.3-5.5.7v-1.4c.1-.8.3-1.5.5-2.3.3-.6.6-1.1 1-1.6 1-.8 2.1-1.5 3.3-2.1l1.1.7.8.6c-.6 1.1-1.1 2.3-1.2 2.6zm532.1 8.3c.4-.2.9-.3 1.4-.2.7 0 2.7-.3 2.7-.7 0-.5.1-1 .2-1.4h1.8c.8 0 3.5-1.8 4.3-2.5l.7-.8.7-.8c.9-1.1 2-2 3.2-2.8 1-.6 3.7-2.1 3.9-2.2.4-.4.5-1.1.2-1.6-.4-1.5-.5-3.1-.4-4.6l.6-.4.7-.5c1.4 0 2.3.5 2 1.2-.4 1.7-.4 3.6 0 5.3l1.8-.2 1.2-.1c2 0 4-.1 6-.5 1.5-.4 5.7-2.5 5.3-3.8s2.2-4 2.4-3.7c.3.3 1.6.7 2.2.2s-.7-3-.6-3.8 3-1.8 3.9-1.9 3.4-.9 3-1.3c-1.2-.5-2.5-.5-3.7 0l-1.2.2-1.6.3c-1.9-.5-3.5-1.9-4.4-3.7-.6-1.6 1.4-6 1.9-6.8.6-.8 1.3-4 .1-5.1l-1.4.4-.7.2c-.5 1.5-1.1 3-1.9 4.4-.6 1.1-2.9 4.7-3.4 6s1.4 4.7 1.7 5.3-1 2.3-1.5 3-2.1 5.2-3.5 7.9l-1.1.1h-.4c-.8-1.2-1.4-2.5-1.9-3.9-.5-1.6-2.5-5.8-2.9-5.2-1.2 1-2.6 1.9-4.1 2.4l-1.2-.1c-1.3-.1-1.3-1.2-.9-2.4.2-.6-.3-1.7-.7-2.4l-1.3-2.4c3.2-3.2 6.6-6.2 10.2-9l.9-5.3.2-1.1c1.3-1.5 2.7-2.8 4.2-4.2l.2-1.9c0-.3.7-.6 1.1-.8 2.4-1.1 4.7-2.7 7.2-3.2l2.7-.6c3.2.7 5.7 1.4 5.4 1.6s-.1.9 1.4 1.1c2.6.5 5.1 1.1 7.7 1.9 1.5.5 5.7 2.9 6.1 3.8.4.8-1.7 2.4-2.4 2.6-1.4 0-2.8-.1-4.1-.4-1-.3-2.9-.2-2.5.8s2.2 4.1 2.8 5.1c.5 1 3.4.7 2.9.1-.6-.6-1.1-1.4-1.6-2.1.6-.2 1.2-.1 1.8.1.8.3 3.4-.4 3.7-2.1s3.6-3.2 3.3-4.2-.6-4 .2-3.7 2.8 1.2 2.5 1.5c-.5.5-.6 1.4-.1 2 .6.6 3.9-2 5.2-3.2l1.3-1 .5-.4c.8-.4 1.5-.4 1.7-.1.5.5 1.3.7 2 .4 1.4-.6 2.9-1 4.4-1.1l.8.1c.3 0 .8.1 1-.1l.3-.3c.1-.5 0-1-.1-1.4-.2-.3.9-1.2 3.2-1s7.8 2 7.9 1.9c-.1-.7-.5-1.4-1.1-1.9l-.9-.5-1-.6c-.3-.8-.7-1.6-1.2-2.3-.5-.9-.7-2-.6-3 .2-1.1 1.8-4.3 2.8-4.5 1.1-.2 3.5 2.9 3.9 2.7s1.9-.6 2.2-.3c.7.3 1.6 0 1.9-.7 0-.1 0-.1.1-.2.3-1.1 3.9-1.3 4.6-1.1s1.8.1.4-.3c-1.3-.3-2.3-4.3-1-4.8s4.3-2 3.9-2.2c-.3-.2.1-2.8 1.9-4.9 1.8-2.2 9.2-5.6 8.8-7s-.7-5.3-.3-5.9h.3c.7 0 1.3.2 1.9.6l-.5 2.2c1.2 0 2.3.1 3.5.4 1.1.1 2.1 0 3.1-.3 2.6-.3 5.2-.2 7.7.2 1.5.4 1.8 6.3.6 8.2l-1.1 1.8-.6 1c-.5.7-.8 1.4-.9 2.2 1-.2 1.9-.7 2.7-1.3 1.2-.9 5.4-3.5 6.2-3.6 1.6-.2 3.2-.6 4.7-1.2.8-.4 3 1.6 3.5 1.8l.4-.2 1.2-.5c1.1-.6 2-1.5 1.9-2.1s.9-1.8 2.5-1.8c1.5 0 5.2.6 5 1.2s0 2.5.8 2.6c1.6.4 3.2.9 4.7 1.5l1.1.4.8.3c1.2.3 2-.1 1.8-.8-.2-.8.8-2.3 2.5-2.7s6-2 5.4-2.4-2-1.7-2-2.2 3.1-2.2 6.7-2.7l3.3-.1h1.8c2 .6 4.8 1.6 6.1 2.2s7.3-2.1 9.8-3.2l3 2 1.3.9c1.3.7 4.4.6 6.9-.4s9.4-.2 9.4-.3c-.3-.6-.7-1.2-1.2-1.6-.7-.7-1.4-2.6-.1-3.1s7.2-1.1 10.7-1l3 .4c2.5.4 5 1 7.4 1.8l1.4.4c1.2.7 2.4 1.3 3.7 1.9.6.2 2.7-.6 3.8-.6s4.3 1.9 5.2 3.3l-.4 1-.9 2.4c1.5 1.6 2.3 3.3 1.7 3.8l-.2-.1-2-.8c-1.9-.8-3.8-1.8-5.6-2.8l-.4.2-2 1.2c-1.6-1.4-2.6-1.6-2.2-.4s.8 4.7.1 4.7-2 .7-.7 1.2c2 1 3.8 2.3 5.5 3.8 1 1.1 1.9 2.2 2.7 3.4-.3.2-.8.3-1.2.2s-2.5 1.4-3.8 3.5-3.4 8.1-4.5 7.6-3.7 2.8-3.8 2.6c-.2-.2-1.1-.2-1.9.1l-.5.5-.4.4c-.2.9-.4 1.7-.3 2.6.2 1.1.5 2.1 1 3.1.5.5 1 1 1.5 1.4.3.4.6.8.7 1.3.3.9.8 1.7 1.3 2.4.3.4.7 1.7.5 1.7s-1.1.3-.8 1c.6 1.5 1 3 1.4 4.5l-.4.3-1.8 1.5c.6.9 1 1.9 1.3 3-.5.7-.7 1.5-.8 2.4-.2 1.6-.5 3.2-1 4.8-1.2-1.7-2.3-3.5-3.2-5.4-1.6-2.9-5.3-11.7-5.2-12.7.2-1.7.4-3.4.8-5.1.2-.8 1-3.9 1.4-5.2.4-2 .6-4.1.5-6.1-.2-.9-1.3-2.9-2-1.7s-2.8 4-3 3.3c-.8-1.1-2.2-1.4-3.4-.8-1.4.8-2.1 7.8-2.2 8.8-.2 1-2.7 1.9-2.7 1.6-.1-.7-.6-1.3-1.3-1.5-.9-.2-4.3 1.9-5.9 2.3l-1.5.1c-2.1 0-4 1.3-4.5 3.3-1.5 3.8-1.7 8-3.9 11.6-.7.9-.5 2.1.4 2.8.4.3.8.4 1.3.4 1.3-.1 2.6-.3 3.9-.9l1.1-.4c2.2 1.9 3.8 4.3 4.8 7.1.8 2.4 1.6 10.9 1.3 13.6s-3.7 9.9-4.3 10.4c-.7.6-4 .4-4.8 1.2l-.2.9-.6 2.3c-.9 1.5-1.5 3.2-2 4.9.3.7.8 1.4 1.3 2 1.1 1.4 2.1 3 2.9 4.6.7 1.5-3.3 2.9-3.2.9.2-2-4.6-4.7-4.6-5.3s-.9-2.6-2.1-2.2-4 .8-4 .1-.6-1.9-1.3-.6c-.7 1.2-4.2 3-3.8 3.7.9 1.1 2 1.9 3.3 2.5l.2-.3 1.4-2.1c1.6.9 2.2 2.4 1.4 3.4-.8.9-2 4.9-.7 6.4 2 3.2 3.6 6.6 4.8 10.2l-1.9 1.9-.5.5c-.5 1.7-1.1 3.4-1.8 5-.8 1.8-6.4 4.9-7.4 5.3-1.5.6-2.9 1.3-4.2 2.1-.3.3-1.4.7-1.9.3s-1.8-1.3-2.1-1.3l-.1.1-4.9 3.5 5.5 6.6c1.2 2.2 2.2 4.7 2.7 7.2l-2.6 1.8-1.5 1.1c-1.5 1.2-3.8 1-5-.6-1.3-1.6-6.8-3-7.6-.6l.4 1.8c.6 2.1 1.9 4 3.7 5.3l3.1 2.2c.6 3.4 1.1 6.4 1 6.5-.6.1-1.3-.1-1.7-.5-1.1-.9-2.2-1.9-3.2-2.9-.5-1.2-.8-2.4-1.1-3.6s-2.5-3.9-3-4.5c-.4-.6-.9-4.2-1.4-6.5s-2-8.2-2.4-8.1l-.1.1-.9.6c-1 .7-2 .8-2.2.2s-1.2-3-1.7-4.1l-.6-1-1.1-1.7c-1.3-1.8-2.5-3.6-2.9-4s-1.6-1.5-1.6-.9c-.1.6-.8 2-1.6 2.1s-3 .4-3.2.5c-1.3 1.2-2.5 2.5-3.6 3.9-1.7 1.9-6.7 6.9-6.9 7.4-.2 1.5-.4 3.1-.4 4.6-.1 1.7-2.5 6.2-3 6.6s-3.5-3.4-5.8-7-5.1-14.7-6.3-14.3-3.3-2.1-3.1-2.2.7-.6.6-.7c-.6-.3-1.1-.6-1.8-.8-.9-.3-3.3-2.2-4.6-2.7s-7.5-1.3-10.7-1.5l-2.9-.4c-.6-.1-1-1-1.5-1.3l-.5-.3c-.9-.1-1.9-.1-2.8 0s-3.7-1.4-4.7-2.3-4.3-3.2-4.7-3-1 2.2.1 3.8 5.5 6 6.8 6.3l1.1-.2 1.1-.2c.8-.5 1.8-.6 2.7-.2 1.8.7 3.6 1.2 5.4 1.6l.2 1.5c.1 1.2-1.1 2.5-1.7 3.7l-.5.9c-.8 1.3-1.8 2.4-2.8 3.5-.9 1-4.9 2.7-5.5 3.2-1.6 1-3.3 1.8-5 2.5-2.9 1-5.9 1.9-8.9 2.5l-1.1-2.4-1.3-2.7c-1.5-2.9-3.5-6.3-4.3-7.5s-3.2-6-4.1-7.4c-1.3-1.9-2.9-3.7-4.6-5.4-.9-.7-1.7-1.6-2.3-2.7-.4-1.9-.1-3.9.8-5.7 1-1.8 1.7-7.3 1.6-7.4-1-.3-2-.5-3-.6-1.5-.2-6.7.5-8.4 0s-3-4.3-3.2-4.9-1.5-2.1-2.3-1.8-3.1 1.4-2.8 2.1.8 2.7.6 3.2-1.8 1.9-2.9 1.9l-.2-1.7c-.1-.7-.8-1.4-1-2.1l-.6-1.7c-1.2-2.1-2.5-4.2-4-6.1l-1.5-.8-1.6-.9c-1.2-1.4-2.5-2.8-2.8-3.1s-2.2-.7-2.8.1l.2.3 1 1.9c1.1 1.7 2.5 3.2 4.1 4.5.9.6 2.7 2.2 2.5 2.6-.3.8-.5 1.6-.7 2.4-.1.5-1.4.8-2.1-.5-.7-1.4-4.5-4.4-5.6-5s-3-3.7-3.4-3.9c-.7-.2-1.5-.2-2.2.1-.9.4-1.8.7-2.8 1-1.7.1-3.4 0-5.1-.4l.3 2.5.1.6c-.9.7-2.3 1.7-3.1 2.3s-2.3 3.9-2.9 5.1-4 2.8-4.6 3-2.5.6-3 .7-2.3-1.3-2.9-1.4c-1.4-1-2.3-2.6-2.4-4.3 0-2.1 1.2-7.9 2.8-8.1s6.4-.3 7.4-.3c1-.1 1.6-4.9 1.1-7.2l-2.6-1.1-.7-.3c-1.1-.2-1.4-.8-1.5-1.4zM541.3 52.6c.5-1 .6-1.6 0-1.4-.5.2-2.1.3-2.2-.1-.2-.4-1-1.4-1.4-1.3s-1.5-.3-1.2-1-.6-3.3-2.7-4.2l1.1-2.6c.2-.4.3-.7.3-1.1-.3-4.1 3.3-5.1 5.7-7l.4-.3c1.6-.1 3.3-.5 4.8-1.2 1-.6 1.6-2.9.2-2.8l-1.2-.2-2.5-.4c-.1-1.5-.2-3.1-.4-4.6.1-1.1.9-1.9 1.9-2.2 1.4-.4 5.1-.9 5.5-.5.5.5 1 1 1.6 1.4.3-1 .4-2 .4-3 0-1.5 1-6.1 2.2-6.1l1.2-.2c1.1 0 2.2-.3 3.2-.8 2.8-1.9 6.2-2.8 9.6-2.5h.7c2.2 0 4.5.2 6.7.7l1.4 2.8c.1.3.2.7.5.8l2.5 1.4c3 1.6 5.9 3.5 8.6 5.5l1 1.8c1.1 1.9 1.9 3.2 4.3 2.4.5-.2 1.3.6 2 .7l.9.2c1.2.1 2.4 0 3.5-.2 1.5-.3 2.9-.8 4.3-1.4.5-.3 1.6-.6 1.6.1 0 .6.3 2.6.9 2.1s2.2-1.2 2.1-.8c.1 1 .8 1.8 1.7 2 1.1.1 3.9 2.2 4.4 2.5s2 1.4 2.4 1.7 1.5 1.6 1 1.8-1.8 1.1-1.3 1.2h.2l3.7.5c4.1.5 8.6 1 10.1 1.2l.7.7 2.4 2.6c3.1-.6 5.8-1.1 6-1 .4.2.7.7.6 1.2-.1.6.5 1.6 1.3 1.1 1.2-.8 2.3-1.7 3.2-2.8.2-.5-.3-2.8-1.7-4l2.4-1.5c1-.6 1.5-1.8 2.3-2.6s2-.7 2.2.4l.4 1.8c-.6 1.5-.9 3.1-1 4.7.1.8.6 2.8 1 2.5s1.2-.3.6.6c-.5.9 1.7 3.3 3 2.6s3.7-4.5 4.3-4.8l.3.2 1.2.6c1.3 1 1.8 2.4 1 3.1s-2.1 3.7-2.6 4c-1.5.7-3.1.9-4.7.6-1.5-.4-4.7 3.8-5.3 4.8-.6.9-4 2-4.6 2.2s-2.2.8-2.1 1-3.3 2.8-7.9 5.1l-1.4 4.9c-.2.6-.2 2 0 2.1 2.7.8 1.7 2.6 1.3 4.2l-.1.3c-.1.4 1 1 2.3 1.1s4.1 3.8 4.8 4.2c1.2.7 2.4 1.3 3.7 1.8.5.2 2.1 1.1 1.9 1.8-.4 1.3-.7 2.7-1 4-.1 1 1.7 3.5 2.3 3.7s1.8-1.4 2-2.1.4-3.4.5-4.3 4-4 6.2-5.8l-1.2-4.1c-.1-1 .3-2 .9-2.8l.8-1c.3-1.3.8-3.8 1.3-5.6l.5-1.7c.1-.3.6-.6.9-.7l1-.3c3.2 1.7 6.2 3.6 6.7 4.2.5.7 1.2 1.4 1.9 2 .2 0 .2.8-.2 1.8s-1.1 3.9-.5 4.1c.7.4 1.4.8 2.1 1.3.1.1 1-.3 1.8-1.3s4.6-1.1 6 2.7l-.5 3.7-.2 1.2c1.1 1.3 2.4 2.3 3.8 3 .8.2 1 2.8 1.1 3s1 1.3 1.5 2.1-2.4 3.4-4.3 4.5-9 1.1-10.3 1.1-3.5 1.8-2.8 2 2.4 1.4 2.2 1.8c-.4 1.2-.3 2.4.4 3.5.8 1.1 2.6 4 1.3 4.6s-4.6 1.7-4.1.9-1-1.8-4-.5-5.8 5.4-7.1 5.6l-1 .6c-1.3.8-2.4 1.8-3.4 2.9l-1 1c-1 1.5-2 2.4-2.1 1.9-.2-.5-.5-1-.8-1.5-.3 1-.4 1.9-.3 2.9l.2 1.4.3 1.6c-1 1.2-2.1 2.3-3.4 3.2-1.8 1.2-3.6 2.6-5.2 4.1-1.1 1.1-1.2 6-1.1 7 .2 1.4.1 2.8-.1 4.2-.6.6-1.5.8-2.3.4l-.2-.7-.5-1.5c-.2-1.7-.5-3.8-.7-4.6s-2.7-.9-3-.9-2.2-.6-4.1-1.2l-1.7.2-.5.1c-.3.4-.6.9-.8 1.4 0 .1-.3.4-.9.3s-3.3-.6-4.9-.6c-1.6-.1-6.7 2.3-8 3.4l.4 1.9.1.6c-.6 1.5-1.1 3.1-1.4 4.7-.4 1.8 2.5 7.4 4.5 8.7s7.4-2.8 8.6-4.2l1.3-.4c2-.6 2.7.4 1.9 2.3l-1 2.4c-1.4 2.8-1.7 5.1-.7 5.1 1.8.1 3.7.3 5.5.6 1.2.4 1.2 4.5 1.1 5.2 0 1.4.3 2.9 1 4.1.6.9 4.2 2.2 4.2 2.7s-1.7 1.6-3.3.7-6.2-4.6-6.8-6.1-4.8-3.5-6.3-3.9-5.1-3.2-5.8-3.5c-.6-.3-2.4-.1-3.4-.1-1 .1-4.7-1.2-6.3-1.9s-6.7-3.9-7.8-5.3v-3.6c-1.1-2.3-2.4-4.5-3.8-6.6-1.8-2.8-3.5-5.8-5-8.8l-.5-1.1-.5-1c-.7-1-1.5-1.8-1.7-1.8-.4.4-.6 1-.5 1.5.5 1.9 1.2 3.8 2 5.6s3 7 3.1 7.6c.3.8.4 1.7.4 2.5-1-.8-1.7-1.7-2.3-2.9-1-1.7-3.6-6.9-3.7-8.1l-.3-.9-.6-1.8c-.7-1.9-2-5.4-2.9-7.8l-2.3-1.5c-1.4-.9-1.8-3.4-2.5-5.2l-.5-1.2c-.3-1.3-.7-2.8-.9-3.2-.1-1.6-.1-3.2.2-4.8.2-1.8 1.7-8.3 2.4-10.4s2.8-7.8 3.3-7.4c.4.4 1.9 1.2 2 .5-.2-1.5-.7-2.9-1.4-4.2-.6-1-2.9-4.2-3.6-5.1l-.1-.9-.5-3.4c-.3-2.6-.4-5.1-.4-7.7.1-.4.2-1.7-.1-1.7s-.5-1.7-.2-3.7c.3-2.1-3.2-6.2-3.3-6.1-.6.2-1.2 0-1.7-.4l-.2-.6c-.3-1.8-1.4-3.4-2.9-4.5-.7-.4-1.4-.7-2.1-.8l-2.2-.4c-1.3-2.2-2.9-4.1-3.4-4.1s-1.6 1.9-1.9 2.4l-.4.2-1.9.8c-2.3.8-3.9.9-3.5.1s-.6-1.6-3.1-.2l-.7 1.9-.3.7c-.8.6-2.9 2-4.8 3.1-2.8 1.7-5.8 3.2-8.8 4.4-1 .3-3.8 0-3.5-.7l.5-.3 2.6-1.3c3.3-1.5 7.5-4.4 8-5.3z" opacity=".89"/><path d="M848.6 167.2c0 .8-.2 1.6-.5 2.3-2.6 5-5.4 9.8-8.7 14.4l-4.8 3.9-1 .8c-1.3 1.8-2.5 3.7-3.4 5.7-1 2 .6 9.8.6 10.6.1 1.9 0 3.9-.3 5.8-.3 1.6-4 4.6-4.4 4.9s-3.4 2.5-5.5 4.4l1.3 3.3.8 1.9c-1.2 1.3-2.5 2.6-3.9 3.6-.6.3-1.2 2.8-1.5 3.4-.6 1.2-1.3 2.4-2.2 3.5-.6.8-3.5 4.1-5.3 5.8-1.7 1.6-8.7 2.7-9.3 2.8-2.3.1-4.6-.1-6.9-.5l.3-2.8.1-1.1c-.6-1.3-2-4-3-5.9s-2.9-9.9-3.6-12.7l-1.2-2.3-2.5-4.6c1.9-4.5 3.8-8.8 4.2-9.6l-.1-.6-1.3-4.7c-2.4-4.7-5-9.4-5.7-10.4s.3-4.7.5-5.2c.1-1.1.1-2.3-.1-3.4-.3-.9-3.6-1.6-4.5-1.4s-4-2.8-5.6-3.6l-1.2.4-4.6 1.6c-5.2.5-10.5.8-11.8.8s-4.7-2-5.4-2.4l-3.2-2.1-.3-.4-1.4-2c-1.6-2.1-3.4-4.9-4.1-6.1s0-6.4.4-8-.8-6.5-.7-7.2c.6-1.7 1.4-3.2 2.4-4.7.9-1.3 3.5-5 3.7-5.2s1.5-1.2 2.4-1.9 3.5-4.8 4.7-6.7l1.1-1.7c.2-.3.7-.5.8-.9 1.3-3.3 3.6-3.8 6.7-2.5l.9.4c1.3-.3 4.3-1.1 6.7-1.8s9.2-1.8 9.3-1.8 1.8.2 3.5.5 1.1 5.3 1.1 5.4c1.3.7 2.7 1.4 4.1 2 2.2 1 9.1 3.9 10.7 4.4l.5-2.6.4-2.1c2.2.2 4.3.7 6.4 1.3 2.7.8 5.4 1.2 8.2 1.3l1.4.1.9.1c.9.6 2.6 2.9 3.8 5.3s5.3 10.5 6.3 13l1 2.1 2.3 4.5c3.4 4.5 7.2 9 8.5 9.9s6.4-.2 7.5-.5c1.4-.4 2.9-.6 4.5-.8zm-214.1 24.7c.8-1.2 1-2.8.5-4.2-.5-1.3 2.3-5.5 3.4-7.3s.8-6.8.7-7.4-.2-2.5.3-2.3 2.3-.5 3.9-1.7 7.2-2.9 9.7-1.7 9.5 1.1 9.7 1.1c2 .8 3.9 1.7 5.8 2.8l1.7 2.1 1.5 1.9c2.4.4 4.8.9 7.1 1.7 1.9.6 4.4 4.1 4.5 4.5.3.8.4 1.5.5 2.3 0 .6 1.8 2.1 3.8 2.3 2 .1 7.8 4 9.8 4.2s6.7 2.9 7 3.1 2.1 1.3 3.3 2.1c1.2.9-.1 5.5-.9 6.6s-3 4.9-3.4 5.7-.9 5.6-1.2 8.9l-1.3 2.8-.5.9c-.5 1-1 1.9-1.6 2.8-.4.5-3.2 1.6-4.5 2.1-2.1.9-4 2.1-5.8 3.5l.1.7c.6 3.8-1.9 6.3-3.5 9.2l-1.1 2c-1.3 1.8-2.8 3.4-4.5 4.8-1 .6-5.7 0-5.3.4.9 1.2 1.6 2.5 2.2 3.9.5 1.4-3.1 3.7-3.9 3.9s-2.8 1.7-2.9 3.1l-.7.9-.6.8c-1.6.3-2.6 1-2.3 1.4l.5.2 1.7.6c-.6 1.1-1.5 2.7-1.9 3.5l-.3.8-.3.8c-.5 1-1.1 1.9-1.8 2.8-.6.7 1.6 2.8 1.8 2.9s-.3 2-1.7 3.9-.3 8.2-1 9l-.5.7-.5.7c-.3.7-1.2 1.1-1.9.8h-.1c-1.2-1-2.2-2.2-3.1-3.5l-.5-.8-1.4-2.5c.1-3 .1-5.7.1-5.8s-.3-2.3-.5-4.3-.9-7.7-.9-8c-.2-.8-.5-1.5-.8-2.3-.7-3.1-1.1-6.2-1.1-9.3l.6-3.1.3-1.7c-.1-2-.3-6.1-.4-9.3s.1-13.5-.3-16-6.3-7.6-7.2-8.4-3.8-5.1-4.9-7c-.9-2.2-6.2-11.6-5.4-12.6zm65.8-150.3c-1.2-.6-2.2-1.4-2.1-1.6 0-.3.6-2.4.9-4.5s-1.4-9.1-3.2-11l-2.2.2-.9.1c-.6-.2-1.3-.3-2-.3-.9.1-1.9-.2-2.7-.7l1.2-1.6.2-.3c-.6-1.2-.4-2.1.6-2.1 1 .1 2.9 0 2-.4-1.7-1.1-3-2.7-4-4.5l2-.5.4-.1h4.5s5.6-3.6 5.2-3.7c-.6 0-1.2-.1-1.7-.3.3-.9.8-1.6 1.5-2.3l1.1-.4c1.7-.6 3.4-1 5.1-1.3l.4-.1c.3-.2 2.2-1.3 4.1-2.4l1.9-.6 1.5-.5c1.5 1.1 2.9 2.2 3.2 2.3s1.3.3 1.5-.2 1.5-1.6 2.3-.8 3.1 2 3.4.8 3-4.8 5.2-4.8c4.3.1 8.6.4 12.9 1.1l1.3 2.7.4.8c1.2.5 1.3 1.6.1 2.4s-4.2 3-4.1 3.2 1 .1 1.7-.4 2.8-1.9 3-1.8 1.7 1.8 3.1 3.2l2.1-1.2 1.5-.9c1.5.9 1.5 3 0 4.6s-5.9 6.4-6.6 7.3.5 4.9.6 5.3 0 1.6-.6 1.7c-1.1.4-1.7 1.6-1.2 2.7.6 1.4-.5 6-1.2 6.9s-4.5.9-4.9.9-.8 1.5.4 3.3l.8 1.6.4.8c-.1 1.2-1.1 2.1-2.3 2.1l-.8-.5-1.7-1c-1.6-1.5-3.1-2.2-3.2-1.5s-.2 2.7.1 2.9c.3.1-.8 2.5-3.7 4.8s-12.5 6.4-13.2 6.8c-1.3 1.3-2.4 2.9-3.2 4.6-.7 1.5-2.9 5.8-3.2 6.4-1 1.4-2.3 2.7-3.6 3.8l-1.4-1.7-.2-.3-3.2-3c-1.5-1.4-3.3-7.6-3.4-9.3-.1-2.5-.1-5 0-7.4.2-.8 2.9-2.2 4.1-2.6 1.1-.2 1-6.1-.2-6.7zm271 169.1l1.2.8c1.5.4 3.1-.2 4-1.5 1-1.6 7.3-2.2 8-2.2.7.1 2.3 1 1.9 1.8s-.8 3.9.3 4.8c1.7 1.2 3.4 2.3 5.3 3.3.7.2 2.1-3.6 2.6-6l.5-2.2.3-1.2c.8-1.2 1.5-1.9 1.7-1.3.3 1.1.5 2.3.6 3.5.1.9 2.6 2.6 3.1 3.3v.6l.2 5.2c3.3 4.2 7 9.1 8.2 10.9s1 9.4.5 11.5-4.1 8.5-5 10.1-3.7 6.5-4.3 7.4-3.8 2.1-4.5 2.5-2.8 1.1-3 .8c-1.4-.9-3-1.3-4.6-1.3-2.1 0-4.4-4.9-4.6-6.4-.2-1.6-1.3-5.4-2-4.7s-3 2-3.2 1.2-1.2-3.4-1.6-4.2-4.4-1.4-6.5-1.3c-2.2 0-8.4 2-9.7 2.8s-6 1-6.7 1.5l-.7.1-1.7.3c-1.6.1-3.1 0-4.6-.5-.6-.4.5-2.6.8-3.1s.1-5-.3-8.9l-.7-3.4-.6-2.7c2.3-3.9 5.5-7.6 7-8.3 1.5-.6 6.4-2.6 7.2-3.1s2.4-3.1 2.7-3.4c.7-.6 1.4-1.1 2.1-1.5 1.1-.8 2.1-1.6 3-2.5.9-1.1 2-2 3.1-2.7zM666.9 28.2c1.9-.1 3.3.4 3 1.2s-.1 3 1 2.9l.8-.3 1.9-.8c.9 1.2 1.8 2.5 2.5 3.8.2.4 1.8 2 2.8 3.2s3 5.1 2.5 5.4c-.8.9-.6 2.3.3 3.1 1.2 1.1 3.9 4.8 3 5.7s-3.8 2.4-4.4 1.5-2.2-3.2-2.5-2.8c-.6 1-.7 2.1-.4 3.2.7 1.5 1.2 3.1 1.5 4.7 0 .7-.5 2.2-1.1 2.1-.8-.3-1.7-.6-2.5-1-.2-.1-.8-.1-.5.7.3 1 .6 1.9.7 2.9-1.1-.2-2.2-.5-3.2-1-1.5-.7-4.3-6.6-5.1-8.4l-2.4.7c-.4.1-.8.1-1.2 0l-.7-.5c-.6-.7-.6-1.8.1-2.5.1 0 .1-.1.2-.1l.9-.1 1.3-.2c.8.2 1.7.3 2.6.3.3-.8.7-1.5 1.4-2l.6-.9c.8-1.2 1.8-2.5 1.8-3.8l.1-1.7c-1.4-.4-2.8-1.6-2.9-2.5-.2-1.2-.5-2.4-.9-3.5-.6 0-1.2.2-1.6.6-.6.5-3.9.4-5.7 0S655.6 34 656 34s1.2-.4.8-.7-.3-2.2 1-3.8 6.9-1.2 6 .3-3.3 5.1-2.8 4.8c.6-.4 4-6.3 5.9-6.4zM633 23.3c.5-.4.9-.1.8.7-.1.9-.2 1.9-.2 2.8.5-.4.9-.9 1.2-1.4.5-.9 3.1-2.6 4.1-1l-.3.6-1.4 3.1c1.2 3.5 1.2 6.3 0 6.3h-.7c-.5 0-1.1.1-1.5.3l-2.1 1.5c-1.4-1.2-5-1.4-8.1-.5l-2.9-.9c-.7-.2-1.1-1.2-1.7-1.8l-.9-1.2-.5-.7c-.5-.8-.6-1.5-.2-1.7s1.6-.7 1.8-.7.5-.4 0-.8-1.9-1.5-1.4-1.8 1.5-1.3 1.4-1.6c.2-1.3 1-2.4 2.3-2.8 1.8-.6 6.9-1.9 6.7-1.3-.2.7 0 1.5.6 2 .7.4 1.3.9 1.9 1.5-.4.2.6-.2 1.1-.6zm349.1 170.4c-.1.1-.3-.1-.5-.4s-.3-1.2 0-1.3.7-.8-.1-1.2c-.9-.5-1.8-1.1-2.6-1.7.3-.4.7-.8 1.2-.9 1 0 2 .3 2.8 1 .4.5 3 2 4.3 1.4l1.5-.5.6-.2c.8.1 2.7.7 4.2 1.1 2.6 1 5.1 2.3 7.6 3.7 1.2.8 4.6 3.8 4.6 4.7s1.8 3.1 2.3 3.6 1.8 1.9 1.7 2.1c-.7.2-1.4.2-2-.2-1.5-.8-3-1.7-4.4-2.7-1.1-.7-2.4-1.2-3.7-1.3-.9.3-1.8.7-2.6 1.2-.7.4-3.4.1-4.1-.2s-2.7-1.8-2.6-2.8-4-4-4.8-4.4c-1.1-.4-2.2-.8-3.4-1zm-34.4-1.3c-1.6-.5-2.9-1.5-3.8-2.9l-.4-1.2c-.3-1.2-.5-2.4-.4-3.6 0-.2 1.5-.1 2.2-.5l1.4-.8c1.6-1.2 3.1-2.4 4.6-3.8 1.1-1 4.7-3.6 5.3-3.2s1.9 2.1 1.4 2.7c-.5 1.1-.7 2.3-.6 3.6.2 1.9-.2 3.7-1 5.4-1 1.7-7.5 4.6-8.7 4.3zm-104.1 16.7c1-1.2 2.2-1.3 2.8-.1.5 1.2-1 6.7-1.9 9.1s-3.8 8.9-4.2 9.6c-.4.6-3 1.5-4.4 1.2l-.1-.5-.4-2c0-2 .2-4 .5-6 .3-1 .9-4.2 1.1-5.1s5.6-5 6.6-6.2zm-80.7-113c-2.8.4-4.8.4-4.5-.1s1.4-1.8 1.5-1.7.1.2-.3 0-1.3-1.4-.7-2c.8-.9 1.5-1.9 2-3 0-.7-.3-1.3-.7-1.8-.8-.8-1.4-1.6-2-2.5-.4-1.6-.5-3.2-.5-4.8.1-1.2 3.2-2.1 3.1-1.7 0 .7.5 1.4 1.1 1.6.9.3 1.3 5.1 2.8 7.9l1.3 2.4c.1.2.3.7.4.7 1.4.1 1.7.8 1.2 1.9s0 2.9-2.3 3zM920.6 179c-.5-.6.2-1 1.5-.9s4.8 2.8 5.9 3.7 4.9 4.5 6.1 5.6 3.6 5.3 3.7 6.2c0 1-3.1 2.2-4.6 1.2s-5-6.9-6-8.6-6.2-6.6-6.6-7.2zm65.7-61.1c.3 1.1-.2 2.3-1.2 2.9-1.5.8-2.9 1.7-4.2 2.6-.3.4-1.6 1.5-1.9 1.1v-.3c.1-2.4-1.2-1.9-2.6-1.3l-1.2.6c-1.5.4-2.3 0-1.8-1s3.9-2.4 4.8-2.6 2-3.5 2.7-3.3 1.7-3.1 1.8-5.2l.2-1.9.1-1.2c.3-1.6 1.3-1.6 2.3-.1 1 1.6.8 8.6 1 9.7zM736.5 63.7c-.5-.1-.9-.4-1-.9s-.4-2.1 0-2.3 1.5-1.3.9-1.4-1-.6-1-1.2c0-.2.1-.3.2-.5.6-.8 4.3.5 5.8.3s5.4-.5 5.4-.1c0 .3.3 2.4.4 4.4l-1.6 1.1-2.4 1.6c-3.1-.5-6.3-1-6.7-1zM1032 271.8c.2-.2.5.5.7 1.5s-1.5 5.2-2.6 6.9-4.9 6.2-5.5 6.9-3.4-.6-4.1-1.2 1.4-4 1.9-4.4 3.3-2.3 4.9-3.4 4.5-6.2 4.7-6.3zm3.4-15.3c.2 0 .6.9.9 2s1.5 4.3 1.8 3.9c.4-.5 1.2-.6 1.7-.2.1 0 .1.1.2.2.5.7 1.9 1.5.7 4s-6.5 6.6-6.7 5 1.4-6.5 1.4-7.5-.1-4.2-.2-4.8c-.2-.9-.1-1.8.2-2.6zm-355-155c-1.2-.5-1.4-2.3-.5-3.9s5.4-4.5 5.1-3.6-.2 3.4.7 3.7 2 3.5 1.9 4.7l-.5.9-.2.4c-2.2-.7-4.4-1.4-6.5-2.2zm76.2-9.3c-2.8 1-5.3 1.3-5.5.7v-1.4c.1-.8.3-1.5.5-2.3.3-.6.6-1.1 1-1.6 1-.8 2.1-1.5 3.3-2.1l1.1.7.8.6c-.6 1.1-1.1 2.3-1.2 2.6zm532.2 8.3c.4-.2.9-.3 1.4-.2.7 0 2.7-.3 2.7-.7 0-.5.1-1 .2-1.4h1.8c.8 0 3.5-1.8 4.3-2.5l.7-.8.7-.8c.9-1.1 2-2 3.2-2.8 1-.6 3.7-2.1 3.9-2.2.4-.4.5-1.1.2-1.6-.4-1.5-.5-3.1-.4-4.6l.6-.4.7-.5c1.4 0 2.3.5 2 1.2-.4 1.7-.4 3.6 0 5.3l1.8-.2 1.2-.1c2 0 4-.1 6-.5 1.5-.4 5.7-2.5 5.3-3.8s2.2-4 2.4-3.7c.3.3 1.6.7 2.2.2s-.7-3-.6-3.8 3-1.8 3.9-1.9 3.4-.9 3-1.3c-1.2-.5-2.5-.5-3.7 0l-1.2.2-1.6.3c-1.9-.5-3.5-1.9-4.4-3.7-.6-1.6 1.4-6 1.9-6.8.6-.8 1.3-4 .1-5.1l-1.4.4-.7.2c-.5 1.5-1.1 3-1.9 4.4-.6 1.1-2.9 4.7-3.4 6s1.4 4.7 1.7 5.3-1 2.3-1.5 3-2.1 5.2-3.5 7.9l-1.1.1h-.4c-.8-1.2-1.4-2.5-1.9-3.9-.5-1.6-2.5-5.8-2.9-5.2-1.2 1-2.6 1.9-4.1 2.4l-1.2-.1c-1.3-.1-1.3-1.2-.9-2.4.2-.6-.3-1.7-.7-2.4l-1.3-2.4c3.2-3.2 6.6-6.2 10.2-9l.9-5.3.2-1.1c1.3-1.5 2.7-2.8 4.2-4.2l.2-1.9c0-.3.7-.6 1.1-.8 2.4-1.1 4.7-2.7 7.2-3.2l2.7-.6c3.2.7 5.7 1.4 5.4 1.6s-.1.9 1.4 1.1c2.6.5 5.1 1.1 7.7 1.9 1.5.5 5.7 2.9 6.1 3.8.4.8-1.7 2.4-2.4 2.6-1.4 0-2.8-.1-4.1-.4-1-.3-2.9-.2-2.5.8s2.2 4.1 2.8 5.1c.5 1 3.4.7 2.9.1-.6-.6-1.1-1.4-1.6-2.1.6-.2 1.2-.1 1.8.1.8.3 3.4-.4 3.7-2.1s3.6-3.2 3.3-4.2-.6-4 .2-3.7 2.8 1.2 2.5 1.5c-.5.5-.6 1.4-.1 2 .6.6 3.9-2 5.2-3.2l1.3-1 .5-.4c.8-.4 1.5-.4 1.7-.1.5.5 1.3.7 2 .4 1.4-.6 2.9-1 4.4-1.1l.8.1c.3 0 .8.1 1-.1l.3-.3c.1-.5 0-1-.1-1.4-.2-.3.9-1.2 3.2-1s7.8 2 7.9 1.9c-.1-.7-.5-1.4-1.1-1.9l-.9-.5-1-.6c-.3-.8-.7-1.6-1.2-2.3-.5-.9-.7-2-.6-3 .2-1.1 1.8-4.3 2.8-4.5 1.1-.2 3.5 2.9 3.9 2.7s1.9-.6 2.2-.3c.7.3 1.6 0 1.9-.7 0-.1 0-.1.1-.2.3-1.1 3.9-1.3 4.6-1.1s1.8.1.4-.3c-1.3-.3-2.3-4.3-1-4.8s4.3-2 3.9-2.2c-.3-.2.1-2.8 1.9-4.9 1.8-2.2 9.2-5.6 8.8-7s-.7-5.3-.3-5.9h.3c.7 0 1.3.2 1.9.6l-.5 2.2c1.2 0 2.3.1 3.5.4 1.1.1 2.1 0 3.1-.3 2.6-.3 5.2-.2 7.7.2 1.5.4 1.8 6.3.6 8.2l-1.1 1.8-.6 1c-.5.7-.8 1.4-.9 2.2 1-.2 1.9-.7 2.7-1.3 1.2-.9 5.4-3.5 6.2-3.6 1.6-.2 3.2-.6 4.7-1.2.8-.4 3 1.6 3.5 1.8l.4-.2 1.2-.5c1.1-.6 2-1.5 1.9-2.1s.9-1.8 2.5-1.8c1.5 0 5.2.6 5 1.2s0 2.5.8 2.6c1.6.4 3.2.9 4.7 1.5l1.1.4.8.3c1.2.3 2-.1 1.8-.8-.2-.8.8-2.3 2.5-2.7s6-2 5.4-2.4-2-1.7-2-2.2 3.1-2.2 6.7-2.7l3.3-.1h1.8c2 .6 4.8 1.6 6.1 2.2s7.3-2.1 9.8-3.2l3 2 1.3.9c1.3.7 4.4.6 6.9-.4s9.4-.2 9.4-.3c-.3-.6-.7-1.2-1.2-1.6-.7-.7-1.4-2.6-.1-3.1s7.2-1.1 10.7-1l3 .4c2.5.4 5 1 7.4 1.8l1.4.4c1.2.7 2.4 1.3 3.7 1.9.6.2 2.7-.6 3.8-.6s4.3 1.9 5.2 3.3l-.4 1-.9 2.4c1.5 1.6 2.3 3.3 1.7 3.8l-.2-.1-2-.8c-1.9-.8-3.8-1.8-5.6-2.8l-.4.2-2 1.2c-1.6-1.4-2.6-1.6-2.2-.4s.8 4.7.1 4.7-2 .7-.7 1.2c2 1 3.8 2.3 5.5 3.8 1 1.1 1.9 2.2 2.7 3.4-.3.2-.8.3-1.2.2s-2.5 1.4-3.8 3.5-3.4 8.1-4.5 7.6-3.7 2.8-3.8 2.6c-.2-.2-1.1-.2-1.9.1l-.5.5-.4.4c-.2.9-.4 1.7-.3 2.6.2 1.1.5 2.1 1 3.1.5.5 1 1 1.5 1.4.3.4.6.8.7 1.3.3.9.8 1.7 1.3 2.4.3.4.7 1.7.5 1.7s-1.1.3-.8 1c.6 1.5 1 3 1.4 4.5l-.4.3-1.8 1.5c.6.9 1 1.9 1.3 3-.5.7-.7 1.5-.8 2.4-.2 1.6-.5 3.2-1 4.8-1.2-1.7-2.3-3.5-3.2-5.4-1.6-2.9-5.3-11.7-5.2-12.7.2-1.7.4-3.4.8-5.1.2-.8 1-3.9 1.4-5.2.4-2 .6-4.1.5-6.1-.2-.9-1.3-2.9-2-1.7s-2.8 4-3 3.3c-.8-1.1-2.2-1.4-3.4-.8-1.4.8-2.1 7.8-2.2 8.8-.2 1-2.7 1.9-2.7 1.6-.1-.7-.6-1.3-1.3-1.5-.9-.2-4.3 1.9-5.9 2.3l-1.5.1c-2.1 0-4 1.3-4.5 3.3-1.5 3.8-1.7 8-3.9 11.6-.7.9-.5 2.1.4 2.8.4.3.8.4 1.3.4 1.3-.1 2.6-.3 3.9-.9l1.1-.4c2.2 1.9 3.8 4.3 4.8 7.1.8 2.4 1.6 10.9 1.3 13.6s-3.7 9.9-4.3 10.4c-.7.6-4 .4-4.8 1.2l-.2.9-.6 2.3c-.9 1.5-1.5 3.2-2 4.9.3.7.8 1.4 1.3 2 1.1 1.4 2.1 3 2.9 4.6.7 1.5-3.3 2.9-3.2.9.2-2-4.6-4.7-4.6-5.3s-.9-2.6-2.1-2.2-4 .8-4 .1-.6-1.9-1.3-.6c-.7 1.2-4.2 3-3.8 3.7.9 1.1 2 1.9 3.3 2.5l.2-.3 1.4-2.1c1.6.9 2.2 2.4 1.4 3.4-.8.9-2 4.9-.7 6.4 2 3.2 3.6 6.6 4.8 10.2l-1.9 1.9-.5.5c-.5 1.7-1.1 3.4-1.8 5-.8 1.8-6.4 4.9-7.4 5.3-1.5.6-2.9 1.3-4.2 2.1-.3.3-1.4.7-1.9.3s-1.8-1.3-2.1-1.3l-.1.1-4.9 3.5 5.5 6.6c1.2 2.2 2.2 4.7 2.7 7.2l-2.6 1.8-1.5 1.1c-1.5 1.2-3.8 1-5-.6-1.3-1.6-6.8-3-7.6-.6l.4 1.8c.6 2.1 1.9 4 3.7 5.3l3.1 2.2c.6 3.4 1.1 6.4 1 6.5-.6.1-1.3-.1-1.7-.5-1.1-.9-2.2-1.9-3.2-2.9-.5-1.2-.8-2.4-1.1-3.6s-2.5-3.9-3-4.5c-.4-.6-.9-4.2-1.4-6.5s-2-8.2-2.4-8.1l-.1.1-.9.6c-1 .7-2 .8-2.2.2s-1.2-3-1.7-4.1l-.6-1-1.1-1.7c-1.3-1.8-2.5-3.6-2.9-4s-1.6-1.5-1.6-.9c-.1.6-.8 2-1.6 2.1s-3 .4-3.2.5c-1.3 1.2-2.5 2.5-3.6 3.9-1.7 1.9-6.7 6.9-6.9 7.4-.2 1.5-.4 3.1-.4 4.6-.1 1.7-2.5 6.2-3 6.6s-3.5-3.4-5.8-7-5.1-14.7-6.3-14.3-3.3-2.1-3.1-2.2.7-.6.6-.7c-.6-.3-1.1-.6-1.8-.8-.9-.3-3.3-2.2-4.6-2.7s-7.5-1.3-10.7-1.5l-2.9-.4c-.6-.1-1-1-1.5-1.3l-.5-.3c-.9-.1-1.9-.1-2.8 0s-3.7-1.4-4.7-2.3-4.3-3.2-4.7-3-1 2.2.1 3.8 5.5 6 6.8 6.3l1.1-.2 1.1-.2c.8-.5 1.8-.6 2.7-.2 1.8.7 3.6 1.2 5.4 1.6l.2 1.5c.1 1.2-1.1 2.5-1.7 3.7l-.5.9c-.8 1.3-1.8 2.4-2.8 3.5-.9 1-4.9 2.7-5.5 3.2-1.6 1-3.3 1.8-5 2.5-2.9 1-5.9 1.9-8.9 2.5l-1.1-2.4-1.3-2.7c-1.5-2.9-3.5-6.3-4.3-7.5s-3.2-6-4.1-7.4c-1.3-1.9-2.9-3.7-4.6-5.4-.9-.7-1.7-1.6-2.3-2.7-.4-1.9-.1-3.9.8-5.7 1-1.8 1.7-7.3 1.6-7.4-1-.3-2-.5-3-.6-1.5-.2-6.7.5-8.4 0s-3-4.3-3.2-4.9-1.5-2.1-2.3-1.8-3.1 1.4-2.8 2.1.8 2.7.6 3.2-1.8 1.9-2.9 1.9l-.2-1.7c-.1-.7-.8-1.4-1-2.1l-.6-1.7c-1.2-2.1-2.5-4.2-4-6.1l-1.5-.8-1.6-.9c-1.2-1.4-2.5-2.8-2.8-3.1s-2.2-.7-2.8.1l.2.3 1 1.9c1.1 1.7 2.5 3.2 4.1 4.5.9.6 2.7 2.2 2.5 2.6-.3.8-.5 1.6-.7 2.4-.1.5-1.4.8-2.1-.5-.7-1.4-4.5-4.4-5.6-5s-3-3.7-3.4-3.9c-.7-.2-1.5-.2-2.2.1-.9.4-1.8.7-2.8 1-1.7.1-3.4 0-5.1-.4l.3 2.5.1.6c-.9.7-2.3 1.7-3.1 2.3s-2.3 3.9-2.9 5.1-4 2.8-4.6 3-2.5.6-3 .7-2.3-1.3-2.9-1.4c-1.4-1-2.3-2.6-2.4-4.3 0-2.1 1.2-7.9 2.8-8.1s6.4-.3 7.4-.3c1-.1 1.6-4.9 1.1-7.2l-2.6-1.1-.7-.3c-1.1-.2-1.4-.8-1.5-1.4zm-217.6-47.9c.5-1 .6-1.6 0-1.4-.5.2-2.1.3-2.2-.1-.2-.4-1-1.4-1.4-1.3s-1.5-.3-1.2-1-.6-3.3-2.7-4.2l1.1-2.6c.2-.4.3-.7.3-1.1-.3-4.1 3.3-5.1 5.7-7l.4-.3c1.6-.1 3.3-.5 4.8-1.2 1-.6 1.6-2.9.2-2.8l-1.2-.2-2.5-.4c-.1-1.5-.2-3.1-.4-4.6.1-1.1.9-1.9 1.9-2.2 1.4-.4 5.1-.9 5.5-.5.5.5 1 1 1.6 1.4.3-1 .4-2 .4-3 0-1.5 1-6.1 2.2-6.1l1.2-.2c1.1 0 2.2-.3 3.2-.8 2.8-1.9 6.2-2.8 9.6-2.5h.7c2.2 0 4.5.2 6.7.7l1.4 2.8c.1.3.2.7.5.8l2.5 1.4c3 1.6 5.9 3.5 8.6 5.5l1 1.8c1.1 1.9 1.9 3.2 4.3 2.4.5-.2 1.3.6 2 .7l.9.2c1.2.1 2.4 0 3.5-.2 1.5-.3 2.9-.8 4.3-1.4.5-.3 1.6-.6 1.6.1 0 .6.3 2.6.9 2.1s2.2-1.2 2.1-.8c.1 1 .8 1.8 1.7 2 1.1.1 3.9 2.2 4.4 2.5s2 1.4 2.4 1.7 1.5 1.6 1 1.8-1.8 1.1-1.3 1.2h.2l3.7.5c4.1.5 8.6 1 10.1 1.2l.7.7 2.4 2.6c3.1-.6 5.8-1.1 6-1 .4.2.7.7.6 1.2-.1.6.5 1.6 1.3 1.1 1.2-.8 2.3-1.7 3.2-2.8.2-.5-.3-2.8-1.7-4l2.4-1.5c1-.6 1.5-1.8 2.3-2.6s2-.7 2.2.4l.4 1.8c-.6 1.5-.9 3.1-1 4.7.1.8.6 2.8 1 2.5s1.2-.3.6.6c-.5.9 1.7 3.3 3 2.6s3.7-4.5 4.3-4.8l.3.2 1.2.6c1.3 1 1.8 2.4 1 3.1s-2.1 3.7-2.6 4c-1.5.7-3.1.9-4.7.6-1.5-.4-4.7 3.8-5.3 4.8-.6.9-4 2-4.6 2.2s-2.2.8-2.1 1-3.3 2.8-7.9 5.1l-1.4 4.9c-.2.6-.2 2 0 2.1 2.7.8 1.7 2.6 1.3 4.2l-.1.3c-.1.4 1 1 2.3 1.1s4.1 3.8 4.8 4.2c1.2.7 2.4 1.3 3.7 1.8.5.2 2.1 1.1 1.9 1.8-.4 1.3-.7 2.7-1 4-.1 1 1.7 3.5 2.3 3.7s1.8-1.4 2-2.1.4-3.4.5-4.3 4-4 6.2-5.8l-1.2-4.1c-.1-1 .3-2 .9-2.8l.8-1c.3-1.3.8-3.8 1.3-5.6l.5-1.7c.1-.3.6-.6.9-.7l1-.3c3.2 1.7 6.2 3.6 6.7 4.2.5.7 1.2 1.4 1.9 2 .2 0 .2.8-.2 1.8s-1.1 3.9-.5 4.1c.7.4 1.4.8 2.1 1.3.1.1 1-.3 1.8-1.3s4.6-1.1 6 2.7l-.5 3.7-.2 1.2c1.1 1.3 2.4 2.3 3.8 3 .8.2 1 2.8 1.1 3s1 1.3 1.5 2.1-2.4 3.4-4.3 4.5-9 1.1-10.3 1.1-3.5 1.8-2.8 2 2.4 1.4 2.2 1.8c-.4 1.2-.3 2.4.4 3.5.8 1.1 2.6 4 1.3 4.6s-4.6 1.7-4.1.9-1-1.8-4-.5-5.8 5.4-7.1 5.6l-1 .6c-1.3.8-2.4 1.8-3.4 2.9l-1 1c-1 1.5-2 2.4-2.1 1.9-.2-.5-.5-1-.8-1.5-.3 1-.4 1.9-.3 2.9l.2 1.4.3 1.6c-1 1.2-2.1 2.3-3.4 3.2-1.8 1.2-3.6 2.6-5.2 4.1-1.1 1.1-1.2 6-1.1 7 .2 1.4.1 2.8-.1 4.2-.6.6-1.5.8-2.3.4l-.2-.7-.5-1.5c-.2-1.7-.5-3.8-.7-4.6s-2.7-.9-3-.9-2.2-.6-4.1-1.2l-1.7.2-.5.1c-.3.4-.6.9-.8 1.4 0 .1-.3.4-.9.3s-3.3-.6-4.9-.6c-1.6-.1-6.7 2.3-8 3.4l.4 1.9.1.6c-.6 1.5-1.1 3.1-1.4 4.7-.4 1.8 2.5 7.4 4.5 8.7s7.4-2.8 8.6-4.2l1.3-.4c2-.6 2.7.4 1.9 2.3l-1 2.4c-1.4 2.8-1.7 5.1-.7 5.1 1.8.1 3.7.3 5.5.6 1.2.4 1.2 4.5 1.1 5.2 0 1.4.3 2.9 1 4.1.6.9 4.2 2.2 4.2 2.7s-1.7 1.6-3.3.7-6.2-4.6-6.8-6.1-4.8-3.5-6.3-3.9-5.1-3.2-5.8-3.5c-.6-.3-2.4-.1-3.4-.1-1 .1-4.7-1.2-6.3-1.9s-6.7-3.9-7.8-5.3v-3.6c-1.1-2.3-2.4-4.5-3.8-6.6-1.8-2.8-3.5-5.8-5-8.8l-.5-1.1-.5-1c-.7-1-1.5-1.8-1.7-1.8-.4.4-.6 1-.5 1.5.5 1.9 1.2 3.8 2 5.6s3 7 3.1 7.6c.3.8.4 1.7.4 2.5-1-.8-1.7-1.7-2.3-2.9-1-1.7-3.6-6.9-3.7-8.1l-.3-.9-.6-1.8c-.7-1.9-2-5.4-2.9-7.8l-2.3-1.5c-1.4-.9-1.8-3.4-2.5-5.2l-.5-1.2c-.3-1.3-.7-2.8-.9-3.2-.1-1.6-.1-3.2.2-4.8.2-1.8 1.7-8.3 2.4-10.4s2.8-7.8 3.3-7.4c.4.4 1.9 1.2 2 .5-.2-1.5-.7-2.9-1.4-4.2-.6-1-2.9-4.2-3.6-5.1l-.1-.9-.5-3.4c-.3-2.6-.4-5.1-.4-7.7.1-.4.2-1.7-.1-1.7s-.5-1.7-.2-3.7c.3-2.1-3.2-6.2-3.3-6.1-.6.2-1.2 0-1.7-.4l-.2-.6c-.3-1.8-1.4-3.4-2.9-4.5-.7-.4-1.4-.7-2.1-.8l-2.2-.4c-1.3-2.2-2.9-4.1-3.4-4.1s-1.6 1.9-1.9 2.4l-.4.2-1.9.8c-2.3.8-3.9.9-3.5.1s-.6-1.6-3.1-.2l-.7 1.9-.3.7c-.8.6-2.9 2-4.8 3.1-2.8 1.7-5.8 3.2-8.8 4.4-1 .3-3.8 0-3.5-.7l.5-.3 2.6-1.3c3.3-1.5 7.5-4.4 8-5.3z" opacity=".89"/><path d="M1378.5 167.2c0 .8-.2 1.6-.5 2.3-2.6 5-5.4 9.8-8.7 14.4l-4.8 3.9-1 .8c-1.3 1.8-2.5 3.7-3.4 5.7-1 2 .6 9.8.6 10.6.1 1.9 0 3.9-.3 5.8-.3 1.6-4 4.6-4.4 4.9s-3.4 2.5-5.5 4.4l1.3 3.3.8 1.9c-1.2 1.3-2.5 2.6-3.9 3.6-.6.3-1.2 2.8-1.5 3.4-.6 1.2-1.3 2.4-2.2 3.5-.6.8-3.5 4.1-5.3 5.8-1.7 1.6-8.7 2.7-9.3 2.8-2.3.1-4.6-.1-6.9-.5l.3-2.8.1-1.1c-.6-1.3-2-4-3-5.9s-2.9-9.9-3.6-12.7l-1.2-2.3-2.5-4.6c1.9-4.5 3.8-8.8 4.2-9.6l-.1-.6-1.3-4.7c-2.4-4.7-5-9.4-5.7-10.4s.3-4.7.5-5.2c.1-1.1.1-2.3-.1-3.4-.3-.9-3.6-1.6-4.5-1.4s-4-2.8-5.6-3.6l-1.2.4-4.6 1.6c-5.2.5-10.5.8-11.8.8s-4.7-2-5.4-2.4l-3.2-2.1-.3-.4-1.4-2c-1.6-2.1-3.4-4.9-4.1-6.1s0-6.4.4-8-.8-6.5-.7-7.2c.6-1.7 1.4-3.2 2.4-4.7.9-1.3 3.5-5 3.7-5.2s1.5-1.2 2.4-1.9 3.5-4.8 4.7-6.7l1.1-1.7c.2-.3.7-.5.8-.9 1.3-3.3 3.6-3.8 6.7-2.5l.9.4c1.3-.3 4.3-1.1 6.7-1.8s9.2-1.8 9.3-1.8 1.8.2 3.5.5 1.1 5.3 1.1 5.4c1.3.7 2.7 1.4 4.1 2 2.2 1 9.1 3.9 10.7 4.4l.5-2.6.4-2.1c2.2.2 4.3.7 6.4 1.3 2.7.8 5.4 1.2 8.2 1.3l1.4.1.9.1c.9.6 2.6 2.9 3.8 5.3s5.3 10.5 6.3 13l1 2.1 2.3 4.5c3.4 4.5 7.2 9 8.5 9.9s6.4-.2 7.5-.5c1.4-.4 2.9-.6 4.5-.8zm-214.1 24.7c.8-1.2 1-2.8.5-4.2-.5-1.3 2.3-5.5 3.4-7.3s.8-6.8.7-7.4-.2-2.5.3-2.3 2.3-.5 3.9-1.7 7.2-2.9 9.7-1.7 9.5 1.1 9.7 1.1c2 .8 3.9 1.7 5.8 2.8l1.7 2.1 1.5 1.9c2.4.4 4.8.9 7.1 1.7 1.9.6 4.4 4.1 4.5 4.5.3.8.4 1.5.5 2.3 0 .6 1.8 2.1 3.8 2.3 2 .1 7.8 4 9.8 4.2s6.7 2.9 7 3.1 2.1 1.3 3.3 2.1c1.2.9-.1 5.5-.9 6.6s-3 4.9-3.4 5.7-.9 5.6-1.2 8.9l-1.3 2.8-.5.9c-.5 1-1 1.9-1.6 2.8-.4.5-3.2 1.6-4.5 2.1-2.1.9-4 2.1-5.8 3.5l.1.7c.6 3.8-1.9 6.3-3.5 9.2l-1.1 2c-1.3 1.8-2.8 3.4-4.5 4.8-1 .6-5.7 0-5.3.4.9 1.2 1.6 2.5 2.2 3.9.5 1.4-3.1 3.7-3.9 3.9s-2.8 1.7-2.9 3.1l-.7.9-.6.8c-1.6.3-2.6 1-2.3 1.4l.5.2 1.7.6c-.6 1.1-1.5 2.7-1.9 3.5l-.3.8-.3.8c-.5 1-1.1 1.9-1.8 2.8-.6.7 1.6 2.8 1.8 2.9s-.3 2-1.7 3.9-.3 8.2-1 9l-.5.7-.5.7c-.3.7-1.2 1.1-1.9.8h-.1c-1.2-1-2.2-2.2-3.1-3.5l-.5-.8-1.4-2.5c.1-3 .1-5.7.1-5.8s-.3-2.3-.5-4.3-.9-7.7-.9-8c-.2-.8-.5-1.5-.8-2.3-.7-3.1-1.1-6.2-1.1-9.3l.6-3.1.3-1.7c-.1-2-.3-6.1-.4-9.3s.1-13.5-.3-16-6.3-7.6-7.2-8.4-3.8-5.1-4.9-7c-.9-2.2-6.2-11.6-5.4-12.6zm65.8-150.3c-1.2-.6-2.2-1.4-2.1-1.6 0-.3.6-2.4.9-4.5s-1.4-9.1-3.2-11l-2.2.2-.9.1c-.6-.2-1.3-.3-2-.3-.9.1-1.9-.2-2.7-.7l1.2-1.6.2-.3c-.6-1.2-.4-2.1.6-2.1 1 .1 2.9 0 2-.4-1.7-1.1-3-2.7-4-4.5l2-.5.4-.1h4.5s5.6-3.6 5.2-3.7c-.6 0-1.2-.1-1.7-.3.3-.9.8-1.6 1.5-2.3l1.1-.4c1.7-.6 3.4-1 5.1-1.3l.4-.1c.3-.2 2.2-1.3 4.1-2.4l1.9-.6 1.5-.5c1.5 1.1 2.9 2.2 3.2 2.3s1.3.3 1.5-.2 1.5-1.6 2.3-.8 3.1 2 3.4.8 3-4.8 5.2-4.8c4.3.1 8.6.4 12.9 1.1l1.3 2.7.4.8c1.2.5 1.3 1.6.1 2.4s-4.2 3-4.1 3.2 1 .1 1.7-.4 2.8-1.9 3-1.8 1.7 1.8 3.1 3.2l2.1-1.2 1.5-.9c1.5.9 1.5 3 0 4.6s-5.9 6.4-6.6 7.3.5 4.9.6 5.3 0 1.6-.6 1.7c-1.1.4-1.7 1.6-1.2 2.7.6 1.4-.5 6-1.2 6.9s-4.5.9-4.9.9-.8 1.5.4 3.3l.8 1.6.4.8c-.1 1.2-1.1 2.1-2.3 2.1l-.8-.5-1.7-1c-1.6-1.5-3.1-2.2-3.2-1.5s-.2 2.7.1 2.9c.3.1-.8 2.5-3.7 4.8s-12.5 6.4-13.2 6.8c-1.3 1.3-2.4 2.9-3.2 4.6-.7 1.5-2.9 5.8-3.2 6.4-1 1.4-2.3 2.7-3.6 3.8l-1.4-1.7-.2-.3-3.2-3c-1.5-1.4-3.3-7.6-3.4-9.3-.1-2.5-.1-5 0-7.4.2-.8 2.9-2.2 4.1-2.6 1.1-.2 1-6.1-.2-6.7zm271 169.1l1.2.8c1.5.4 3.1-.2 4-1.5 1-1.6 7.3-2.2 8-2.2.7.1 2.3 1 1.9 1.8s-.8 3.9.3 4.8c1.7 1.2 3.4 2.3 5.3 3.3.7.2 2.1-3.6 2.6-6l.5-2.2.3-1.2c.8-1.2 1.5-1.9 1.7-1.3.3 1.1.5 2.3.6 3.5.1.9 2.6 2.6 3.1 3.3v.6l.2 5.2c3.3 4.2 7 9.1 8.2 10.9s1 9.4.5 11.5-4.1 8.5-5 10.1-3.7 6.5-4.3 7.4-3.8 2.1-4.5 2.5-2.8 1.1-3 .8c-1.4-.9-3-1.3-4.6-1.3-2.1 0-4.4-4.9-4.6-6.4-.2-1.6-1.3-5.4-2-4.7s-3 2-3.2 1.2-1.2-3.4-1.6-4.2-4.4-1.4-6.5-1.3c-2.2 0-8.4 2-9.7 2.8s-6 1-6.7 1.5l-.7.1-1.7.3c-1.6.1-3.1 0-4.6-.5-.6-.4.5-2.6.8-3.1s.1-5-.3-8.9l-.7-3.4-.6-2.7c2.3-3.9 5.5-7.6 7-8.3 1.5-.6 6.4-2.6 7.2-3.1s2.4-3.1 2.7-3.4c.7-.6 1.4-1.1 2.1-1.5 1.1-.8 2.1-1.6 3-2.5.9-1.1 2-2 3.1-2.7zM1196.8 28.2c1.9-.1 3.3.4 3 1.2s-.1 3 1 2.9l.8-.3 1.9-.8c.9 1.2 1.8 2.5 2.5 3.8.2.4 1.8 2 2.8 3.2s3 5.1 2.5 5.4c-.8.9-.6 2.3.3 3.1 1.2 1.1 3.9 4.8 3 5.7s-3.8 2.4-4.4 1.5-2.2-3.2-2.5-2.8c-.6 1-.7 2.1-.4 3.2.7 1.5 1.2 3.1 1.5 4.7 0 .7-.5 2.2-1.1 2.1-.8-.3-1.7-.6-2.5-1-.2-.1-.8-.1-.5.7.3 1 .6 1.9.7 2.9-1.1-.2-2.2-.5-3.2-1-1.5-.7-4.3-6.6-5.1-8.4l-2.4.7c-.4.1-.8.1-1.2 0l-.7-.5c-.6-.7-.6-1.8.1-2.5.1 0 .1-.1.2-.1l.9-.1 1.3-.2c.8.2 1.7.3 2.6.3.3-.8.7-1.5 1.4-2l.6-.9c.8-1.2 1.8-2.5 1.8-3.8l.1-1.7c-1.4-.4-2.8-1.6-2.9-2.5-.2-1.2-.5-2.4-.9-3.5-.6 0-1.2.2-1.6.6-.6.5-3.9.4-5.7 0s-5.2-4.1-4.8-4.1 1.2-.4.8-.7-.3-2.2 1-3.8 6.9-1.2 6 .3-3.3 5.1-2.8 4.8c.6-.4 4-6.3 5.9-6.4zm-33.9-4.9c.5-.4.9-.1.8.7-.1.9-.2 1.9-.2 2.8.5-.4.9-.9 1.2-1.4.5-.9 3.1-2.6 4.1-1l-.3.6-1.4 3.1c1.2 3.5 1.2 6.3 0 6.3h-.7c-.5 0-1.1.1-1.5.3l-2.1 1.5c-1.4-1.2-5-1.4-8.1-.5l-2.9-.9c-.7-.2-1.1-1.2-1.7-1.8l-.9-1.2-.5-.7c-.5-.8-.6-1.5-.2-1.7s1.6-.7 1.8-.7.5-.4 0-.8-1.9-1.5-1.4-1.8 1.5-1.3 1.4-1.6c.2-1.3 1-2.4 2.3-2.8 1.8-.6 6.9-1.9 6.7-1.3-.2.7 0 1.5.6 2 .7.4 1.3.9 1.9 1.5-.4.2.6-.2 1.1-.6zM1512 193.7c-.1.1-.3-.1-.5-.4s-.3-1.2 0-1.3.7-.8-.1-1.2c-.9-.5-1.8-1.1-2.6-1.7.3-.4.7-.8 1.2-.9 1 0 2 .3 2.8 1 .4.5 3 2 4.3 1.4l1.5-.5.6-.2c.8.1 2.7.7 4.2 1.1 2.6 1 5.1 2.3 7.6 3.7 1.2.8 4.6 3.8 4.6 4.7s1.8 3.1 2.3 3.6 1.8 1.9 1.7 2.1c-.7.2-1.4.2-2-.2-1.5-.8-3-1.7-4.4-2.7-1.1-.7-2.4-1.2-3.7-1.3-.9.3-1.8.7-2.6 1.2-.7.4-3.4.1-4.1-.2s-2.7-1.8-2.6-2.8-4-4-4.8-4.4c-1.1-.4-2.2-.8-3.4-1zm-34.4-1.3c-1.6-.5-2.9-1.5-3.8-2.9l-.4-1.2c-.3-1.2-.5-2.4-.4-3.6 0-.2 1.5-.1 2.2-.5l1.4-.8c1.6-1.2 3.1-2.4 4.6-3.8 1.1-1 4.7-3.6 5.3-3.2s1.9 2.1 1.4 2.7c-.5 1.1-.7 2.3-.6 3.6.2 1.9-.2 3.7-1 5.4-1 1.7-7.5 4.6-8.7 4.3zm-104.1 16.7c1-1.2 2.2-1.3 2.8-.1.5 1.2-1 6.7-1.9 9.1s-3.8 8.9-4.2 9.6c-.4.6-3 1.5-4.4 1.2l-.1-.5-.4-2c0-2 .2-4 .5-6 .3-1 .9-4.2 1.1-5.1s5.6-5 6.6-6.2zm-80.7-113c-2.8.4-4.8.4-4.5-.1s1.4-1.8 1.5-1.7.1.2-.3 0-1.3-1.4-.7-2c.8-.9 1.5-1.9 2-3 0-.7-.3-1.3-.7-1.8-.8-.8-1.4-1.6-2-2.5-.4-1.6-.5-3.2-.5-4.8.1-1.2 3.2-2.1 3.1-1.7 0 .7.5 1.4 1.1 1.6.9.3 1.3 5.1 2.8 7.9l1.3 2.4c.1.2.3.7.4.7 1.4.1 1.7.8 1.2 1.9s0 2.9-2.3 3zm157.7 82.9c-.5-.6.2-1 1.5-.9s4.8 2.8 5.9 3.7 4.9 4.5 6.1 5.6 3.6 5.3 3.7 6.2c0 1-3.1 2.2-4.6 1.2s-5-6.9-6-8.6-6.2-6.6-6.6-7.2zm65.7-61.1c.3 1.1-.2 2.3-1.2 2.9-1.5.8-2.9 1.7-4.2 2.6-.3.4-1.6 1.5-1.9 1.1v-.3c.1-2.4-1.2-1.9-2.6-1.3l-1.2.6c-1.5.4-2.3 0-1.8-1s3.9-2.4 4.8-2.6 2-3.5 2.7-3.3 1.7-3.1 1.8-5.2l.2-1.9.1-1.2c.3-1.6 1.3-1.6 2.3-.1 1 1.6.8 8.6 1 9.7zm-249.8-54.2c-.5-.1-.9-.4-1-.9s-.4-2.1 0-2.3 1.5-1.3.9-1.4-1-.6-1-1.2c0-.2.1-.3.2-.5.6-.8 4.3.5 5.8.3s5.4-.5 5.4-.1c0 .3.3 2.4.4 4.4l-1.6 1.1-2.4 1.6c-3.1-.5-6.3-1-6.7-1zm295.5 208.1c.2-.2.5.5.7 1.5s-1.5 5.2-2.6 6.9-4.9 6.2-5.5 6.9-3.4-.6-4.1-1.2 1.4-4 1.9-4.4 3.3-2.3 4.9-3.4 4.5-6.2 4.7-6.3zm3.4-15.3c.2 0 .6.9.9 2s1.5 4.3 1.8 3.9c.4-.5 1.2-.6 1.7-.2.1 0 .1.1.2.2.5.7 1.9 1.5.7 4s-6.5 6.6-6.7 5 1.4-6.5 1.4-7.5-.1-4.2-.2-4.8c-.2-.9-.1-1.8.2-2.6zm-355-155c-1.2-.5-1.4-2.3-.5-3.9s5.4-4.5 5.1-3.6-.2 3.4.7 3.7 2 3.5 1.9 4.7l-.5.9-.2.4c-2.2-.7-4.4-1.4-6.5-2.2zm76.2-9.3c-2.8 1-5.3 1.3-5.5.7v-1.4c.1-.8.3-1.5.5-2.3.3-.6.6-1.1 1-1.6 1-.8 2.1-1.5 3.3-2.1l1.1.7.8.6c-.6 1.1-1.1 2.3-1.2 2.6z" opacity=".89"/></g></svg>