<svg id="cases" xmlns="http://www.w3.org/2000/svg" viewBox="0 0 842.06 859.95"><defs><style>.cls-1{fill:#222221}.cls-2{fill:#6eaa43}.cls-3{fill:#1b3035}</style></defs><path class="cls-1" d="M760.9 466.47v-.29h.28V466.75h-.28z"/><path class="cls-2" d="M760.64 466.15L703 460.09a291.61 291.61 0 0 0 .32-57.2l58-5.55a362.34 362.34 0 0 1-.68 68.81z"/><path class="cls-3" d="M702.91 460.67l57.67 6.06A363 363 0 0 1 747 534.18l-55.62-17.49a290.44 290.44 0 0 0 11.53-56.02zm45.78-131.48a355.41 355.41 0 0 1 12.58 67.58l-58 5.55a286.93 286.93 0 0 0-11-56z"/><path class="cls-2" d="M691.17 517.23l55.61 17.49a355.48 355.48 0 0 1-26.35 63.5l-51.7-28.53a287.88 287.88 0 0 0 22.44-52.46zm56.73-190.74c.22.72.42 1.44.64 2.15L692 345.82a288.59 288.59 0 0 0-21.83-52.38l53-28.52a355.73 355.73 0 0 1 24.73 61.57z"/><path class="cls-3" d="M720.16 598.71c-.35.66-.7 1.33-1.06 2a356.32 356.32 0 0 1-36.93 55.1l-46-38.92a287.79 287.79 0 0 0 32.24-46.69z"/><path class="cls-1" d="M702.66 460.35l58.24 6.12v.29h-.29l-57.67-6.06h-.28zm.34-.26l57.67 6.06h.29v.29l-58.24-6.12v-.29zm-.63.23v-.29h.29v.58h-.29z"/><path class="cls-3" d="M723 264.42l-53.05 28.52a290.23 290.23 0 0 0-31.45-46.73l47.4-39.16a352.91 352.91 0 0 1 37.1 57.37z"/><path class="cls-2" d="M635.85 617.31l45.95 38.92a352.77 352.77 0 0 1-48.2 48.41l-38.23-48.16a290.54 290.54 0 0 0 40.48-39.17zm2.36-459.63a349 349 0 0 1 47.3 48.93l-47.41 39.15a292.32 292.32 0 0 0-39.61-39.44z"/><path class="cls-3" d="M594.93 656.84L633.16 705a349.9 349.9 0 0 1-56.43 38L548 687.2a291.61 291.61 0 0 0 46.93-30.36zm42.84-499.53L598.05 206a289.59 289.59 0 0 0-46.2-30.82l30.08-56.33 1.93 1.08a343.74 343.74 0 0 1 53.91 37.38z"/><path class="cls-2" d="M547.47 687.45l28.75 55.84a343.09 343.09 0 0 1-60.51 25.41l-2.11.65L495.89 708a289.07 289.07 0 0 0 51.58-20.55zm33.97-568.91l-30.09 56.33a287.09 287.09 0 0 0-51-21.18L519.25 92a339.21 339.21 0 0 1 62.19 26.54z"/><path class="cls-3" d="M495.34 708.16l17.72 61.36a339.47 339.47 0 0 1-66.36 13.09l-5.7-64.32a287.36 287.36 0 0 0 54.34-10.13zM518.7 91.78l-18.92 61.74a291.93 291.93 0 0 0-54-11l6.77-64.42a343.21 343.21 0 0 1 66.15 13.68z"/><path class="cls-2" d="M440.46 718.34l5.67 64.32a343.28 343.28 0 0 1-67.52-.41l6.77-64.43a291.38 291.38 0 0 0 55.08.52z"/><path class="cls-1" d="M686.13 206.47a353.43 353.43 0 0 1 62.31 119.85 358.62 358.62 0 0 1 12.77 139.89h-.28C781.22 271.64 643.38 98.06 452.6 77.86v-.27a340.14 340.14 0 0 1 131.5 41.8 345.85 345.85 0 0 1 102.03 87.08z"/><path class="cls-1" d="M581.44 118.54A339.21 339.21 0 0 0 519.25 92l-18.92 61.74a287.09 287.09 0 0 1 51 21.18zm57 127.67a290.23 290.23 0 0 1 31.45 46.73L723 264.42a352.91 352.91 0 0 0-37.1-57.37zM598.05 206l39.72-48.65a343.74 343.74 0 0 0-53.91-37.42l-1.93-1.08-30.08 56.33a289.59 289.59 0 0 1 46.2 30.82zm.44.36a292.32 292.32 0 0 1 39.61 39.44l47.41-39.15a349 349 0 0 0-47.3-48.93zm150 122.32c-.22-.71-.42-1.43-.64-2.15a355.73 355.73 0 0 0-24.68-61.57l-53 28.52A288.59 288.59 0 0 1 692 345.82zm-45.31 73.68l58-5.55a355.41 355.41 0 0 0-12.58-67.58l-56.5 17.17a286.93 286.93 0 0 1 11.13 55.92zm58.09-5l-58 5.55a291.61 291.61 0 0 1-.32 57.2h-.28a290.28 290.28 0 0 0 .29-57.43 287.43 287.43 0 0 0-33.18-109.3 289.84 289.84 0 0 0-118.32-118.13A286.8 286.8 0 0 0 500 153.88a290.87 290.87 0 0 0-54.21-11v-.29a291.93 291.93 0 0 1 54 11l18.91-61.81a343.21 343.21 0 0 0-66.13-13.63v-.29c190.78 20.2 328.62 193.78 308.33 388.32h-.29a362.34 362.34 0 0 0 .71-68.84z"/><path class="cls-1" d="M702.4 460a290.26 290.26 0 0 0 .29-57.37v-.1a286.9 286.9 0 0 0-11.1-56.23v-.08a288.55 288.55 0 0 0-21.88-52.55l-.13-.23-.14-.25a290.43 290.43 0 0 0-31.47-46.74l-.1-.12a290.27 290.27 0 0 0-39.93-39.77l-.11-.08a288.94 288.94 0 0 0-46.47-31l-.21-.1a287.05 287.05 0 0 0-51.22-21.25 291.83 291.83 0 0 0-54.12-11v-.29a290.87 290.87 0 0 1 54.21 11 286.91 286.91 0 0 1 98.1 52.49 289.82 289.82 0 0 1 93.75 139.8 286.12 286.12 0 0 1 11.13 56.5 290.28 290.28 0 0 1-.29 57.43zM446.7 782.61a339.47 339.47 0 0 0 66.36-13.09l-17.72-61.36A287.36 287.36 0 0 1 441 718.29zm-68.09-.36a343.28 343.28 0 0 0 67.52.41l-5.67-64.32a291.38 291.38 0 0 1-55.08-.52zm257.24-164.94a290.54 290.54 0 0 1-40.48 39.17l38.23 48.16a352.77 352.77 0 0 0 48.2-48.41zm-40.92 39.53A291.61 291.61 0 0 1 548 687.2l28.73 55.8a349.9 349.9 0 0 0 56.43-38zM515.71 768.7a343.09 343.09 0 0 0 60.51-25.41l-28.75-55.84A289.07 289.07 0 0 1 495.89 708l17.71 61.34zm203.39-168c.36-.65.71-1.32 1.06-2l-51.71-28.53a287.79 287.79 0 0 1-32.24 46.69l46 38.92a356.32 356.32 0 0 0 36.89-55.09zm27.68-66l-55.61-17.49a287.88 287.88 0 0 1-22.44 52.46l51.7 28.53a355.48 355.48 0 0 0 26.35-63.48zm-43.87-74.05a290.44 290.44 0 0 1-11.58 56L747 534.18a363 363 0 0 0 13.63-67.45h.29C740.28 661.36 569.23 802.56 378.3 782.5l6.83-65a291.33 291.33 0 0 0 55.59.51 288.62 288.62 0 0 0 261.91-257.37zM445.8 142.57v.29h-.28l6.83-65h.28v.29zm6.52-64.74l-6.83 65h-.28v-.29L452 78.09v-.29z"/><path class="cls-1" d="M452.63 77.59v.27H452.06v-.27h.29zm-7.14 65.24h.28v.29h-.56v-.29z"/><path class="cls-3" d="M384.81 717.76l-6.76 64.43a343.36 343.36 0 0 1-66.13-13.63l18.92-61.73a291.47 291.47 0 0 0 53.97 10.93z"/><path class="cls-2" d="M452 78.09l-6.76 64.42a292.1 292.1 0 0 0-55.07-.5l-5.68-64.33a343.17 343.17 0 0 1 67.51.41z"/><path class="cls-3" d="M383.92 77.73l5.68 64.33a287 287 0 0 0-54.3 10.11l-17.73-61.35a339.52 339.52 0 0 1 66.35-13.09z"/><path class="cls-2" d="M330.3 706.66l-18.92 61.73a339.21 339.21 0 0 1-62.19-26.59l30.08-56.33a288 288 0 0 0 51.03 21.19zM317 91l17.73 61.34a290.48 290.48 0 0 0-51.59 20.55L254.4 117a343.46 343.46 0 0 1 60.52-25.4z"/><path class="cls-3" d="M278.77 685.2l-30.08 56.32-1.92-1.07A343.36 343.36 0 0 1 192.85 703l39.74-48.65a289 289 0 0 0 46.18 30.85zm-24.86-567.89l28.75 55.84a290.34 290.34 0 0 0-47 30.36l-38.24-48.17a349.62 349.62 0 0 1 56.49-38.03z"/><path class="cls-2" d="M232.15 654l-39.73 48.64a349 349 0 0 1-47.31-48.93l47.42-39.16A289.62 289.62 0 0 0 232.15 654zM197 155.71l38.23 48.15A291 291 0 0 0 194.78 243l-46-38.92A353.27 353.27 0 0 1 197 155.71z"/><path class="cls-3" d="M192.16 614.13l-47.4 39.16a353.52 353.52 0 0 1-37.09-57.37l53-28.52a290.45 290.45 0 0 0 31.49 46.73z"/><path class="cls-2" d="M138.6 514.53a288 288 0 0 0 21.84 52.36l-53 28.53a354.46 354.46 0 0 1-24.68-61.57c-.21-.72-.43-1.43-.63-2.16z"/><path class="cls-3" d="M148.46 204.55l45.95 38.92a288.42 288.42 0 0 0-32.24 46.69l-51.71-28.54c.35-.65.71-1.32 1.07-2a355.61 355.61 0 0 1 36.93-55.07zM138.44 514l-56.5 17.16a357 357 0 0 1-12.59-67.58l58-5.56A288.79 288.79 0 0 0 138.44 514z"/><path class="cls-2" d="M110.2 262.13l51.69 28.53a288 288 0 0 0-22.43 52.45l-55.62-17.49a355.86 355.86 0 0 1 26.36-63.49z"/><path class="cls-3" d="M83.68 326.16l55.61 17.49a291.49 291.49 0 0 0-11.57 56L70 393.61a363.79 363.79 0 0 1 13.68-67.45z"/><path class="cls-2" d="M127.34 457.45l-58 5.55a363.15 363.15 0 0 1 .66-68.81l57.68 6.05a290.94 290.94 0 0 0-.34 57.21z"/><path class="cls-1" d="M702.63 460.64a289.16 289.16 0 0 1-372 245.83A287.29 287.29 0 0 1 232.54 654q-10.95-9-21-19t-19-20.86A289.16 289.16 0 0 1 160.83 567q-6.77-12.56-12.3-25.79a280.43 280.43 0 0 1-9.73-27 286.31 286.31 0 0 1-11.15-56.48 291.68 291.68 0 0 1 12-114.24 287 287 0 0 1 55.17-100 289.56 289.56 0 0 1 140.28-90.96q13.27-3.84 27-6.42c9.14-1.7 18.43-3 27.81-3.79a289.9 289.9 0 0 1 55.3.48v.29a290.57 290.57 0 0 0-55.24-.49 286.37 286.37 0 0 0-54.53 10.14l-.23.06-.23.07a288.68 288.68 0 0 0-51.74 20.64l-.24.13a289.36 289.36 0 0 0-47.1 30.48l-.22.17a289.25 289.25 0 0 0-73.08 86.39v.07a287.68 287.68 0 0 0-22.57 52.79A289 289 0 0 0 139 513.92l.06.17a288.8 288.8 0 0 0 21.87 52.55l.14.24v.09a290.43 290.43 0 0 0 71.38 86.6l.21.16a287.16 287.16 0 0 0 98 52.44 293.13 293.13 0 0 0 110 11.55 287.18 287.18 0 0 0 106.76-30.93l.23-.12a289.51 289.51 0 0 0 120.4-117 286.36 286.36 0 0 0 22.62-52.87v-.17a290.34 290.34 0 0 0 11.58-56z"/><path class="cls-1" d="M384.81 717.76a291.47 291.47 0 0 1-54-10.93l-18.92 61.73a343.36 343.36 0 0 0 66.13 13.63zm-135.62 24a339.21 339.21 0 0 0 62.19 26.59l18.92-61.73a288 288 0 0 1-51-21.19zM192.85 703a343.36 343.36 0 0 0 53.92 37.42l1.92 1.07 30.08-56.32a289 289 0 0 1-46.18-30.82zM70 394.19a363.15 363.15 0 0 0-.69 68.81l58-5.55a290.94 290.94 0 0 1 .32-57.21zm122.53 220.38l-47.42 39.16a349 349 0 0 0 47.31 48.93L232.15 654a289.62 289.62 0 0 1-39.62-39.43zm-84.86-18.65a353.52 353.52 0 0 0 37.09 57.37l47.4-39.16a290.45 290.45 0 0 1-31.45-46.73zm52.77-29a288 288 0 0 1-21.84-52.36l-56.5 17.13c.2.73.42 1.44.63 2.16a354.46 354.46 0 0 0 24.68 61.57zM127.65 457.7a286.31 286.31 0 0 0 11.15 56.48 280.43 280.43 0 0 0 9.73 27q5.52 13.21 12.3 25.79a289.16 289.16 0 0 0 31.73 47.16q9 10.89 19 20.86t21 19a287.29 287.29 0 0 0 98.11 52.49 291.15 291.15 0 0 0 54.48 11l-6.83 65c-191-20.06-329-193.88-308.57-388.63L128 400a290.86 290.86 0 0 0-.35 57.7zm10.79 56.3a288.79 288.79 0 0 1-11-56l-58 5.56a357 357 0 0 0 12.59 67.58z"/><path class="cls-1" d="M383.92 77.73a339.52 339.52 0 0 0-66.35 13.09l17.73 61.35a287 287 0 0 1 54.3-10.11zm-69 13.91A343.46 343.46 0 0 0 254.4 117l28.76 55.84a290.48 290.48 0 0 1 51.59-20.55L317 91zm-175.63 252l-55.61-17.48A363.79 363.79 0 0 0 70 393.61l57.68 6.06a291.49 291.49 0 0 1 11.61-56.02zm58.17-188.31l38.24 48.17a290.34 290.34 0 0 1 47-30.36l-28.75-55.84a349.62 349.62 0 0 0-56.49 38.04zm-.44.37a353.27 353.27 0 0 0-48.2 48.4l46 38.92a291 291 0 0 1 40.47-39.17zm-34.85 134.46a288.42 288.42 0 0 1 32.24-46.69l-45.95-38.92a355.61 355.61 0 0 0-36.93 55.1c-.36.65-.72 1.32-1.07 2zm-22.71 52.95a288 288 0 0 1 22.43-52.45l-51.69-28.53a355.86 355.86 0 0 0-26.36 63.49zm-69.73 50.76C80 296.5 127.86 212.47 197.07 155.3c69-57 159.19-87.31 255-77.5v.29a343.17 343.17 0 0 0-67.51-.41l5.61 64.32a292.1 292.1 0 0 1 55.07.5v.29a289.9 289.9 0 0 0-55.3-.48c-9.38.81-18.67 2.09-27.81 3.79s-18.15 3.86-27 6.42A288.57 288.57 0 0 0 128 400z"/><path class="cls-1" d="M719.6 601a353.5 353.5 0 0 1-85.86 104.28 345.66 345.66 0 0 1-117.86 64 340.28 340.28 0 0 1-137.33 13.57l-.56-.06A340.09 340.09 0 0 1 246.49 741a345.86 345.86 0 0 1-102-87.09A353.51 353.51 0 0 1 82.18 534 362.77 362.77 0 0 1 111 259.37a353.64 353.64 0 0 1 85.85-104.29 345.85 345.85 0 0 1 117.87-64 340.18 340.18 0 0 1 137.34-13.55v.27c-95.77-9.81-186 20.49-255 77.5C127.86 212.47 80 296.5 69.73 393.87 49.28 588.62 187.28 762.44 378.3 782.5s362-121.14 382.57-315.74h.28A358.77 358.77 0 0 1 719.6 601z"/></svg>